Yantramanav-Thin.ufo
<glyph name="exclam" format="1">
  <advance width="527"/>
  <unicode hex="0021"/>
  <outline>
    <contour>
      <point x="284" y="430" type="line"/>
      <point x="235" y="430" type="line"/>
      <point x="235" y="1310" type="line"/>
      <point x="284" y="1310" type="line"/>
    </contour>
    <contour>
      <point x="303" y="0" type="line"/>
      <point x="217" y="0" type="line"/>
      <point x="217" y="121" type="line"/>
      <point x="303" y="121" type="line"/>
    </contour>
  </outline>
</glyph>
<glyph name="quotedbl" format="1">
  <advance width="639"/>
  <unicode hex="0022"/>
  <outline>
    <contour>
      <point x="283" y="1254" type="line"/>
      <point x="238" y="1010" type="line"/>
      <point x="193" y="1010" type="line"/>
      <point x="233" y="1251" type="line"/>
      <point x="233" y="1404" type="line"/>
      <point x="283" y="1404" type="line"/>
    </contour>
    <contour>
      <point x="446" y="1254" type="line"/>
      <point x="401" y="1010" type="line"/>
      <point x="356" y="1010" type="line"/>
      <point x="397" y="1251" type="line"/>
      <point x="397" y="1404" type="line"/>
      <point x="446" y="1404" type="line"/>
    </contour>
  </outline>
</glyph>
<glyph name="dollar" format="1">
  <advance width="1009"/>
  <unicode hex="0024"/>
  <outline>
    <contour>
      <point x="852" y="289" type="qcurve" smooth="yes"/>
      <point x="852" y="406"/>
      <point x="710" y="542"/>
      <point x="518" y="611" type="qcurve" smooth="yes"/>
      <point x="325" y="675"/>
      <point x="151" y="828"/>
      <point x="151" y="978" type="qcurve" smooth="yes"/>
      <point x="151" y="1122"/>
      <point x="339" y="1301"/>
      <point x="499" y="1308" type="qcurve"/>
      <point x="499" y="1476" type="line"/>
      <point x="548" y="1476" type="line"/>
      <point x="548" y="1308" type="line"/>
      <point x="711" y="1299"/>
      <point x="892" y="1100"/>
      <point x="889" y="926" type="qcurve"/>
      <point x="887" y="922" type="line"/>
      <point x="845" y="922" type="line"/>
      <point x="845" y="1071"/>
      <point x="674" y="1261"/>
      <point x="521" y="1261" type="qcurve" smooth="yes"/>
      <point x="365" y="1261"/>
      <point x="200" y="1096"/>
      <point x="200" y="980" type="qcurve" smooth="yes"/>
      <point x="200" y="862"/>
      <point x="332" y="724"/>
      <point x="534" y="658" type="qcurve" smooth="yes"/>
      <point x="723" y="592"/>
      <point x="901" y="439"/>
      <point x="901" y="291" type="qcurve" smooth="yes"/>
      <point x="901" y="146"/>
      <point x="714" y="-30"/>
      <point x="558" y="-39" type="qcurve"/>
      <point x="558" y="-208" type="line"/>
      <point x="508" y="-208" type="line"/>
      <point x="508" y="-40" type="line"/>
      <point x="338" y="-34"/>
      <point x="110" y="149"/>
      <point x="114" y="342" type="qcurve"/>
      <point x="116" y="347" type="line"/>
      <point x="158" y="347" type="line"/>
      <point x="158" y="168"/>
      <point x="376" y="8"/>
      <point x="527" y="8" type="qcurve" smooth="yes"/>
      <point x="674" y="8"/>
      <point x="852" y="174"/>
    </contour>
  </outline>
</glyph>
<glyph name="percent" format="1">
  <advance width="1374"/>
  <unicode hex="0025"/>
  <outline>
    <contour>
      <point x="103" y="1056" type="line" smooth="yes"/>
      <point x="103" y="1170"/>
      <point x="239" y="1327"/>
      <point x="347" y="1327" type="qcurve" smooth="yes"/>
      <point x="455" y="1327"/>
      <point x="591" y="1170"/>
      <point x="591" y="1056" type="qcurve" smooth="yes"/>
      <point x="591" y="987" type="line" smooth="yes"/>
      <point x="591" y="874"/>
      <point x="455" y="718"/>
      <point x="349" y="718" type="qcurve" smooth="yes"/>
      <point x="239" y="718"/>
      <point x="103" y="874"/>
      <point x="103" y="987" type="qcurve" smooth="yes"/>
    </contour>
    <contour>
      <point x="152" y="987" type="line" smooth="yes"/>
      <point x="152" y="897"/>
      <point x="254" y="767"/>
      <point x="349" y="767" type="qcurve" smooth="yes"/>
      <point x="441" y="767"/>
      <point x="542" y="897"/>
      <point x="542" y="987" type="qcurve" smooth="yes"/>
      <point x="542" y="1056" type="line" smooth="yes"/>
      <point x="542" y="1146"/>
      <point x="440" y="1278"/>
      <point x="347" y="1278" type="qcurve" smooth="yes"/>
      <point x="255" y="1278"/>
      <point x="152" y="1145"/>
      <point x="152" y="1056" type="qcurve" smooth="yes"/>
    </contour>
    <contour>
      <point x="783" y="319" type="line" smooth="yes"/>
      <point x="783" y="432"/>
      <point x="919" y="589"/>
      <point x="1027" y="589" type="qcurve" smooth="yes"/>
      <point x="1135" y="589"/>
      <point x="1272" y="433"/>
      <point x="1272" y="319" type="qcurve" smooth="yes"/>
      <point x="1272" y="249" type="line" smooth="yes"/>
      <point x="1272" y="136"/>
      <point x="1136" y="-21"/>
      <point x="1029" y="-21" type="qcurve" smooth="yes"/>
      <point x="920" y="-21"/>
      <point x="783" y="136"/>
      <point x="783" y="249" type="qcurve" smooth="yes"/>
    </contour>
    <contour>
      <point x="833" y="249" type="line" smooth="yes"/>
      <point x="833" y="158"/>
      <point x="933" y="29"/>
      <point x="1029" y="29" type="qcurve" smooth="yes"/>
      <point x="1121" y="29"/>
      <point x="1222" y="158"/>
      <point x="1222" y="249" type="qcurve" smooth="yes"/>
      <point x="1222" y="319" type="line" smooth="yes"/>
      <point x="1222" y="415"/>
      <point x="1121" y="540"/>
      <point x="1027" y="540" type="qcurve" smooth="yes"/>
      <point x="934" y="540"/>
      <point x="833" y="414"/>
      <point x="833" y="319" type="qcurve" smooth="yes"/>
    </contour>
    <contour>
      <point x="416" y="116" type="line"/>
      <point x="375" y="144" type="line"/>
      <point x="1015" y="1168" type="line"/>
      <point x="1056" y="1140" type="line"/>
    </contour>
  </outline>
</glyph>
<glyph name="ampersand" format="1">
  <advance width="1122"/>
  <unicode hex="0026"/>
  <outline>
    <contour>
      <point x="380" y="721" type="line"/>
      <point x="306" y="813"/>
      <point x="236" y="966"/>
      <point x="236" y="1048" type="qcurve" smooth="yes"/>
      <point x="236" y="1182"/>
      <point x="383" y="1327"/>
      <point x="510" y="1327" type="qcurve" smooth="yes"/>
      <point x="629" y="1327"/>
      <point x="759" y="1198"/>
      <point x="759" y="1091" type="qcurve" smooth="yes"/>
      <point x="759" y="1016"/>
      <point x="689" y="911"/>
      <point x="626" y="860" type="qcurve" smooth="yes"/>
      <point x="445" y="715" type="line"/>
      <point x="872" y="229" type="line"/>
      <point x="921" y="298"/>
      <point x="976" y="469"/>
      <point x="976" y="567" type="qcurve"/>
      <point x="1025" y="567" type="line"/>
      <point x="1025" y="454"/>
      <point x="962" y="270"/>
      <point x="905" y="192" type="qcurve"/>
      <point x="1072" y="2" type="line"/>
      <point x="1070" y="-2" type="line"/>
      <point x="1016" y="-2" type="line"/>
      <point x="875" y="157" type="line"/>
      <point x="870" y="153"/>
      <point x="865" y="147"/>
      <point x="864" y="146" type="qcurve"/>
      <point x="783" y="65"/>
      <point x="606" y="-21"/>
      <point x="494" y="-21" type="qcurve" smooth="yes"/>
      <point x="312" y="-21"/>
      <point x="104" y="160"/>
      <point x="104" y="315" type="qcurve" smooth="yes"/>
      <point x="104" y="417"/>
      <point x="225" y="592"/>
      <point x="334" y="684" type="qcurve" smooth="yes"/>
    </contour>
    <contour>
      <point x="494" y="28" type="qcurve" smooth="yes"/>
      <point x="593" y="28"/>
      <point x="775" y="113"/>
      <point x="843" y="192" type="qcurve"/>
      <point x="439" y="650" type="line"/>
      <point x="432" y="658"/>
      <point x="419" y="674"/>
      <point x="409" y="686" type="qcurve"/>
      <point x="362" y="649" type="line" smooth="yes"/>
      <point x="239" y="542"/>
      <point x="152" y="385"/>
      <point x="152" y="315" type="qcurve" smooth="yes"/>
      <point x="152" y="194"/>
      <point x="329" y="28"/>
    </contour>
    <contour>
      <point x="285" y="1050" type="qcurve" smooth="yes"/>
      <point x="285" y="979"/>
      <point x="348" y="828"/>
      <point x="416" y="749" type="qcurve"/>
      <point x="604" y="898" type="line" smooth="yes"/>
      <point x="658" y="943"/>
      <point x="708" y="1039"/>
      <point x="708" y="1091" type="qcurve" smooth="yes"/>
      <point x="708" y="1176"/>
      <point x="607" y="1279"/>
      <point x="510" y="1279" type="qcurve" smooth="yes"/>
      <point x="402" y="1279"/>
      <point x="285" y="1148"/>
    </contour>
  </outline>
</glyph>
<glyph name="quotesingle" format="1">
  <advance width="476"/>
  <unicode hex="0027"/>
  <outline>
    <contour>
      <point x="283" y="1252" type="line"/>
      <point x="238" y="1010" type="line"/>
      <point x="193" y="1010" type="line"/>
      <point x="233" y="1250" type="line"/>
      <point x="233" y="1404" type="line"/>
      <point x="283" y="1404" type="line"/>
    </contour>
  </outline>
</glyph>
<glyph name="parenleft" format="1">
  <advance width="716"/>
  <unicode hex="0028"/>
  <outline>
    <contour>
      <point x="218" y="527" type="line"/>
      <point x="218" y="832"/>
      <point x="435" y="1362"/>
      <point x="588" y="1454" type="qcurve"/>
      <point x="593" y="1454" type="line"/>
      <point x="608" y="1422" type="line"/>
      <point x="470" y="1331"/>
      <point x="267" y="815"/>
      <point x="267" y="531" type="qcurve"/>
      <point x="267" y="508" type="line"/>
      <point x="267" y="222"/>
      <point x="470" y="-293"/>
      <point x="608" y="-384" type="qcurve"/>
      <point x="593" y="-417" type="line"/>
      <point x="588" y="-417" type="line"/>
      <point x="433" y="-322"/>
      <point x="218" y="192"/>
      <point x="218" y="509" type="qcurve"/>
    </contour>
  </outline>
</glyph>
<glyph name="parenright" format="1">
  <advance width="731"/>
  <unicode hex="0029"/>
  <outline>
    <contour>
      <point x="500" y="509" type="line"/>
      <point x="500" y="192"/>
      <point x="284" y="-322"/>
      <point x="130" y="-417" type="qcurve"/>
      <point x="125" y="-417" type="line"/>
      <point x="110" y="-384" type="line"/>
      <point x="247" y="-293"/>
      <point x="451" y="222"/>
      <point x="451" y="508" type="qcurve"/>
      <point x="451" y="531" type="line"/>
      <point x="451" y="815"/>
      <point x="247" y="1331"/>
      <point x="110" y="1422" type="qcurve"/>
      <point x="125" y="1454" type="line"/>
      <point x="130" y="1454" type="line"/>
      <point x="282" y="1362"/>
      <point x="500" y="832"/>
      <point x="500" y="527" type="qcurve"/>
    </contour>
  </outline>
</glyph>
<glyph name="asterisk" format="1">
  <advance width="770"/>
  <unicode hex="002A"/>
  <outline>
    <contour>
      <point x="354" y="981" type="line"/>
      <point x="27" y="1093" type="line"/>
      <point x="43" y="1142" type="line"/>
      <point x="369" y="1022" type="line"/>
      <point x="370" y="1377" type="line"/>
      <point x="420" y="1377" type="line"/>
      <point x="414" y="1021" type="line"/>
      <point x="731" y="1150" type="line"/>
      <point x="749" y="1102" type="line"/>
      <point x="425" y="979" type="line"/>
      <point x="649" y="693" type="line"/>
      <point x="607" y="664" type="line"/>
      <point x="389" y="954" type="line"/>
      <point x="184" y="661" type="line"/>
      <point x="143" y="690" type="line"/>
    </contour>
  </outline>
</glyph>
<glyph name="plus" format="1">
  <advance width="1036"/>
  <unicode hex="002B"/>
  <outline>
    <contour>
      <point x="531" y="646" type="line"/>
      <point x="964" y="646" type="line"/>
      <point x="964" y="599" type="line"/>
      <point x="531" y="599" type="line"/>
      <point x="531" y="146" type="line"/>
      <point x="482" y="146" type="line"/>
      <point x="482" y="599" type="line"/>
      <point x="66" y="599" type="line"/>
      <point x="66" y="646" type="line"/>
      <point x="482" y="646" type="line"/>
      <point x="482" y="1100" type="line"/>
      <point x="531" y="1100" type="line"/>
    </contour>
  </outline>
</glyph>
<glyph name="comma" format="1">
  <advance width="345"/>
  <unicode hex="002C"/>
  <outline>
    <contour>
      <point x="212" y="-33" type="line"/>
      <point x="149" y="-258" type="line"/>
      <point x="103" y="-258" type="line"/>
      <point x="163" y="-37" type="line"/>
      <point x="163" y="117" type="line"/>
      <point x="212" y="117" type="line"/>
    </contour>
  </outline>
</glyph>
<glyph name="hyphen" format="1">
  <advance width="546"/>
  <unicode hex="002D"/>
  <outline>
    <contour>
      <point x="478" y="599" type="line"/>
      <point x="55" y="599" type="line"/>
      <point x="55" y="648" type="line"/>
      <point x="478" y="648" type="line"/>
    </contour>
  </outline>
</glyph>
<glyph name="period" format="1">
  <advance width="395"/>
  <unicode hex="002E"/>
  <outline>
    <contour>
      <point x="233" y="0" type="line"/>
      <point x="156" y="0" type="line"/>
      <point x="156" y="117" type="line"/>
      <point x="233" y="117" type="line"/>
    </contour>
  </outline>
</glyph>
<glyph name="slash" format="1">
  <advance width="704"/>
  <unicode hex="002F"/>
  <outline>
    <contour>
      <point x="91" y="-125" type="line"/>
      <point x="38" y="-125" type="line"/>
      <point x="585" y="1298" type="line"/>
      <point x="638" y="1298" type="line"/>
    </contour>
  </outline>
</glyph>
<glyph name="one" format="1">
  <advance width="1009"/>
  <unicode hex="0031"/>
  <outline>
    <contour>
      <point x="593" y="-13" type="line"/>
      <point x="545" y="-13" type="line"/>
      <point x="545" y="1270" type="line"/>
      <point x="186" y="1199" type="line"/>
      <point x="186" y="1241" type="line"/>
      <point x="593" y="1316" type="line"/>
    </contour>
  </outline>
</glyph>
<glyph name="two" format="1">
  <advance width="1009"/>
  <unicode hex="0032"/>
  <outline>
    <contour>
      <point x="922" y="0" type="line"/>
      <point x="138" y="0" type="line"/>
      <point x="138" y="49" type="line"/>
      <point x="567" y="544" type="line" smooth="yes"/>
      <point x="689" y="685"/>
      <point x="802" y="890"/>
      <point x="802" y="977" type="qcurve" smooth="yes"/>
      <point x="802" y="1121"/>
      <point x="644" y="1281"/>
      <point x="491" y="1281" type="qcurve" smooth="yes"/>
      <point x="330" y="1281"/>
      <point x="154" y="1092"/>
      <point x="154" y="941" type="qcurve"/>
      <point x="113" y="941" type="line"/>
      <point x="111" y="947" type="line"/>
      <point x="106" y="1106"/>
      <point x="316" y="1329"/>
      <point x="491" y="1329" type="qcurve" smooth="yes"/>
      <point x="654" y="1329"/>
      <point x="851" y="1145"/>
      <point x="851" y="977" type="qcurve" smooth="yes"/>
      <point x="851" y="869"/>
      <point x="710" y="642"/>
      <point x="581" y="491" type="qcurve" smooth="yes"/>
      <point x="206" y="53" type="line"/>
      <point x="208" y="49" type="line"/>
      <point x="922" y="49" type="line"/>
    </contour>
  </outline>
</glyph>
<glyph name="three" format="1">
  <advance width="1009"/>
  <unicode hex="0033"/>
  <outline>
    <contour>
      <point x="375" y="692" type="line"/>
      <point x="475" y="692" type="line" smooth="yes"/>
      <point x="640" y="692"/>
      <point x="829" y="856"/>
      <point x="829" y="975" type="qcurve" smooth="yes"/>
      <point x="829" y="1108"/>
      <point x="666" y="1279"/>
      <point x="508" y="1279" type="qcurve" smooth="yes"/>
      <point x="362" y="1279"/>
      <point x="169" y="1108"/>
      <point x="169" y="965" type="qcurve"/>
      <point x="128" y="965" type="line"/>
      <point x="126" y="971" type="line"/>
      <point x="121" y="1130"/>
      <point x="344" y="1327"/>
      <point x="508" y="1327" type="qcurve" smooth="yes"/>
      <point x="677" y="1327"/>
      <point x="878" y="1136"/>
      <point x="878" y="972" type="qcurve" smooth="yes"/>
      <point x="878" y="868"/>
      <point x="747" y="704"/>
      <point x="636" y="668" type="qcurve"/>
      <point x="764" y="637"/>
      <point x="906" y="471"/>
      <point x="906" y="345" type="qcurve" smooth="yes"/>
      <point x="906" y="174"/>
      <point x="689" y="-21"/>
      <point x="516" y="-21" type="qcurve" smooth="yes"/>
      <point x="349" y="-21"/>
      <point x="94" y="176"/>
      <point x="98" y="357" type="qcurve"/>
      <point x="100" y="362" type="line"/>
      <point x="141" y="362" type="line"/>
      <point x="141" y="217"/>
      <point x="355" y="28"/>
      <point x="516" y="28" type="qcurve" smooth="yes"/>
      <point x="678" y="28"/>
      <point x="858" y="194"/>
      <point x="858" y="342" type="qcurve" smooth="yes"/>
      <point x="858" y="495"/>
      <point x="652" y="641"/>
      <point x="475" y="641" type="qcurve" smooth="yes"/>
      <point x="375" y="641" type="line"/>
    </contour>
  </outline>
</glyph>
<glyph name="four" format="1">
  <advance width="1009"/>
  <unicode hex="0034"/>
  <outline>
    <contour>
      <point x="758" y="406" type="line"/>
      <point x="985" y="406" type="line"/>
      <point x="985" y="357" type="line"/>
      <point x="758" y="357" type="line"/>
      <point x="758" y="0" type="line"/>
      <point x="709" y="0" type="line"/>
      <point x="709" y="357" type="line"/>
      <point x="74" y="357" type="line"/>
      <point x="74" y="384" type="line"/>
      <point x="699" y="1310" type="line"/>
      <point x="758" y="1310" type="line"/>
    </contour>
    <contour>
      <point x="149" y="406" type="line"/>
      <point x="709" y="406" type="line"/>
      <point x="709" y="1242" type="line"/>
      <point x="704" y="1244" type="line"/>
      <point x="634" y="1128" type="line"/>
    </contour>
  </outline>
</glyph>
<glyph name="five" format="1">
  <advance width="1009"/>
  <unicode hex="0035"/>
  <outline>
    <contour>
      <point x="181" y="594" type="line"/>
      <point x="251" y="1308" type="line"/>
      <point x="872" y="1308" type="line"/>
      <point x="872" y="1261" type="line"/>
      <point x="295" y="1261" type="line"/>
      <point x="240" y="704" type="line"/>
      <point x="297" y="761"/>
      <point x="431" y="819"/>
      <point x="562" y="822" type="qcurve" smooth="yes"/>
      <point x="718" y="827"/>
      <point x="922" y="604"/>
      <point x="922" y="416" type="qcurve" smooth="yes"/>
      <point x="922" y="215"/>
      <point x="733" y="-21"/>
      <point x="535" y="-21" type="qcurve" smooth="yes"/>
      <point x="375" y="-21"/>
      <point x="165" y="160"/>
      <point x="169" y="337" type="qcurve"/>
      <point x="171" y="343" type="line"/>
      <point x="213" y="343" type="line"/>
      <point x="213" y="188"/>
      <point x="386" y="28"/>
      <point x="535" y="28" type="qcurve" smooth="yes"/>
      <point x="709" y="28"/>
      <point x="872" y="220"/>
      <point x="872" y="414" type="qcurve" smooth="yes"/>
      <point x="872" y="579"/>
      <point x="709" y="770"/>
      <point x="563" y="770" type="qcurve" smooth="yes"/>
      <point x="419" y="770"/>
      <point x="254" y="674"/>
      <point x="218" y="579" type="qcurve"/>
    </contour>
  </outline>
</glyph>
<glyph name="six" format="1">
  <advance width="1009"/>
  <unicode hex="0036"/>
  <outline>
    <contour>
      <point x="561" y="1327" type="qcurve" smooth="yes"/>
      <point x="629" y="1327"/>
      <point x="760" y="1298"/>
      <point x="817" y="1264" type="qcurve"/>
      <point x="798" y="1218" type="line"/>
      <point x="739" y="1253"/>
      <point x="637" y="1279"/>
      <point x="561" y="1279" type="qcurve" smooth="yes"/>
      <point x="410" y="1279"/>
      <point x="202" y="1050"/>
      <point x="202" y="863" type="qcurve" smooth="yes"/>
      <point x="202" y="633" type="line"/>
      <point x="244" y="731"/>
      <point x="430" y="859"/>
      <point x="553" y="859" type="qcurve" smooth="yes"/>
      <point x="730" y="859"/>
      <point x="932" y="614"/>
      <point x="932" y="412" type="qcurve" smooth="yes"/>
      <point x="932" y="226"/>
      <point x="713" y="-21"/>
      <point x="544" y="-21" type="qcurve" smooth="yes"/>
      <point x="373" y="-21"/>
      <point x="153" y="241"/>
      <point x="153" y="459" type="qcurve" smooth="yes"/>
      <point x="153" y="862" type="line" smooth="yes"/>
      <point x="153" y="1066"/>
      <point x="390" y="1327"/>
    </contour>
    <contour>
      <point x="202" y="498" type="line"/>
      <point x="202" y="460" type="line" smooth="yes"/>
      <point x="202" y="265"/>
      <point x="392" y="27"/>
      <point x="544" y="27" type="qcurve" smooth="yes"/>
      <point x="694" y="27"/>
      <point x="883" y="254"/>
      <point x="883" y="412" type="qcurve" smooth="yes"/>
      <point x="883" y="594"/>
      <point x="710" y="811"/>
      <point x="546" y="811" type="qcurve" smooth="yes"/>
      <point x="409" y="811"/>
      <point x="203" y="626"/>
      <point x="203" y="498" type="qcurve"/>
    </contour>
  </outline>
</glyph>
<glyph name="eight" format="1">
  <advance width="1009"/>
  <unicode hex="0038"/>
  <outline>
    <contour>
      <point x="886" y="975" type="qcurve" smooth="yes"/>
      <point x="886" y="866"/>
      <point x="752" y="702"/>
      <point x="643" y="668" type="qcurve"/>
      <point x="768" y="634"/>
      <point x="923" y="458"/>
      <point x="923" y="339" type="qcurve" smooth="yes"/>
      <point x="923" y="166"/>
      <point x="689" y="-21"/>
      <point x="507" y="-21" type="qcurve" smooth="yes"/>
      <point x="321" y="-21"/>
      <point x="88" y="166"/>
      <point x="88" y="339" type="qcurve" smooth="yes"/>
      <point x="88" y="459"/>
      <point x="240" y="635"/>
      <point x="366" y="668" type="qcurve"/>
      <point x="257" y="702"/>
      <point x="125" y="865"/>
      <point x="125" y="975" type="qcurve" smooth="yes"/>
      <point x="125" y="1141"/>
      <point x="338" y="1327"/>
      <point x="505" y="1327" type="qcurve" smooth="yes"/>
      <point x="670" y="1327"/>
      <point x="886" y="1140"/>
    </contour>
    <contour>
      <point x="874" y="335" type="qcurve" smooth="yes"/>
      <point x="874" y="473"/>
      <point x="662" y="644"/>
      <point x="505" y="644" type="qcurve" smooth="yes"/>
      <point x="346" y="644"/>
      <point x="137" y="473"/>
      <point x="137" y="335" type="qcurve" smooth="yes"/>
      <point x="137" y="190"/>
      <point x="344" y="28"/>
      <point x="507" y="28" type="qcurve" smooth="yes"/>
      <point x="665" y="28"/>
      <point x="874" y="191"/>
    </contour>
    <contour>
      <point x="837" y="980" type="qcurve" smooth="yes"/>
      <point x="837" y="1109"/>
      <point x="644" y="1279"/>
      <point x="505" y="1279" type="qcurve" smooth="yes"/>
      <point x="360" y="1279"/>
      <point x="174" y="1116"/>
      <point x="174" y="980" type="qcurve" smooth="yes"/>
      <point x="174" y="848"/>
      <point x="361" y="693"/>
      <point x="507" y="693" type="qcurve" smooth="yes"/>
      <point x="648" y="693"/>
      <point x="837" y="849"/>
    </contour>
  </outline>
</glyph>
<glyph name="nine" format="1">
  <advance width="1009"/>
  <unicode hex="0039"/>
  <outline>
    <contour>
      <point x="461" y="28" type="qcurve" smooth="yes"/>
      <point x="627" y="28"/>
      <point x="820" y="231"/>
      <point x="820" y="410" type="qcurve" smooth="yes"/>
      <point x="820" y="665" type="line"/>
      <point x="770" y="567"/>
      <point x="585" y="455"/>
      <point x="471" y="455" type="qcurve" smooth="yes"/>
      <point x="302" y="455"/>
      <point x="86" y="703"/>
      <point x="86" y="878" type="qcurve" smooth="yes"/>
      <point x="86" y="1064"/>
      <point x="307" y="1327"/>
      <point x="478" y="1327" type="qcurve" smooth="yes"/>
      <point x="654" y="1327"/>
      <point x="876" y="1088"/>
      <point x="876" y="865" type="qcurve" smooth="yes"/>
      <point x="876" y="412" type="line" smooth="yes"/>
      <point x="876" y="210"/>
      <point x="648" y="-21"/>
      <point x="461" y="-21" type="qcurve" smooth="yes"/>
      <point x="391" y="-21"/>
      <point x="250" y="8"/>
      <point x="179" y="36" type="qcurve"/>
      <point x="194" y="87" type="line"/>
      <point x="261" y="56"/>
      <point x="383" y="28"/>
    </contour>
    <contour>
      <point x="471" y="503" type="qcurve" smooth="yes"/>
      <point x="604" y="503"/>
      <point x="784" y="657"/>
      <point x="820" y="764" type="qcurve"/>
      <point x="820" y="864" type="line" smooth="yes"/>
      <point x="820" y="1064"/>
      <point x="632" y="1279"/>
      <point x="482" y="1279" type="qcurve" smooth="yes"/>
      <point x="330" y="1279"/>
      <point x="141" y="1037"/>
      <point x="141" y="878" type="qcurve" smooth="yes"/>
      <point x="141" y="725"/>
      <point x="321" y="503"/>
    </contour>
  </outline>
</glyph>
<glyph name="less" format="1">
  <advance width="948"/>
  <unicode hex="003C"/>
  <outline>
    <contour>
      <point x="232" y="533" type="line"/>
      <point x="125" y="500" type="line"/>
      <point x="125" y="494" type="line"/>
      <point x="232" y="462" type="line"/>
      <point x="827" y="189" type="line"/>
      <point x="827" y="136" type="line"/>
      <point x="74" y="477" type="line"/>
      <point x="74" y="522" type="line"/>
      <point x="827" y="862" type="line"/>
      <point x="827" y="810" type="line"/>
    </contour>
  </outline>
</glyph>
<glyph name="equal" format="1">
  <advance width="1028"/>
  <unicode hex="003D"/>
  <outline>
    <contour>
      <point x="883" y="802" type="line"/>
      <point x="132" y="802" type="line"/>
      <point x="132" y="851" type="line"/>
      <point x="883" y="851" type="line"/>
    </contour>
    <contour>
      <point x="883" y="436" type="line"/>
      <point x="132" y="436" type="line"/>
      <point x="132" y="485" type="line"/>
      <point x="883" y="485" type="line"/>
    </contour>
  </outline>
</glyph>
<glyph name="greater" format="1">
  <advance width="948"/>
  <unicode hex="003E"/>
  <outline>
    <contour>
      <point x="103" y="811" type="line"/>
      <point x="103" y="863" type="line"/>
      <point x="855" y="523" type="line"/>
      <point x="855" y="478" type="line"/>
      <point x="103" y="137" type="line"/>
      <point x="103" y="190" type="line"/>
      <point x="697" y="466" type="line"/>
      <point x="803" y="499" type="line"/>
      <point x="803" y="504" type="line"/>
      <point x="697" y="538" type="line"/>
    </contour>
  </outline>
</glyph>
<glyph name="at" format="1">
  <advance width="1712"/>
  <unicode hex="0040"/>
  <outline>
    <contour>
      <point x="1590" y="425" type="qcurve" smooth="yes"/>
      <point x="1581" y="228"/>
      <point x="1394" y="-64"/>
      <point x="1221" y="-64" type="qcurve" smooth="yes"/>
      <point x="1147" y="-64"/>
      <point x="1053" y="46"/>
      <point x="1045" y="143" type="qcurve"/>
      <point x="995" y="40"/>
      <point x="844" y="-64"/>
      <point x="746" y="-64" type="qcurve" smooth="yes"/>
      <point x="624" y="-64"/>
      <point x="503" y="150"/>
      <point x="520" y="329" type="qcurve" smooth="yes"/>
      <point x="541" y="554"/>
      <point x="759" y="826"/>
      <point x="914" y="826" type="qcurve" smooth="yes"/>
      <point x="988" y="826"/>
      <point x="1082" y="776"/>
      <point x="1139" y="727" type="qcurve"/>
      <point x="1094" y="218" type="line" smooth="yes"/>
      <point x="1085" y="82"/>
      <point x="1170" y="-15"/>
      <point x="1224" y="-15" type="qcurve" smooth="yes"/>
      <point x="1366" y="-15"/>
      <point x="1529" y="227"/>
      <point x="1539" y="425" type="qcurve" smooth="yes"/>
      <point x="1557" y="782"/>
      <point x="1244" y="1173"/>
      <point x="897" y="1173" type="qcurve" smooth="yes"/>
      <point x="595" y="1173"/>
      <point x="184" y="742"/>
      <point x="166" y="385" type="qcurve" smooth="yes"/>
      <point x="148" y="40"/>
      <point x="498" y="-404"/>
      <point x="819" y="-404" type="qcurve" smooth="yes"/>
      <point x="897" y="-404"/>
      <point x="1060" y="-364"/>
      <point x="1116" y="-332" type="qcurve"/>
      <point x="1138" y="-373" type="line"/>
      <point x="1082" y="-409"/>
      <point x="898" y="-453"/>
      <point x="815" y="-453" type="qcurve" smooth="yes"/>
      <point x="473" y="-453"/>
      <point x="99" y="-4"/>
      <point x="116" y="385" type="qcurve" smooth="yes"/>
      <point x="132" y="769"/>
      <point x="560" y="1225"/>
      <point x="901" y="1225" type="qcurve" smooth="yes"/>
      <point x="1263" y="1225"/>
      <point x="1606" y="803"/>
    </contour>
    <contour>
      <point x="569" y="329" type="qcurve" smooth="yes"/>
      <point x="552" y="179"/>
      <point x="643" y="-16"/>
      <point x="744" y="-16" type="qcurve" smooth="yes"/>
      <point x="842" y="-16"/>
      <point x="996" y="104"/>
      <point x="1049" y="265" type="qcurve"/>
      <point x="1086" y="703" type="line"/>
      <point x="1056" y="738"/>
      <point x="968" y="776"/>
      <point x="911" y="776" type="qcurve" smooth="yes"/>
      <point x="783" y="776"/>
      <point x="592" y="549"/>
    </contour>
  </outline>
</glyph>
<glyph name="A" format="1">
  <advance width="1101"/>
  <unicode hex="0041"/>
  <outline>
    <contour>
      <point x="870" y="392" type="line"/>
      <point x="230" y="392" type="line"/>
      <point x="84" y="0" type="line"/>
      <point x="31" y="0" type="line"/>
      <point x="520" y="1310" type="line"/>
      <point x="580" y="1310" type="line"/>
      <point x="1070" y="0" type="line"/>
      <point x="1017" y="0" type="line"/>
    </contour>
    <contour>
      <point x="248" y="440" type="line"/>
      <point x="852" y="440" type="line"/>
      <point x="578" y="1178" type="line"/>
      <point x="553" y="1252" type="line"/>
      <point x="547" y="1252" type="line"/>
      <point x="523" y="1178" type="line"/>
    </contour>
  </outline>
</glyph>
<glyph name="B" format="1">
  <advance width="1112"/>
  <unicode hex="0042"/>
  <outline>
    <contour>
      <point x="180" y="0" type="line"/>
      <point x="180" y="1310" type="line"/>
      <point x="525" y="1310" type="line" smooth="yes"/>
      <point x="728" y="1310"/>
      <point x="953" y="1143"/>
      <point x="953" y="975" type="qcurve" smooth="yes"/>
      <point x="953" y="858"/>
      <point x="833" y="698"/>
      <point x="723" y="678" type="qcurve"/>
      <point x="845" y="662"/>
      <point x="1013" y="480"/>
      <point x="1013" y="361" type="qcurve" smooth="yes"/>
      <point x="1013" y="189"/>
      <point x="790" y="0"/>
      <point x="608" y="0" type="qcurve" smooth="yes"/>
    </contour>
    <contour>
      <point x="229" y="647" type="line"/>
      <point x="229" y="49" type="line"/>
      <point x="608" y="49" type="line" smooth="yes"/>
      <point x="773" y="49"/>
      <point x="964" y="212"/>
      <point x="964" y="359" type="qcurve" smooth="yes"/>
      <point x="964" y="480"/>
      <point x="781" y="647"/>
      <point x="617" y="647" type="qcurve" smooth="yes"/>
    </contour>
    <contour>
      <point x="229" y="696" type="line"/>
      <point x="543" y="696" type="line" smooth="yes"/>
      <point x="722" y="696"/>
      <point x="904" y="835"/>
      <point x="904" y="978" type="qcurve" smooth="yes"/>
      <point x="904" y="1119"/>
      <point x="712" y="1262"/>
      <point x="525" y="1262" type="qcurve" smooth="yes"/>
      <point x="229" y="1262" type="line"/>
    </contour>
  </outline>
</glyph>
<glyph name="C" format="1">
  <advance width="1194"/>
  <unicode hex="0043"/>
  <outline>
    <contour>
      <point x="1055" y="399" type="line"/>
      <point x="1057" y="394" type="line"/>
      <point x="1060" y="192"/>
      <point x="809" y="-21"/>
      <point x="604" y="-21" type="qcurve" smooth="yes"/>
      <point x="389" y="-21"/>
      <point x="130" y="297"/>
      <point x="130" y="555" type="qcurve" smooth="yes"/>
      <point x="130" y="751" type="line" smooth="yes"/>
      <point x="130" y="1009"/>
      <point x="389" y="1327"/>
      <point x="604" y="1327" type="qcurve" smooth="yes"/>
      <point x="809" y="1327"/>
      <point x="1060" y="1113"/>
      <point x="1057" y="914" type="qcurve"/>
      <point x="1055" y="909" type="line"/>
      <point x="1013" y="909" type="line"/>
      <point x="1013" y="1086"/>
      <point x="793" y="1279"/>
      <point x="604" y="1279" type="qcurve" smooth="yes"/>
      <point x="412" y="1279"/>
      <point x="178" y="989"/>
      <point x="178" y="753" type="qcurve" smooth="yes"/>
      <point x="178" y="555" type="line" smooth="yes"/>
      <point x="178" y="317"/>
      <point x="412" y="28"/>
      <point x="604" y="28" type="qcurve" smooth="yes"/>
      <point x="793" y="28"/>
      <point x="1013" y="213"/>
      <point x="1013" y="399" type="qcurve"/>
    </contour>
  </outline>
</glyph>
<glyph name="D" format="1">
  <advance width="1206"/>
  <unicode hex="0044"/>
  <outline>
    <contour>
      <point x="180" y="0" type="line"/>
      <point x="180" y="1310" type="line"/>
      <point x="543" y="1310" type="line" smooth="yes"/>
      <point x="769" y="1310"/>
      <point x="1084" y="986"/>
      <point x="1084" y="735" type="qcurve" smooth="yes"/>
      <point x="1084" y="575" type="line" smooth="yes"/>
      <point x="1084" y="323"/>
      <point x="769" y="0"/>
      <point x="543" y="0" type="qcurve" smooth="yes"/>
    </contour>
    <contour>
      <point x="229" y="1262" type="line"/>
      <point x="229" y="49" type="line"/>
      <point x="543" y="49" type="line" smooth="yes"/>
      <point x="747" y="49"/>
      <point x="1035" y="347"/>
      <point x="1035" y="575" type="qcurve" smooth="yes"/>
      <point x="1035" y="738" type="line" smooth="yes"/>
      <point x="1035" y="963"/>
      <point x="747" y="1262"/>
      <point x="543" y="1262" type="qcurve" smooth="yes"/>
    </contour>
  </outline>
</glyph>
<glyph name="E" format="1">
  <advance width="1049"/>
  <unicode hex="0045"/>
  <outline>
    <contour>
      <point x="886" y="659" type="line"/>
      <point x="229" y="659" type="line"/>
      <point x="229" y="49" type="line"/>
      <point x="977" y="49" type="line"/>
      <point x="977" y="0" type="line"/>
      <point x="180" y="0" type="line"/>
      <point x="180" y="1310" type="line"/>
      <point x="977" y="1310" type="line"/>
      <point x="977" y="1262" type="line"/>
      <point x="229" y="1262" type="line"/>
      <point x="229" y="707" type="line"/>
      <point x="886" y="707" type="line"/>
    </contour>
  </outline>
</glyph>
<glyph name="F" format="1">
  <advance width="1055"/>
  <unicode hex="0046"/>
  <outline>
    <contour>
      <point x="900" y="644" type="line"/>
      <point x="229" y="644" type="line"/>
      <point x="229" y="0" type="line"/>
      <point x="180" y="0" type="line"/>
      <point x="180" y="1310" type="line"/>
      <point x="992" y="1310" type="line"/>
      <point x="992" y="1262" type="line"/>
      <point x="229" y="1262" type="line"/>
      <point x="229" y="695" type="line"/>
      <point x="900" y="695" type="line"/>
    </contour>
  </outline>
</glyph>
<glyph name="G" format="1">
  <advance width="1265"/>
  <unicode hex="0047"/>
  <outline>
    <contour>
      <point x="1103" y="138" type="line"/>
      <point x="1062" y="81"/>
      <point x="827" y="-21"/>
      <point x="656" y="-21" type="qcurve" smooth="yes"/>
      <point x="431" y="-21"/>
      <point x="151" y="299"/>
      <point x="151" y="556" type="qcurve" smooth="yes"/>
      <point x="151" y="770" type="line" smooth="yes"/>
      <point x="151" y="1017"/>
      <point x="423" y="1327"/>
      <point x="641" y="1327" type="qcurve" smooth="yes"/>
      <point x="849" y="1327"/>
      <point x="1093" y="1112"/>
      <point x="1095" y="942" type="qcurve"/>
      <point x="1094" y="937" type="line"/>
      <point x="1053" y="937" type="line"/>
      <point x="1046" y="1089"/>
      <point x="836" y="1279"/>
      <point x="641" y="1279" type="qcurve" smooth="yes"/>
      <point x="442" y="1279"/>
      <point x="200" y="995"/>
      <point x="200" y="772" type="qcurve" smooth="yes"/>
      <point x="200" y="556" type="line" smooth="yes"/>
      <point x="200" y="322"/>
      <point x="450" y="28"/>
      <point x="656" y="28" type="qcurve" smooth="yes"/>
      <point x="801" y="28"/>
      <point x="1018" y="112"/>
      <point x="1055" y="161" type="qcurve"/>
      <point x="1055" y="542" type="line"/>
      <point x="654" y="542" type="line"/>
      <point x="654" y="592" type="line"/>
      <point x="1103" y="592" type="line"/>
    </contour>
  </outline>
</glyph>
<glyph name="H" format="1">
  <advance width="1294"/>
  <unicode hex="0048"/>
  <outline>
    <contour>
      <point x="1114" y="0" type="line"/>
      <point x="1066" y="0" type="line"/>
      <point x="1066" y="626" type="line"/>
      <point x="229" y="626" type="line"/>
      <point x="229" y="0" type="line"/>
      <point x="180" y="0" type="line"/>
      <point x="180" y="1310" type="line"/>
      <point x="229" y="1310" type="line"/>
      <point x="229" y="674" type="line"/>
      <point x="1066" y="674" type="line"/>
      <point x="1066" y="1310" type="line"/>
      <point x="1114" y="1310" type="line"/>
    </contour>
  </outline>
</glyph>
<glyph name="J" format="1">
  <advance width="1013"/>
  <unicode hex="004A"/>
  <outline>
    <contour>
      <point x="788" y="1308" type="line"/>
      <point x="837" y="1308" type="line"/>
      <point x="837" y="378" type="line" smooth="yes"/>
      <point x="837" y="195"/>
      <point x="631" y="-21"/>
      <point x="469" y="-21" type="qcurve" smooth="yes"/>
      <point x="289" y="-21"/>
      <point x="82" y="170"/>
      <point x="86" y="353" type="qcurve"/>
      <point x="88" y="359" type="line"/>
      <point x="130" y="359" type="line"/>
      <point x="130" y="199"/>
      <point x="304" y="28"/>
      <point x="469" y="28" type="qcurve" smooth="yes"/>
      <point x="607" y="28"/>
      <point x="788" y="217"/>
      <point x="788" y="378" type="qcurve" smooth="yes"/>
    </contour>
  </outline>
</glyph>
<glyph name="K" format="1">
  <advance width="1170"/>
  <unicode hex="004B"/>
  <outline>
    <contour>
      <point x="429" y="640" type="line"/>
      <point x="229" y="640" type="line"/>
      <point x="229" y="0" type="line"/>
      <point x="180" y="0" type="line"/>
      <point x="180" y="1310" type="line"/>
      <point x="229" y="1310" type="line"/>
      <point x="229" y="688" type="line"/>
      <point x="443" y="688" type="line"/>
      <point x="999" y="1310" type="line"/>
      <point x="1057" y="1310" type="line"/>
      <point x="1058" y="1306" type="line"/>
      <point x="483" y="657" type="line"/>
      <point x="1100" y="5" type="line"/>
      <point x="1097" y="0" type="line"/>
      <point x="1040" y="0" type="line"/>
    </contour>
  </outline>
</glyph>
<glyph name="L" format="1">
  <advance width="951"/>
  <unicode hex="004C"/>
  <outline>
    <contour>
      <point x="230" y="49" type="line"/>
      <point x="902" y="49" type="line"/>
      <point x="902" y="0" type="line"/>
      <point x="180" y="0" type="line"/>
      <point x="180" y="1310" type="line"/>
      <point x="230" y="1310" type="line"/>
    </contour>
  </outline>
</glyph>
<glyph name="M" format="1">
  <advance width="1580"/>
  <unicode hex="004D"/>
  <outline>
    <contour>
      <point x="249" y="1310" type="line"/>
      <point x="786" y="77" type="line"/>
      <point x="791" y="77" type="line"/>
      <point x="1329" y="1310" type="line"/>
      <point x="1400" y="1310" type="line"/>
      <point x="1400" y="0" type="line"/>
      <point x="1352" y="0" type="line"/>
      <point x="1352" y="1225" type="line"/>
      <point x="1346" y="1227" type="line"/>
      <point x="808" y="0" type="line"/>
      <point x="770" y="0" type="line"/>
      <point x="234" y="1220" type="line"/>
      <point x="229" y="1219" type="line"/>
      <point x="229" y="0" type="line"/>
      <point x="180" y="0" type="line"/>
      <point x="180" y="1310" type="line"/>
    </contour>
  </outline>
</glyph>
<glyph name="N" format="1">
  <advance width="1304"/>
  <unicode hex="004E"/>
  <outline>
    <contour>
      <point x="1124" y="0" type="line"/>
      <point x="1076" y="0" type="line"/>
      <point x="235" y="1220" type="line"/>
      <point x="230" y="1219" type="line"/>
      <point x="230" y="0" type="line"/>
      <point x="180" y="0" type="line"/>
      <point x="180" y="1310" type="line"/>
      <point x="230" y="1310" type="line"/>
      <point x="1070" y="93" type="line"/>
      <point x="1076" y="95" type="line"/>
      <point x="1076" y="1310" type="line"/>
      <point x="1124" y="1310" type="line"/>
    </contour>
  </outline>
</glyph>
<glyph name="O" format="1">
  <advance width="1228"/>
  <unicode hex="004F"/>
  <outline>
    <contour>
      <point x="1108" y="555" type="line" smooth="yes"/>
      <point x="1108" y="290"/>
      <point x="845" y="-21"/>
      <point x="615" y="-21" type="qcurve" smooth="yes"/>
      <point x="383" y="-21"/>
      <point x="120" y="290"/>
      <point x="120" y="555" type="qcurve" smooth="yes"/>
      <point x="120" y="751" type="line" smooth="yes"/>
      <point x="120" y="1016"/>
      <point x="382" y="1327"/>
      <point x="613" y="1327" type="qcurve" smooth="yes"/>
      <point x="843" y="1327"/>
      <point x="1108" y="1016"/>
      <point x="1108" y="751" type="qcurve" smooth="yes"/>
    </contour>
    <contour>
      <point x="1059" y="753" type="line" smooth="yes"/>
      <point x="1059" y="994"/>
      <point x="827" y="1279"/>
      <point x="613" y="1279" type="qcurve" smooth="yes"/>
      <point x="400" y="1279"/>
      <point x="169" y="994"/>
      <point x="169" y="753" type="qcurve" smooth="yes"/>
      <point x="169" y="555" type="line" smooth="yes"/>
      <point x="169" y="312"/>
      <point x="401" y="28"/>
      <point x="615" y="28" type="qcurve" smooth="yes"/>
      <point x="829" y="28"/>
      <point x="1059" y="311"/>
      <point x="1059" y="555" type="qcurve" smooth="yes"/>
    </contour>
  </outline>
</glyph>
<glyph name="P" format="1">
  <advance width="1107"/>
  <unicode hex="0050"/>
  <outline>
    <contour>
      <point x="229" y="563" type="line"/>
      <point x="229" y="0" type="line"/>
      <point x="180" y="0" type="line"/>
      <point x="180" y="1310" type="line"/>
      <point x="590" y="1310" type="line" smooth="yes"/>
      <point x="793" y="1310"/>
      <point x="1013" y="1106"/>
      <point x="1013" y="937" type="qcurve" smooth="yes"/>
      <point x="1013" y="766"/>
      <point x="794" y="563"/>
      <point x="590" y="563" type="qcurve" smooth="yes"/>
    </contour>
    <contour>
      <point x="229" y="611" type="line"/>
      <point x="590" y="611" type="line" smooth="yes"/>
      <point x="776" y="611"/>
      <point x="964" y="797"/>
      <point x="964" y="935" type="qcurve" smooth="yes"/>
      <point x="964" y="1077"/>
      <point x="777" y="1262"/>
      <point x="590" y="1262" type="qcurve" smooth="yes"/>
      <point x="229" y="1262" type="line"/>
    </contour>
  </outline>
</glyph>
<glyph name="Q" format="1">
  <advance width="1228"/>
  <unicode hex="0051"/>
  <outline>
    <contour>
      <point x="1108" y="537" type="line" smooth="yes"/>
      <point x="1108" y="373"/>
      <point x="1004" y="124"/>
      <point x="908" y="52" type="qcurve"/>
      <point x="1137" y="-172" type="line"/>
      <point x="1102" y="-203" type="line"/>
      <point x="866" y="23" type="line"/>
      <point x="813" y="-8"/>
      <point x="686" y="-39"/>
      <point x="615" y="-39" type="qcurve" smooth="yes"/>
      <point x="383" y="-39"/>
      <point x="120" y="271"/>
      <point x="120" y="537" type="qcurve" smooth="yes"/>
      <point x="120" y="733" type="line" smooth="yes"/>
      <point x="120" y="998"/>
      <point x="382" y="1309"/>
      <point x="613" y="1309" type="qcurve" smooth="yes"/>
      <point x="843" y="1309"/>
      <point x="1108" y="998"/>
      <point x="1108" y="733" type="qcurve" smooth="yes"/>
    </contour>
    <contour>
      <point x="1059" y="735" type="line" smooth="yes"/>
      <point x="1059" y="976"/>
      <point x="827" y="1260"/>
      <point x="613" y="1260" type="qcurve" smooth="yes"/>
      <point x="400" y="1260"/>
      <point x="169" y="976"/>
      <point x="169" y="735" type="qcurve" smooth="yes"/>
      <point x="169" y="537" type="line" smooth="yes"/>
      <point x="169" y="294"/>
      <point x="401" y="9"/>
      <point x="615" y="9" type="qcurve" smooth="yes"/>
      <point x="829" y="9"/>
      <point x="1059" y="293"/>
      <point x="1059" y="537" type="qcurve" smooth="yes"/>
    </contour>
  </outline>
</glyph>
<glyph name="R" format="1">
  <advance width="1206"/>
  <unicode hex="0052"/>
  <outline>
    <contour>
      <point x="224" y="615" type="line"/>
      <point x="224" y="-1" type="line"/>
      <point x="176" y="-1" type="line"/>
      <point x="176" y="1309" type="line"/>
      <point x="593" y="1309" type="line" smooth="yes"/>
      <point x="800" y="1309"/>
      <point x="1023" y="1130"/>
      <point x="1023" y="958" type="qcurve" smooth="yes"/>
      <point x="1023" y="848"/>
      <point x="882" y="667"/>
      <point x="760" y="640" type="qcurve"/>
      <point x="901" y="616"/>
      <point x="1023" y="457"/>
      <point x="1023" y="334" type="qcurve" smooth="yes"/>
      <point x="1023" y="211" type="line" smooth="yes"/>
      <point x="1023" y="149"/>
      <point x="1053" y="52"/>
      <point x="1087" y="22" type="qcurve"/>
      <point x="1087" y="-1" type="line"/>
      <point x="1040" y="-1" type="line"/>
      <point x="1007" y="36"/>
      <point x="975" y="145"/>
      <point x="975" y="212" type="qcurve" smooth="yes"/>
      <point x="975" y="332" type="line" smooth="yes"/>
      <point x="975" y="465"/>
      <point x="792" y="615"/>
      <point x="623" y="615" type="qcurve" smooth="yes"/>
    </contour>
    <contour>
      <point x="224" y="663" type="line"/>
      <point x="584" y="663" type="line" smooth="yes"/>
      <point x="785" y="663"/>
      <point x="975" y="832"/>
      <point x="975" y="958" type="qcurve" smooth="yes"/>
      <point x="975" y="1105"/>
      <point x="783" y="1261"/>
      <point x="593" y="1261" type="qcurve" smooth="yes"/>
      <point x="224" y="1261" type="line"/>
    </contour>
  </outline>
</glyph>
<glyph name="S" format="1">
  <advance width="1101"/>
  <unicode hex="0053"/>
  <outline>
    <contour>
      <point x="967" y="312" type="qcurve" smooth="yes"/>
      <point x="967" y="435"/>
      <point x="786" y="583"/>
      <point x="563" y="644" type="qcurve" smooth="yes"/>
      <point x="338" y="704"/>
      <point x="131" y="858"/>
      <point x="131" y="1006" type="qcurve" smooth="yes"/>
      <point x="131" y="1153"/>
      <point x="375" y="1327"/>
      <point x="565" y="1327" type="qcurve" smooth="yes"/>
      <point x="757" y="1327"/>
      <point x="1000" y="1113"/>
      <point x="996" y="945" type="qcurve"/>
      <point x="995" y="939" type="line"/>
      <point x="953" y="939" type="line"/>
      <point x="953" y="1086"/>
      <point x="737" y="1279"/>
      <point x="565" y="1279" type="qcurve" smooth="yes"/>
      <point x="387" y="1279"/>
      <point x="179" y="1119"/>
      <point x="179" y="1008" type="qcurve" smooth="yes"/>
      <point x="179" y="896"/>
      <point x="351" y="749"/>
      <point x="576" y="691" type="qcurve" smooth="yes"/>
      <point x="794" y="633"/>
      <point x="1016" y="467"/>
      <point x="1016" y="314" type="qcurve" smooth="yes"/>
      <point x="1016" y="158"/>
      <point x="762" y="-21"/>
      <point x="572" y="-21" type="qcurve" smooth="yes"/>
      <point x="374" y="-21"/>
      <point x="90" y="164"/>
      <point x="95" y="362" type="qcurve"/>
      <point x="96" y="367" type="line"/>
      <point x="137" y="367" type="line"/>
      <point x="137" y="189"/>
      <point x="400" y="28"/>
      <point x="572" y="28" type="qcurve" smooth="yes"/>
      <point x="744" y="28"/>
      <point x="967" y="186"/>
    </contour>
  </outline>
</glyph>
<glyph name="T" format="1">
  <advance width="1102"/>
  <unicode hex="0054"/>
  <outline>
    <contour>
      <point x="1052" y="1262" type="line"/>
      <point x="575" y="1262" type="line"/>
      <point x="575" y="0" type="line"/>
      <point x="527" y="0" type="line"/>
      <point x="527" y="1262" type="line"/>
      <point x="50" y="1262" type="line"/>
      <point x="50" y="1310" type="line"/>
      <point x="1052" y="1310" type="line"/>
    </contour>
  </outline>
</glyph>
<glyph name="U" format="1">
  <advance width="1229"/>
  <unicode hex="0055"/>
  <outline>
    <contour>
      <point x="1062" y="1308" type="line"/>
      <point x="1062" y="420" type="line" smooth="yes"/>
      <point x="1062" y="206"/>
      <point x="814" y="-21"/>
      <point x="615" y="-21" type="qcurve" smooth="yes"/>
      <point x="414" y="-21"/>
      <point x="167" y="207"/>
      <point x="167" y="420" type="qcurve" smooth="yes"/>
      <point x="167" y="1308" type="line"/>
      <point x="215" y="1308" type="line"/>
      <point x="215" y="420" type="line" smooth="yes"/>
      <point x="215" y="236"/>
      <point x="438" y="28"/>
      <point x="615" y="28" type="qcurve" smooth="yes"/>
      <point x="790" y="28"/>
      <point x="1013" y="236"/>
      <point x="1013" y="420" type="qcurve" smooth="yes"/>
      <point x="1013" y="1308" type="line"/>
    </contour>
  </outline>
</glyph>
<glyph name="V" format="1">
  <advance width="1101"/>
  <unicode hex="0056"/>
  <outline>
    <contour>
      <point x="525" y="128" type="line"/>
      <point x="548" y="57" type="line"/>
      <point x="554" y="57" type="line"/>
      <point x="577" y="128" type="line"/>
      <point x="1017" y="1310" type="line"/>
      <point x="1070" y="1310" type="line"/>
      <point x="581" y="0" type="line"/>
      <point x="521" y="0" type="line"/>
      <point x="32" y="1310" type="line"/>
      <point x="85" y="1310" type="line"/>
    </contour>
  </outline>
</glyph>
<glyph name="W" format="1">
  <advance width="1670"/>
  <unicode hex="0057"/>
  <outline>
    <contour>
      <point x="381" y="297" type="line"/>
      <point x="437" y="91" type="line"/>
      <point x="443" y="91" type="line"/>
      <point x="500" y="297" type="line"/>
      <point x="809" y="1310" type="line"/>
      <point x="863" y="1310" type="line"/>
      <point x="1171" y="297" type="line"/>
      <point x="1227" y="91" type="line"/>
      <point x="1232" y="91" type="line"/>
      <point x="1291" y="297" type="line"/>
      <point x="1561" y="1310" type="line"/>
      <point x="1614" y="1310" type="line"/>
      <point x="1261" y="0" type="line"/>
      <point x="1206" y="0" type="line"/>
      <point x="881" y="1093" type="line"/>
      <point x="838" y="1223" type="line"/>
      <point x="833" y="1223" type="line"/>
      <point x="791" y="1093" type="line"/>
      <point x="464" y="0" type="line"/>
      <point x="409" y="0" type="line"/>
      <point x="55" y="1310" type="line"/>
      <point x="109" y="1310" type="line"/>
    </contour>
  </outline>
</glyph>
<glyph name="X" format="1">
  <advance width="1101"/>
  <unicode hex="0058"/>
  <outline>
    <contour>
      <point x="549" y="707" type="line"/>
      <point x="973" y="1310" type="line"/>
      <point x="1033" y="1310" type="line"/>
      <point x="581" y="669" type="line"/>
      <point x="1052" y="0" type="line"/>
      <point x="992" y="0" type="line"/>
      <point x="549" y="631" type="line"/>
      <point x="107" y="0" type="line"/>
      <point x="48" y="0" type="line"/>
      <point x="519" y="669" type="line"/>
      <point x="66" y="1310" type="line"/>
      <point x="127" y="1310" type="line"/>
    </contour>
  </outline>
</glyph>
<glyph name="Y" format="1">
  <advance width="1101"/>
  <unicode hex="0059"/>
  <outline>
    <contour>
      <point x="525" y="582" type="line"/>
      <point x="548" y="537" type="line"/>
      <point x="572" y="582" type="line"/>
      <point x="1007" y="1310" type="line"/>
      <point x="1067" y="1310" type="line"/>
      <point x="574" y="498" type="line"/>
      <point x="574" y="0" type="line"/>
      <point x="525" y="0" type="line"/>
      <point x="525" y="498" type="line"/>
      <point x="32" y="1310" type="line"/>
      <point x="92" y="1310" type="line"/>
    </contour>
  </outline>
</glyph>
<glyph name="Z" format="1">
  <advance width="1102"/>
  <unicode hex="005A"/>
  <outline>
    <contour>
      <point x="151" y="49" type="line"/>
      <point x="1017" y="49" type="line"/>
      <point x="1017" y="0" type="line"/>
      <point x="85" y="0" type="line"/>
      <point x="85" y="40" type="line"/>
      <point x="921" y="1263" type="line"/>
      <point x="121" y="1263" type="line"/>
      <point x="121" y="1310" type="line"/>
      <point x="988" y="1310" type="line"/>
      <point x="988" y="1276" type="line"/>
    </contour>
  </outline>
</glyph>
<glyph name="bracketleft" format="1">
  <advance width="565"/>
  <unicode hex="005B"/>
  <outline>
    <contour>
      <point x="503" y="1449" type="line"/>
      <point x="296" y="1449" type="line"/>
      <point x="296" y="-232" type="line"/>
      <point x="503" y="-232" type="line"/>
      <point x="503" y="-281" type="line"/>
      <point x="248" y="-281" type="line"/>
      <point x="248" y="1498" type="line"/>
      <point x="503" y="1498" type="line"/>
    </contour>
  </outline>
</glyph>
<glyph name="backslash" format="1">
  <advance width="697"/>
  <unicode hex="005C"/>
  <outline>
    <contour>
      <point x="51" y="1298" type="line"/>
      <point x="104" y="1298" type="line"/>
      <point x="651" y="-125" type="line"/>
      <point x="599" y="-125" type="line"/>
    </contour>
  </outline>
</glyph>
<glyph name="bracketright" format="1">
  <advance width="565"/>
  <unicode hex="005D"/>
  <outline>
    <contour>
      <point x="78" y="1498" type="line"/>
      <point x="332" y="1498" type="line"/>
      <point x="332" y="-281" type="line"/>
      <point x="78" y="-281" type="line"/>
      <point x="78" y="-232" type="line"/>
      <point x="283" y="-232" type="line"/>
      <point x="283" y="1449" type="line"/>
      <point x="78" y="1449" type="line"/>
    </contour>
  </outline>
</glyph>
<glyph name="asciicircum" format="1">
  <advance width="764"/>
  <unicode hex="005E"/>
  <outline>
    <contour>
      <point x="135" y="729" type="line"/>
      <point x="82" y="729" type="line"/>
      <point x="351" y="1383" type="line"/>
      <point x="398" y="1383" type="line"/>
      <point x="667" y="729" type="line"/>
      <point x="612" y="729" type="line"/>
      <point x="412" y="1218" type="line"/>
      <point x="376" y="1320" type="line"/>
      <point x="371" y="1320" type="line"/>
      <point x="332" y="1218" type="line"/>
    </contour>
  </outline>
</glyph>
<glyph name="grave" format="1">
  <advance width="483"/>
  <unicode hex="0060"/>
  <outline>
    <contour>
      <point x="373" y="1215" type="line"/>
      <point x="371" y="1210" type="line"/>
      <point x="303" y="1210" type="line"/>
      <point x="93" y="1445" type="line"/>
      <point x="95" y="1449" type="line"/>
      <point x="175" y="1449" type="line"/>
    </contour>
  </outline>
</glyph>
<glyph name="a" format="1">
  <advance width="973"/>
  <unicode hex="0061"/>
  <outline>
    <contour>
      <point x="766" y="178" type="line"/>
      <point x="716" y="90"/>
      <point x="516" y="-21"/>
      <point x="374" y="-21" type="qcurve" smooth="yes"/>
      <point x="238" y="-21"/>
      <point x="83" y="128"/>
      <point x="83" y="254" type="qcurve" smooth="yes"/>
      <point x="83" y="376"/>
      <point x="314" y="542"/>
      <point x="488" y="542" type="qcurve" smooth="yes"/>
      <point x="766" y="542" type="line"/>
      <point x="766" y="684" type="line" smooth="yes"/>
      <point x="766" y="805"/>
      <point x="610" y="941"/>
      <point x="469" y="941" type="qcurve" smooth="yes"/>
      <point x="337" y="941"/>
      <point x="176" y="813"/>
      <point x="176" y="713" type="qcurve"/>
      <point x="135" y="714" type="line"/>
      <point x="133" y="719" type="line"/>
      <point x="128" y="832"/>
      <point x="315" y="990"/>
      <point x="469" y="990" type="qcurve" smooth="yes"/>
      <point x="626" y="990"/>
      <point x="815" y="831"/>
      <point x="815" y="682" type="qcurve" smooth="yes"/>
      <point x="815" y="194" type="line" smooth="yes"/>
      <point x="815" y="143"/>
      <point x="826" y="46"/>
      <point x="840" y="-2" type="qcurve"/>
      <point x="786" y="-2" type="line"/>
      <point x="774" y="62"/>
      <point x="766" y="126"/>
      <point x="766" y="163" type="qcurve" smooth="yes"/>
    </contour>
    <contour>
      <point x="374" y="27" type="qcurve" smooth="yes"/>
      <point x="518" y="27"/>
      <point x="719" y="155"/>
      <point x="766" y="273" type="qcurve"/>
      <point x="766" y="492" type="line"/>
      <point x="491" y="492" type="line" smooth="yes"/>
      <point x="339" y="492"/>
      <point x="131" y="353"/>
      <point x="131" y="250" type="qcurve" smooth="yes"/>
      <point x="131" y="152"/>
      <point x="264" y="27"/>
    </contour>
  </outline>
</glyph>
<glyph name="b" format="1">
  <advance width="1009"/>
  <unicode hex="0062"/>
  <outline>
    <contour>
      <point x="899" y="467" type="line" smooth="yes"/>
      <point x="899" y="242"/>
      <point x="705" y="-21"/>
      <point x="534" y="-21" type="qcurve" smooth="yes"/>
      <point x="419" y="-21"/>
      <point x="248" y="72"/>
      <point x="200" y="151" type="qcurve"/>
      <point x="194" y="-2" type="line"/>
      <point x="153" y="-2" type="line"/>
      <point x="153" y="1402" type="line"/>
      <point x="202" y="1402" type="line"/>
      <point x="202" y="798" type="line"/>
      <point x="250" y="887"/>
      <point x="418" y="990"/>
      <point x="532" y="990" type="qcurve" smooth="yes"/>
      <point x="704" y="990"/>
      <point x="899" y="717"/>
      <point x="899" y="486" type="qcurve" smooth="yes"/>
    </contour>
    <contour>
      <point x="849" y="486" type="line" smooth="yes"/>
      <point x="849" y="688"/>
      <point x="687" y="941"/>
      <point x="533" y="941" type="qcurve" smooth="yes"/>
      <point x="392" y="941"/>
      <point x="235" y="799"/>
      <point x="202" y="695" type="qcurve"/>
      <point x="202" y="239" type="line"/>
      <point x="238" y="143"/>
      <point x="407" y="28"/>
      <point x="535" y="28" type="qcurve" smooth="yes"/>
      <point x="689" y="28"/>
      <point x="849" y="265"/>
      <point x="849" y="467" type="qcurve" smooth="yes"/>
    </contour>
  </outline>
</glyph>
<glyph name="c" format="1">
  <advance width="935"/>
  <unicode hex="0063"/>
  <outline>
    <contour>
      <point x="485" y="28" type="qcurve" smooth="yes"/>
      <point x="608" y="28"/>
      <point x="797" y="163"/>
      <point x="797" y="298" type="qcurve"/>
      <point x="839" y="298" type="line"/>
      <point x="841" y="292" type="line"/>
      <point x="844" y="149"/>
      <point x="627" y="-21"/>
      <point x="485" y="-21" type="qcurve" smooth="yes"/>
      <point x="299" y="-21"/>
      <point x="87" y="247"/>
      <point x="87" y="466" type="qcurve" smooth="yes"/>
      <point x="87" y="504" type="line" smooth="yes"/>
      <point x="87" y="722"/>
      <point x="298" y="990"/>
      <point x="483" y="990" type="qcurve" smooth="yes"/>
      <point x="635" y="990"/>
      <point x="844" y="812"/>
      <point x="841" y="651" type="qcurve"/>
      <point x="839" y="646" type="line"/>
      <point x="797" y="646" type="line"/>
      <point x="797" y="789"/>
      <point x="614" y="941"/>
      <point x="483" y="941" type="qcurve" smooth="yes"/>
      <point x="312" y="941"/>
      <point x="136" y="696"/>
      <point x="136" y="504" type="qcurve" smooth="yes"/>
      <point x="136" y="466" type="line" smooth="yes"/>
      <point x="136" y="272"/>
      <point x="312" y="28"/>
    </contour>
  </outline>
</glyph>
<glyph name="d" format="1">
  <advance width="1009"/>
  <unicode hex="0064"/>
  <outline>
    <contour>
      <point x="110" y="486" type="line" smooth="yes"/>
      <point x="110" y="717"/>
      <point x="304" y="990"/>
      <point x="477" y="990" type="qcurve" smooth="yes"/>
      <point x="591" y="990"/>
      <point x="758" y="887"/>
      <point x="807" y="798" type="qcurve"/>
      <point x="807" y="1402" type="line"/>
      <point x="856" y="1402" type="line"/>
      <point x="856" y="-2" type="line"/>
      <point x="809" y="-2" type="line"/>
      <point x="807" y="149" type="line"/>
      <point x="759" y="71"/>
      <point x="589" y="-21"/>
      <point x="475" y="-21" type="qcurve" smooth="yes"/>
      <point x="303" y="-21"/>
      <point x="110" y="242"/>
      <point x="110" y="467" type="qcurve" smooth="yes"/>
    </contour>
    <contour>
      <point x="160" y="467" type="line" smooth="yes"/>
      <point x="160" y="265"/>
      <point x="320" y="28"/>
      <point x="474" y="28" type="qcurve" smooth="yes"/>
      <point x="601" y="28"/>
      <point x="770" y="143"/>
      <point x="807" y="239" type="qcurve"/>
      <point x="807" y="695" type="line"/>
      <point x="772" y="800"/>
      <point x="616" y="941"/>
      <point x="476" y="941" type="qcurve" smooth="yes"/>
      <point x="321" y="941"/>
      <point x="160" y="688"/>
      <point x="160" y="486" type="qcurve" smooth="yes"/>
    </contour>
  </outline>
</glyph>
<glyph name="e" format="1">
  <advance width="929"/>
  <unicode hex="0065"/>
  <outline>
    <contour>
      <point x="487" y="-21" type="qcurve" smooth="yes"/>
      <point x="320" y="-21"/>
      <point x="78" y="248"/>
      <point x="78" y="448" type="qcurve" smooth="yes"/>
      <point x="78" y="506" type="line" smooth="yes"/>
      <point x="78" y="715"/>
      <point x="312" y="990"/>
      <point x="484" y="990" type="qcurve" smooth="yes"/>
      <point x="649" y="990"/>
      <point x="857" y="774"/>
      <point x="857" y="592" type="qcurve" smooth="yes"/>
      <point x="857" y="517" type="line"/>
      <point x="127" y="517" type="line"/>
      <point x="127" y="506" type="line"/>
      <point x="127" y="448" type="line" smooth="yes"/>
      <point x="127" y="272"/>
      <point x="334" y="28"/>
      <point x="487" y="28" type="qcurve" smooth="yes"/>
      <point x="596" y="28"/>
      <point x="743" y="87"/>
      <point x="795" y="146" type="qcurve"/>
      <point x="821" y="109" type="line"/>
      <point x="763" y="45"/>
      <point x="599" y="-21"/>
    </contour>
    <contour>
      <point x="484" y="941" type="qcurve" smooth="yes"/>
      <point x="339" y="941"/>
      <point x="147" y="730"/>
      <point x="134" y="571" type="qcurve"/>
      <point x="137" y="566" type="line"/>
      <point x="808" y="566" type="line"/>
      <point x="808" y="596" type="line" smooth="yes"/>
      <point x="808" y="744"/>
      <point x="628" y="941"/>
    </contour>
  </outline>
</glyph>
<glyph name="f" format="1">
  <advance width="581"/>
  <unicode hex="0066"/>
  <outline>
    <contour>
      <point x="229" y="0" type="line"/>
      <point x="229" y="924" type="line"/>
      <point x="59" y="924" type="line"/>
      <point x="59" y="974" type="line"/>
      <point x="229" y="974" type="line"/>
      <point x="229" y="1134" type="line" smooth="yes"/>
      <point x="229" y="1272"/>
      <point x="363" y="1423"/>
      <point x="483" y="1423" type="qcurve" smooth="yes"/>
      <point x="513" y="1423"/>
      <point x="572" y="1416"/>
      <point x="599" y="1408" type="qcurve"/>
      <point x="591" y="1361" type="line"/>
      <point x="563" y="1368"/>
      <point x="518" y="1374"/>
      <point x="484" y="1374" type="qcurve" smooth="yes"/>
      <point x="387" y="1374"/>
      <point x="277" y="1247"/>
      <point x="277" y="1134" type="qcurve" smooth="yes"/>
      <point x="277" y="974" type="line"/>
      <point x="535" y="974" type="line"/>
      <point x="535" y="924" type="line"/>
      <point x="277" y="924" type="line"/>
      <point x="277" y="0" type="line"/>
    </contour>
  </outline>
</glyph>
<glyph name="g" format="1">
  <advance width="1009"/>
  <unicode hex="0067"/>
  <outline>
    <contour>
      <point x="109" y="444" type="line" smooth="yes"/>
      <point x="109" y="675"/>
      <point x="303" y="948"/>
      <point x="476" y="948" type="qcurve" smooth="yes"/>
      <point x="590" y="948"/>
      <point x="757" y="846"/>
      <point x="806" y="756" type="qcurve"/>
      <point x="814" y="930" type="line"/>
      <point x="855" y="930" type="line"/>
      <point x="855" y="-49" type="line" smooth="yes"/>
      <point x="855" y="-235"/>
      <point x="660" y="-437"/>
      <point x="487" y="-437" type="qcurve" smooth="yes"/>
      <point x="416" y="-437"/>
      <point x="262" y="-407"/>
      <point x="204" y="-381" type="qcurve"/>
      <point x="219" y="-333" type="line"/>
      <point x="284" y="-361"/>
      <point x="407" y="-389"/>
      <point x="485" y="-389" type="qcurve" smooth="yes"/>
      <point x="643" y="-389"/>
      <point x="806" y="-214"/>
      <point x="806" y="-49" type="qcurve" smooth="yes"/>
      <point x="806" y="106" type="line"/>
      <point x="756" y="28"/>
      <point x="587" y="-63"/>
      <point x="474" y="-63" type="qcurve" smooth="yes"/>
      <point x="302" y="-63"/>
      <point x="109" y="200"/>
      <point x="109" y="425" type="qcurve" smooth="yes"/>
    </contour>
    <contour>
      <point x="158" y="425" type="line" smooth="yes"/>
      <point x="158" y="224"/>
      <point x="319" y="-14"/>
      <point x="473" y="-14" type="qcurve" smooth="yes"/>
      <point x="600" y="-14"/>
      <point x="768" y="100"/>
      <point x="806" y="196" type="qcurve"/>
      <point x="806" y="657" type="line"/>
      <point x="770" y="760"/>
      <point x="614" y="900"/>
      <point x="475" y="900" type="qcurve" smooth="yes"/>
      <point x="320" y="900"/>
      <point x="158" y="647"/>
      <point x="158" y="444" type="qcurve" smooth="yes"/>
    </contour>
  </outline>
</glyph>
<glyph name="h" format="1">
  <advance width="1009"/>
  <unicode hex="0068"/>
  <outline>
    <contour>
      <point x="203" y="769" type="line"/>
      <point x="248" y="875"/>
      <point x="423" y="992"/>
      <point x="549" y="992" type="qcurve" smooth="yes"/>
      <point x="701" y="992"/>
      <point x="859" y="799"/>
      <point x="859" y="592" type="qcurve" smooth="yes"/>
      <point x="859" y="0" type="line"/>
      <point x="809" y="0" type="line"/>
      <point x="809" y="594" type="line" smooth="yes"/>
      <point x="809" y="786"/>
      <point x="668" y="943"/>
      <point x="550" y="943" type="qcurve" smooth="yes"/>
      <point x="392" y="943"/>
      <point x="225" y="755"/>
      <point x="203" y="608" type="qcurve"/>
      <point x="203" y="0" type="line"/>
      <point x="155" y="0" type="line"/>
      <point x="155" y="1404" type="line"/>
      <point x="203" y="1404" type="line"/>
    </contour>
  </outline>
</glyph>
<glyph name="i" format="1">
  <advance width="380"/>
  <unicode hex="0069"/>
  <outline>
    <contour>
      <point x="215" y="0" type="line"/>
      <point x="167" y="0" type="line"/>
      <point x="167" y="974" type="line"/>
      <point x="215" y="974" type="line"/>
    </contour>
    <contour>
      <point x="215" y="1280" type="line"/>
      <point x="167" y="1280" type="line"/>
      <point x="167" y="1404" type="line"/>
      <point x="215" y="1404" type="line"/>
    </contour>
  </outline>
</glyph>
<glyph name="j" format="1">
  <advance width="401"/>
  <unicode hex="006A"/>
  <outline>
    <contour>
      <point x="216" y="930" type="line"/>
      <point x="216" y="-124" type="line" smooth="yes"/>
      <point x="216" y="-274"/>
      <point x="81" y="-437"/>
      <point x="-41" y="-437" type="qcurve" smooth="yes"/>
      <point x="-67" y="-437"/>
      <point x="-113" y="-428"/>
      <point x="-141" y="-419" type="qcurve"/>
      <point x="-130" y="-372" type="line"/>
      <point x="-113" y="-378"/>
      <point x="-63" y="-388"/>
      <point x="-41" y="-388" type="qcurve" smooth="yes"/>
      <point x="59" y="-388"/>
      <point x="167" y="-250"/>
      <point x="167" y="-124" type="qcurve" smooth="yes"/>
      <point x="167" y="930" type="line"/>
    </contour>
    <contour>
      <point x="211" y="1240" type="line"/>
      <point x="162" y="1240" type="line"/>
      <point x="162" y="1360" type="line"/>
      <point x="211" y="1360" type="line"/>
    </contour>
  </outline>
</glyph>
<glyph name="k" format="1">
  <advance width="872"/>
  <unicode hex="006B"/>
  <outline>
    <contour>
      <point x="337" y="498" type="line"/>
      <point x="203" y="498" type="line"/>
      <point x="203" y="0" type="line"/>
      <point x="155" y="0" type="line"/>
      <point x="155" y="1404" type="line"/>
      <point x="203" y="1404" type="line"/>
      <point x="203" y="546" type="line"/>
      <point x="318" y="546" type="line"/>
      <point x="761" y="974" type="line"/>
      <point x="817" y="974" type="line"/>
      <point x="819" y="968" type="line"/>
      <point x="373" y="530" type="line"/>
      <point x="853" y="5" type="line"/>
      <point x="851" y="0" type="line"/>
      <point x="795" y="0" type="line"/>
    </contour>
  </outline>
</glyph>
<glyph name="l" format="1">
  <advance width="380"/>
  <unicode hex="006C"/>
  <outline>
    <contour>
      <point x="215" y="0" type="line"/>
      <point x="167" y="0" type="line"/>
      <point x="167" y="1404" type="line"/>
      <point x="215" y="1404" type="line"/>
    </contour>
  </outline>
</glyph>
<glyph name="m" format="1">
  <advance width="1652"/>
  <unicode hex="006D"/>
  <outline>
    <contour>
      <point x="187" y="974" type="line"/>
      <point x="194" y="773" type="line"/>
      <point x="238" y="877"/>
      <point x="403" y="992"/>
      <point x="522" y="992" type="qcurve" smooth="yes"/>
      <point x="648" y="992"/>
      <point x="806" y="863"/>
      <point x="835" y="729" type="qcurve"/>
      <point x="874" y="853"/>
      <point x="1049" y="993"/>
      <point x="1181" y="993" type="qcurve" smooth="yes"/>
      <point x="1342" y="993"/>
      <point x="1509" y="782"/>
      <point x="1509" y="556" type="qcurve" smooth="yes"/>
      <point x="1509" y="1" type="line"/>
      <point x="1460" y="1" type="line"/>
      <point x="1460" y="558" type="line" smooth="yes"/>
      <point x="1460" y="770"/>
      <point x="1309" y="944"/>
      <point x="1183" y="944" type="qcurve" smooth="yes"/>
      <point x="1028" y="944"/>
      <point x="869" y="758"/>
      <point x="850" y="610" type="qcurve"/>
      <point x="850" y="592"/>
      <point x="851" y="566"/>
      <point x="851" y="554" type="qcurve" smooth="yes"/>
      <point x="851" y="0" type="line"/>
      <point x="802" y="0" type="line"/>
      <point x="802" y="557" type="line" smooth="yes"/>
      <point x="802" y="770"/>
      <point x="651" y="943"/>
      <point x="524" y="943" type="qcurve" smooth="yes"/>
      <point x="373" y="943"/>
      <point x="216" y="766"/>
      <point x="194" y="625" type="qcurve"/>
      <point x="194" y="0" type="line"/>
      <point x="145" y="0" type="line"/>
      <point x="145" y="974" type="line"/>
    </contour>
  </outline>
</glyph>
<glyph name="n" format="1">
  <advance width="1009"/>
  <unicode hex="006E"/>
  <outline>
    <contour>
      <point x="196" y="974" type="line"/>
      <point x="203" y="773" type="line"/>
      <point x="247" y="878"/>
      <point x="416" y="992"/>
      <point x="540" y="992" type="qcurve" smooth="yes"/>
      <point x="699" y="992"/>
      <point x="859" y="791"/>
      <point x="859" y="573" type="qcurve" smooth="yes"/>
      <point x="859" y="0" type="line"/>
      <point x="810" y="0" type="line"/>
      <point x="810" y="575" type="line" smooth="yes"/>
      <point x="810" y="778"/>
      <point x="665" y="943"/>
      <point x="541" y="943" type="qcurve" smooth="yes"/>
      <point x="383" y="943"/>
      <point x="223" y="755"/>
      <point x="203" y="608" type="qcurve"/>
      <point x="203" y="0" type="line"/>
      <point x="155" y="0" type="line"/>
      <point x="155" y="974" type="line"/>
    </contour>
  </outline>
</glyph>
<glyph name="o" format="1">
  <advance width="1009"/>
  <unicode hex="006F"/>
  <outline>
    <contour>
      <point x="78" y="504" type="line" smooth="yes"/>
      <point x="78" y="718"/>
      <point x="315" y="990"/>
      <point x="504" y="990" type="qcurve" smooth="yes"/>
      <point x="694" y="990"/>
      <point x="931" y="718"/>
      <point x="931" y="504" type="qcurve" smooth="yes"/>
      <point x="931" y="466" type="line" smooth="yes"/>
      <point x="931" y="251"/>
      <point x="694" y="-21"/>
      <point x="506" y="-21" type="qcurve" smooth="yes"/>
      <point x="316" y="-21"/>
      <point x="78" y="251"/>
      <point x="78" y="466" type="qcurve" smooth="yes"/>
    </contour>
    <contour>
      <point x="127" y="466" type="line" smooth="yes"/>
      <point x="127" y="282"/>
      <point x="332" y="28"/>
      <point x="506" y="28" type="qcurve" smooth="yes"/>
      <point x="677" y="28"/>
      <point x="882" y="283"/>
      <point x="882" y="466" type="qcurve" smooth="yes"/>
      <point x="882" y="504" type="line" smooth="yes"/>
      <point x="882" y="683"/>
      <point x="675" y="941"/>
      <point x="504" y="941" type="qcurve" smooth="yes"/>
      <point x="332" y="941"/>
      <point x="127" y="683"/>
      <point x="127" y="504" type="qcurve" smooth="yes"/>
    </contour>
  </outline>
</glyph>
<glyph name="p" format="1">
  <advance width="1009"/>
  <unicode hex="0070"/>
  <outline>
    <contour>
      <point x="899" y="427" type="line" smooth="yes"/>
      <point x="899" y="202"/>
      <point x="705" y="-60"/>
      <point x="534" y="-60" type="qcurve" smooth="yes"/>
      <point x="419" y="-60"/>
      <point x="249" y="31"/>
      <point x="202" y="110" type="qcurve"/>
      <point x="202" y="-416" type="line"/>
      <point x="153" y="-416" type="line"/>
      <point x="153" y="932" type="line"/>
      <point x="191" y="932" type="line"/>
      <point x="201" y="758" type="line"/>
      <point x="249" y="848"/>
      <point x="417" y="950"/>
      <point x="532" y="950" type="qcurve" smooth="yes"/>
      <point x="704" y="950"/>
      <point x="899" y="678"/>
      <point x="899" y="446" type="qcurve" smooth="yes"/>
    </contour>
    <contour>
      <point x="850" y="446" type="line" smooth="yes"/>
      <point x="850" y="649"/>
      <point x="687" y="902"/>
      <point x="533" y="902" type="qcurve" smooth="yes"/>
      <point x="392" y="902"/>
      <point x="235" y="759"/>
      <point x="202" y="656" type="qcurve"/>
      <point x="202" y="201" type="line"/>
      <point x="238" y="103"/>
      <point x="407" y="-12"/>
      <point x="535" y="-12" type="qcurve" smooth="yes"/>
      <point x="689" y="-12"/>
      <point x="850" y="226"/>
      <point x="850" y="427" type="qcurve" smooth="yes"/>
    </contour>
  </outline>
</glyph>
<glyph name="q" format="1">
  <advance width="1009"/>
  <unicode hex="0071"/>
  <outline>
    <contour>
      <point x="110" y="446" type="line" smooth="yes"/>
      <point x="110" y="678"/>
      <point x="304" y="950"/>
      <point x="477" y="950" type="qcurve" smooth="yes"/>
      <point x="591" y="950"/>
      <point x="758" y="848"/>
      <point x="807" y="758" type="qcurve"/>
      <point x="812" y="932" type="line"/>
      <point x="856" y="932" type="line"/>
      <point x="856" y="-416" type="line"/>
      <point x="807" y="-416" type="line"/>
      <point x="807" y="110" type="line"/>
      <point x="758" y="31"/>
      <point x="589" y="-60"/>
      <point x="475" y="-60" type="qcurve" smooth="yes"/>
      <point x="303" y="-60"/>
      <point x="110" y="202"/>
      <point x="110" y="427" type="qcurve" smooth="yes"/>
    </contour>
    <contour>
      <point x="160" y="427" type="line" smooth="yes"/>
      <point x="160" y="226"/>
      <point x="320" y="-12"/>
      <point x="474" y="-12" type="qcurve" smooth="yes"/>
      <point x="601" y="-12"/>
      <point x="770" y="103"/>
      <point x="807" y="200" type="qcurve"/>
      <point x="807" y="656" type="line"/>
      <point x="772" y="760"/>
      <point x="616" y="902"/>
      <point x="476" y="902" type="qcurve" smooth="yes"/>
      <point x="321" y="902"/>
      <point x="160" y="649"/>
      <point x="160" y="446" type="qcurve" smooth="yes"/>
    </contour>
  </outline>
</glyph>
<glyph name="r" format="1">
  <advance width="612"/>
  <unicode hex="0072"/>
  <outline>
    <contour>
      <point x="584" y="939" type="line"/>
      <point x="521" y="944" type="line"/>
      <point x="391" y="944"/>
      <point x="228" y="776"/>
      <point x="203" y="638" type="qcurve"/>
      <point x="203" y="0" type="line"/>
      <point x="155" y="0" type="line"/>
      <point x="155" y="974" type="line"/>
      <point x="194" y="974" type="line"/>
      <point x="203" y="805" type="line"/>
      <point x="203" y="771" type="line"/>
      <point x="244" y="876"/>
      <point x="404" y="992"/>
      <point x="521" y="992" type="qcurve" smooth="yes"/>
      <point x="542" y="992"/>
      <point x="577" y="986"/>
      <point x="590" y="982" type="qcurve"/>
    </contour>
  </outline>
</glyph>
<glyph name="s" format="1">
  <advance width="917"/>
  <unicode hex="0073"/>
  <outline>
    <contour>
      <point x="752" y="236" type="qcurve" smooth="yes"/>
      <point x="752" y="314"/>
      <point x="619" y="441"/>
      <point x="455" y="477" type="qcurve" smooth="yes"/>
      <point x="281" y="514"/>
      <point x="125" y="630"/>
      <point x="125" y="744" type="qcurve" smooth="yes"/>
      <point x="125" y="848"/>
      <point x="302" y="990"/>
      <point x="451" y="990" type="qcurve" smooth="yes"/>
      <point x="612" y="990"/>
      <point x="797" y="839"/>
      <point x="793" y="717" type="qcurve"/>
      <point x="791" y="712" type="line"/>
      <point x="750" y="712" type="line"/>
      <point x="750" y="807"/>
      <point x="589" y="941"/>
      <point x="451" y="941" type="qcurve" smooth="yes"/>
      <point x="314" y="941"/>
      <point x="174" y="823"/>
      <point x="174" y="746" type="qcurve" smooth="yes"/>
      <point x="174" y="669"/>
      <point x="293" y="561"/>
      <point x="469" y="521" type="qcurve" smooth="yes"/>
      <point x="632" y="483"/>
      <point x="800" y="353"/>
      <point x="800" y="236" type="qcurve" smooth="yes"/>
      <point x="800" y="121"/>
      <point x="613" y="-21"/>
      <point x="458" y="-21" type="qcurve" smooth="yes"/>
      <point x="288" y="-21"/>
      <point x="95" y="131"/>
      <point x="101" y="240" type="qcurve"/>
      <point x="103" y="245" type="line"/>
      <point x="142" y="245" type="line"/>
      <point x="149" y="130"/>
      <point x="333" y="28"/>
      <point x="458" y="28" type="qcurve" smooth="yes"/>
      <point x="593" y="28"/>
      <point x="752" y="154"/>
    </contour>
  </outline>
</glyph>
<glyph name="t" format="1">
  <advance width="570"/>
  <unicode hex="0074"/>
  <outline>
    <contour>
      <point x="256" y="1235" type="line"/>
      <point x="256" y="972" type="line"/>
      <point x="495" y="972" type="line"/>
      <point x="495" y="922" type="line"/>
      <point x="256" y="922" type="line"/>
      <point x="256" y="249" type="line" smooth="yes"/>
      <point x="256" y="129"/>
      <point x="337" y="28"/>
      <point x="403" y="28" type="qcurve" smooth="yes"/>
      <point x="428" y="28"/>
      <point x="465" y="31"/>
      <point x="499" y="36" type="qcurve"/>
      <point x="508" y="-8" type="line"/>
      <point x="485" y="-16"/>
      <point x="437" y="-21"/>
      <point x="406" y="-21" type="qcurve" smooth="yes"/>
      <point x="308" y="-21"/>
      <point x="206" y="107"/>
      <point x="206" y="249" type="qcurve" smooth="yes"/>
      <point x="206" y="922" type="line"/>
      <point x="26" y="922" type="line"/>
      <point x="26" y="972" type="line"/>
      <point x="206" y="972" type="line"/>
      <point x="206" y="1235" type="line"/>
    </contour>
  </outline>
</glyph>
<glyph name="u" format="1">
  <advance width="1009"/>
  <unicode hex="0075"/>
  <outline>
    <contour>
      <point x="809" y="173" type="line"/>
      <point x="763" y="80"/>
      <point x="593" y="-21"/>
      <point x="472" y="-21" type="qcurve" smooth="yes"/>
      <point x="321" y="-21"/>
      <point x="151" y="192"/>
      <point x="151" y="416" type="qcurve" smooth="yes"/>
      <point x="151" y="972" type="line"/>
      <point x="200" y="972" type="line"/>
      <point x="200" y="415" type="line" smooth="yes"/>
      <point x="200" y="217"/>
      <point x="346" y="28"/>
      <point x="470" y="28" type="qcurve" smooth="yes"/>
      <point x="622" y="28"/>
      <point x="785" y="177"/>
      <point x="807" y="300" type="qcurve"/>
      <point x="807" y="972" type="line"/>
      <point x="857" y="972" type="line"/>
      <point x="857" y="-2" type="line"/>
      <point x="816" y="-2" type="line"/>
    </contour>
  </outline>
</glyph>
<glyph name="v" format="1">
  <advance width="880"/>
  <unicode hex="0076"/>
  <outline>
    <contour>
      <point x="392" y="206" type="line"/>
      <point x="437" y="75" type="line"/>
      <point x="443" y="75" type="line"/>
      <point x="490" y="206" type="line"/>
      <point x="789" y="974" type="line"/>
      <point x="842" y="974" type="line"/>
      <point x="463" y="1" type="line"/>
      <point x="464" y="0" type="line"/>
      <point x="417" y="0" type="line"/>
      <point x="39" y="974" type="line"/>
      <point x="91" y="974" type="line"/>
    </contour>
  </outline>
</glyph>
<glyph name="w" format="1">
  <advance width="1395"/>
  <unicode hex="0077"/>
  <outline>
    <contour>
      <point x="329" y="282" type="line"/>
      <point x="380" y="82" type="line"/>
      <point x="385" y="81" type="line"/>
      <point x="449" y="282" type="line"/>
      <point x="668" y="974" type="line"/>
      <point x="717" y="974" type="line"/>
      <point x="935" y="282" type="line"/>
      <point x="998" y="81" type="line"/>
      <point x="1004" y="82" type="line"/>
      <point x="1056" y="282" type="line"/>
      <point x="1254" y="974" type="line"/>
      <point x="1310" y="974" type="line"/>
      <point x="1027" y="0" type="line"/>
      <point x="978" y="0" type="line"/>
      <point x="738" y="732" type="line"/>
      <point x="695" y="896" type="line"/>
      <point x="689" y="896" type="line"/>
      <point x="643" y="732" type="line"/>
      <point x="406" y="0" type="line"/>
      <point x="357" y="0" type="line"/>
      <point x="75" y="974" type="line"/>
      <point x="131" y="974" type="line"/>
    </contour>
  </outline>
</glyph>
<glyph name="x" format="1">
  <advance width="880"/>
  <unicode hex="0078"/>
  <outline>
    <contour>
      <point x="440" y="542" type="line"/>
      <point x="751" y="974" type="line"/>
      <point x="812" y="974" type="line"/>
      <point x="470" y="500" type="line"/>
      <point x="830" y="0" type="line"/>
      <point x="770" y="0" type="line"/>
      <point x="439" y="457" type="line"/>
      <point x="110" y="0" type="line"/>
      <point x="50" y="0" type="line"/>
      <point x="410" y="500" type="line"/>
      <point x="68" y="974" type="line"/>
      <point x="129" y="974" type="line"/>
    </contour>
  </outline>
</glyph>
<glyph name="y" format="1">
  <advance width="880"/>
  <unicode hex="0079"/>
  <outline>
    <contour>
      <point x="412" y="133" type="line"/>
      <point x="448" y="36" type="line"/>
      <point x="454" y="36" type="line"/>
      <point x="459" y="50" type="line"/>
      <point x="796" y="930" type="line"/>
      <point x="850" y="930" type="line"/>
      <point x="417" y="-206" type="line" smooth="yes"/>
      <point x="377" y="-308"/>
      <point x="272" y="-437"/>
      <point x="157" y="-437" type="qcurve" smooth="yes"/>
      <point x="140" y="-437"/>
      <point x="98" y="-431"/>
      <point x="88" y="-427" type="qcurve"/>
      <point x="96" y="-381" type="line"/>
      <point x="106" y="-384"/>
      <point x="146" y="-389"/>
      <point x="157" y="-389" type="qcurve" smooth="yes"/>
      <point x="239" y="-389"/>
      <point x="332" y="-292"/>
      <point x="368" y="-197" type="qcurve" smooth="yes"/>
      <point x="427" y="-38" type="line"/>
      <point x="39" y="930" type="line"/>
      <point x="92" y="930" type="line"/>
    </contour>
  </outline>
</glyph>
<glyph name="z" format="1">
  <advance width="880"/>
  <unicode hex="007A"/>
  <outline>
    <contour>
      <point x="144" y="49" type="line"/>
      <point x="837" y="49" type="line"/>
      <point x="837" y="0" type="line"/>
      <point x="78" y="0" type="line"/>
      <point x="78" y="40" type="line"/>
      <point x="718" y="924" type="line"/>
      <point x="106" y="924" type="line"/>
      <point x="106" y="974" type="line"/>
      <point x="784" y="974" type="line"/>
      <point x="784" y="931" type="line"/>
    </contour>
  </outline>
</glyph>
<glyph name="braceleft" format="1">
  <advance width="764"/>
  <unicode hex="007B"/>
  <outline>
    <contour>
      <point x="663" y="-397" type="line"/>
      <point x="507" y="-347"/>
      <point x="376" y="-135"/>
      <point x="376" y="18" type="qcurve"/>
      <point x="376" y="238" type="line"/>
      <point x="376" y="357"/>
      <point x="266" y="489"/>
      <point x="151" y="489" type="qcurve"/>
      <point x="151" y="548" type="line"/>
      <point x="266" y="548"/>
      <point x="376" y="678"/>
      <point x="376" y="796" type="qcurve"/>
      <point x="376" y="1019" type="line"/>
      <point x="376" y="1173"/>
      <point x="507" y="1388"/>
      <point x="663" y="1437" type="qcurve"/>
      <point x="676" y="1397" type="line"/>
      <point x="548" y="1355"/>
      <point x="424" y="1158"/>
      <point x="424" y="1019" type="qcurve"/>
      <point x="424" y="796" type="line"/>
      <point x="424" y="688"/>
      <point x="331" y="541"/>
      <point x="234" y="518" type="qcurve"/>
      <point x="331" y="495"/>
      <point x="424" y="346"/>
      <point x="424" y="238" type="qcurve"/>
      <point x="424" y="18" type="line"/>
      <point x="424" y="-121"/>
      <point x="551" y="-311"/>
      <point x="681" y="-356" type="qcurve"/>
    </contour>
  </outline>
</glyph>
<glyph name="braceright" format="1">
  <advance width="764"/>
  <unicode hex="007D"/>
  <outline>
    <contour>
      <point x="85" y="-356" type="line"/>
      <point x="214" y="-311"/>
      <point x="341" y="-121"/>
      <point x="341" y="18" type="qcurve"/>
      <point x="341" y="238" type="line"/>
      <point x="341" y="346"/>
      <point x="433" y="495"/>
      <point x="530" y="518" type="qcurve"/>
      <point x="433" y="541"/>
      <point x="341" y="688"/>
      <point x="341" y="796" type="qcurve"/>
      <point x="341" y="1019" type="line"/>
      <point x="341" y="1158"/>
      <point x="217" y="1355"/>
      <point x="89" y="1397" type="qcurve"/>
      <point x="102" y="1437" type="line"/>
      <point x="257" y="1388"/>
      <point x="389" y="1173"/>
      <point x="389" y="1019" type="qcurve"/>
      <point x="389" y="796" type="line"/>
      <point x="389" y="678"/>
      <point x="499" y="548"/>
      <point x="614" y="548" type="qcurve"/>
      <point x="614" y="489" type="line"/>
      <point x="499" y="489"/>
      <point x="389" y="356"/>
      <point x="389" y="238" type="qcurve"/>
      <point x="389" y="18" type="line"/>
      <point x="389" y="-136"/>
      <point x="258" y="-347"/>
      <point x="102" y="-397" type="qcurve"/>
    </contour>
  </outline>
</glyph>
<glyph name="asciitilde" format="1">
  <advance width="1271"/>
  <unicode hex="007E"/>
  <outline>
    <contour>
      <point x="1126" y="710" type="line"/>
      <point x="1126" y="601"/>
      <point x="990" y="443"/>
      <point x="888" y="443" type="qcurve" smooth="yes"/>
      <point x="810" y="443"/>
      <point x="681" y="511"/>
      <point x="599" y="586" type="qcurve" smooth="yes"/>
      <point x="538" y="639"/>
      <point x="431" y="692"/>
      <point x="376" y="692" type="qcurve" smooth="yes"/>
      <point x="296" y="692"/>
      <point x="194" y="570"/>
      <point x="194" y="460" type="qcurve"/>
      <point x="140" y="471" type="line"/>
      <point x="140" y="586"/>
      <point x="273" y="741"/>
      <point x="376" y="741" type="qcurve" smooth="yes"/>
      <point x="454" y="741"/>
      <point x="584" y="670"/>
      <point x="667" y="597" type="qcurve" smooth="yes"/>
      <point x="727" y="541"/>
      <point x="832" y="491"/>
      <point x="888" y="491" type="qcurve" smooth="yes"/>
      <point x="966" y="491"/>
      <point x="1071" y="618"/>
      <point x="1071" y="722" type="qcurve"/>
    </contour>
  </outline>
</glyph>
<glyph name="exclamdown" format="1">
  <advance width="365"/>
  <unicode hex="00A1"/>
  <outline>
    <contour>
      <point x="161" y="591" type="line"/>
      <point x="210" y="591" type="line"/>
      <point x="210" y="-359" type="line"/>
      <point x="161" y="-359" type="line"/>
    </contour>
    <contour>
      <point x="228" y="907" type="qcurve" smooth="yes"/>
      <point x="228" y="887"/>
      <point x="199" y="857"/>
      <point x="178" y="857" type="qcurve" smooth="yes" name="inserted"/>
      <point x="158" y="857"/>
      <point x="128" y="887"/>
      <point x="128" y="907" type="qcurve" smooth="yes" name="inserted"/>
      <point x="128" y="928"/>
      <point x="158" y="957"/>
      <point x="178" y="957" type="qcurve" smooth="yes" name="inserted"/>
      <point x="199" y="957"/>
      <point x="228" y="928"/>
    </contour>
  </outline>
</glyph>
<glyph name="cent" format="1">
  <advance width="999.0"/>
  <unicode hex="00A2"/>
  <outline>
    <contour>
      <point x="518" y="6" type="qcurve" smooth="yes"/>
      <point x="651" y="6"/>
      <point x="823" y="147"/>
      <point x="831" y="271" type="qcurve"/>
      <point x="879" y="271" type="line"/>
      <point x="872" y="136"/>
      <point x="683" y="-34"/>
      <point x="544" y="-42" type="qcurve"/>
      <point x="544" y="-245" type="line"/>
      <point x="494" y="-245" type="line"/>
      <point x="494" y="-42" type="line"/>
      <point x="322" y="-33"/>
      <point x="121" y="228"/>
      <point x="121" y="449" type="qcurve" smooth="yes"/>
      <point x="121" y="481" type="line" smooth="yes"/>
      <point x="121" y="697"/>
      <point x="322" y="957"/>
      <point x="494" y="966" type="qcurve"/>
      <point x="494" y="1162" type="line"/>
      <point x="544" y="1162" type="line"/>
      <point x="544" y="966" type="line"/>
      <point x="690" y="957"/>
      <point x="873" y="775"/>
      <point x="879" y="628" type="qcurve"/>
      <point x="831" y="628" type="line"/>
      <point x="824" y="759"/>
      <point x="653" y="919"/>
      <point x="517" y="919" type="qcurve" smooth="yes"/>
      <point x="354" y="919"/>
      <point x="169" y="684"/>
      <point x="169" y="475" type="qcurve" smooth="yes"/>
      <point x="169" y="444" type="line" smooth="yes"/>
      <point x="169" y="239"/>
      <point x="356" y="6"/>
    </contour>
  </outline>
</glyph>
<glyph name="sterling" format="1">
  <advance width="1035.0"/>
  <unicode hex="00A3"/>
  <outline>
    <contour>
      <point x="324" y="600" type="line"/>
      <point x="333" y="302" type="line" smooth="yes"/>
      <point x="335" y="215" name="inserted"/>
      <point x="305" y="88"/>
      <point x="273" y="49" type="qcurve"/>
      <point x="954" y="49" type="line"/>
      <point x="955" y="0" type="line"/>
      <point x="89" y="0" type="line"/>
      <point x="89" y="49" type="line"/>
      <point x="197" y="49" type="line"/>
      <point x="240" y="61"/>
      <point x="286" y="206"/>
      <point x="284" y="302" type="qcurve" smooth="yes"/>
      <point x="275" y="600" type="line"/>
      <point x="86" y="600" type="line"/>
      <point x="86" y="649" type="line"/>
      <point x="274" y="649" type="line"/>
      <point x="266" y="935" type="line" smooth="yes"/>
      <point x="266" y="1119"/>
      <point x="444" y="1328"/>
      <point x="595" y="1328" type="qcurve" smooth="yes"/>
      <point x="751" y="1328"/>
      <point x="932" y="1141"/>
      <point x="932" y="980" type="qcurve"/>
      <point x="883" y="980" type="line"/>
      <point x="883" y="1123"/>
      <point x="729" y="1280"/>
      <point x="595" y="1280" type="qcurve" smooth="yes"/>
      <point x="463" y="1280"/>
      <point x="314" y="1100"/>
      <point x="314" y="935" type="qcurve" smooth="yes"/>
      <point x="322" y="649" type="line"/>
      <point x="655" y="649" type="line"/>
      <point x="655" y="600" type="line"/>
    </contour>
  </outline>
</glyph>
<glyph name="currency" format="1">
  <advance width="1352"/>
  <unicode hex="00A4"/>
  <outline>
    <contour>
      <point x="1043" y="138" type="line"/>
      <point x="970" y="63"/>
      <point x="779" y="-21"/>
      <point x="671" y="-21" type="qcurve" smooth="yes" name="inserted"/>
      <point x="562" y="-21"/>
      <point x="370" y="62"/>
      <point x="297" y="136" type="qcurve"/>
      <point x="139" y="-26" type="line"/>
      <point x="103" y="9" type="line"/>
      <point x="264" y="173" type="line"/>
      <point x="199" y="252" name="inserted"/>
      <point x="134" y="438"/>
      <point x="134" y="545" type="qcurve" smooth="yes"/>
      <point x="134" y="655" name="inserted"/>
      <point x="203" y="846"/>
      <point x="273" y="926" type="qcurve"/>
      <point x="103" y="1100" type="line"/>
      <point x="139" y="1135" type="line"/>
      <point x="308" y="962" type="line"/>
      <point x="385" y="1035" name="inserted"/>
      <point x="566" y="1108"/>
      <point x="671" y="1108" type="qcurve" smooth="yes"/>
      <point x="777" y="1108"/>
      <point x="961" y="1030"/>
      <point x="1033" y="960" type="qcurve"/>
      <point x="1205" y="1136" type="line"/>
      <point x="1242" y="1100" type="line"/>
      <point x="1068" y="923" type="line"/>
      <point x="1137" y="843" name="inserted"/>
      <point x="1205" y="654"/>
      <point x="1205" y="545" type="qcurve" smooth="yes"/>
      <point x="1205" y="439" name="inserted"/>
      <point x="1142" y="255"/>
      <point x="1078" y="176" type="qcurve"/>
      <point x="1242" y="9" type="line"/>
      <point x="1205" y="-27" type="line"/>
    </contour>
    <contour>
      <point x="184" y="545" type="qcurve" smooth="yes"/>
      <point x="184" y="406"/>
      <point x="316" y="165"/>
      <point x="428" y="96" type="qcurve" smooth="yes" name="inserted"/>
      <point x="485" y="61" name="inserted"/>
      <point x="606" y="27"/>
      <point x="671" y="27" type="qcurve" smooth="yes"/>
      <point x="799" y="27"/>
      <point x="1024" y="165"/>
      <point x="1090" y="285" type="qcurve" smooth="yes" name="inserted"/>
      <point x="1123" y="346" name="inserted"/>
      <point x="1157" y="475"/>
      <point x="1157" y="545" type="qcurve" smooth="yes"/>
      <point x="1157" y="682"/>
      <point x="1026" y="921"/>
      <point x="913" y="990" type="qcurve" smooth="yes" name="inserted"/>
      <point x="800" y="1060"/>
      <point x="541" y="1060"/>
      <point x="428" y="990" type="qcurve" smooth="yes" name="inserted"/>
      <point x="314" y="921"/>
      <point x="184" y="682"/>
    </contour>
  </outline>
</glyph>
<glyph name="yen" format="1">
  <advance width="1086"/>
  <unicode hex="00A5"/>
  <outline>
    <contour>
      <point x="971" y="1310" type="line"/>
      <point x="1031" y="1310" type="line"/>
      <point x="590" y="608" type="line"/>
      <point x="972" y="608" type="line"/>
      <point x="972" y="559" type="line"/>
      <point x="565" y="559" type="line"/>
      <point x="565" y="343" type="line"/>
      <point x="972" y="343" type="line"/>
      <point x="972" y="293" type="line"/>
      <point x="565" y="293" type="line"/>
      <point x="565" y="0" type="line"/>
      <point x="517" y="0" type="line"/>
      <point x="517" y="293" type="line"/>
      <point x="112" y="293" type="line"/>
      <point x="112" y="343" type="line"/>
      <point x="517" y="343" type="line"/>
      <point x="517" y="559" type="line"/>
      <point x="112" y="559" type="line"/>
      <point x="112" y="608" type="line"/>
      <point x="491" y="608" type="line"/>
      <point x="52" y="1310" type="line"/>
      <point x="111" y="1310" type="line"/>
      <point x="518" y="664" type="line"/>
      <point x="539" y="618" type="line"/>
      <point x="544" y="618" type="line"/>
      <point x="565" y="664" type="line"/>
    </contour>
  </outline>
</glyph>
<glyph name="brokenbar" format="1">
  <advance width="358"/>
  <unicode hex="00A6"/>
  <outline>
    <contour>
      <point x="155" y="-270" type="line"/>
      <point x="155" y="407" type="line"/>
      <point x="203" y="407" type="line"/>
      <point x="203" y="-270" type="line"/>
    </contour>
    <contour>
      <point x="203" y="601" type="line"/>
      <point x="155" y="601" type="line"/>
      <point x="155" y="1283" type="line"/>
      <point x="203" y="1283" type="line"/>
    </contour>
  </outline>
</glyph>
<glyph name="section" format="1">
  <advance width="1101"/>
  <unicode hex="00A7"/>
  <outline>
    <contour>
      <point x="985" y="338" type="qcurve" smooth="yes"/>
      <point x="985" y="244"/>
      <point x="837" y="116"/>
      <point x="711" y="98" type="qcurve"/>
      <point x="839" y="50"/>
      <point x="945" y="-83"/>
      <point x="945" y="-184" type="qcurve" smooth="yes"/>
      <point x="945" y="-328"/>
      <point x="726" y="-495"/>
      <point x="540" y="-495" type="qcurve" smooth="yes"/>
      <point x="337" y="-495"/>
      <point x="104" y="-293"/>
      <point x="104" y="-107" type="qcurve"/>
      <point x="152" y="-105" type="line"/>
      <point x="152" y="-267"/>
      <point x="361" y="-446"/>
      <point x="540" y="-446" type="qcurve" smooth="yes"/>
      <point x="705" y="-446"/>
      <point x="896" y="-303"/>
      <point x="896" y="-185" type="qcurve" smooth="yes"/>
      <point x="896" y="-106"/>
      <point x="830" y="-10"/>
      <point x="756" y="27" type="qcurve" smooth="yes" name="inserted"/>
      <point x="719" y="45" name="inserted"/>
      <point x="614" y="82"/>
      <point x="546" y="100" type="qcurve" smooth="yes"/>
      <point x="302" y="158"/>
      <point x="109" y="319"/>
      <point x="109" y="446" type="qcurve" smooth="yes"/>
      <point x="109" y="545"/>
      <point x="248" y="672"/>
      <point x="366" y="690" type="qcurve"/>
      <point x="250" y="736"/>
      <point x="149" y="869"/>
      <point x="149" y="967" type="qcurve" smooth="yes"/>
      <point x="149" y="1108"/>
      <point x="370" y="1279"/>
      <point x="556" y="1279" type="qcurve" smooth="yes"/>
      <point x="750" y="1279"/>
      <point x="965" y="1076"/>
      <point x="965" y="891" type="qcurve"/>
      <point x="916" y="891" type="line"/>
      <point x="916" y="1041"/>
      <point x="720" y="1230"/>
      <point x="556" y="1230" type="qcurve" smooth="yes"/>
      <point x="391" y="1230"/>
      <point x="198" y="1092"/>
      <point x="198" y="969" type="qcurve" smooth="yes"/>
      <point x="198" y="887"/>
      <point x="263" y="790"/>
      <point x="337" y="752" type="qcurve" smooth="yes" name="inserted"/>
      <point x="374" y="734" name="inserted"/>
      <point x="483" y="694"/>
      <point x="554" y="674" type="qcurve" smooth="yes"/>
      <point x="742" y="627"/>
      <point x="905" y="543"/>
      <point x="945" y="484" type="qcurve" smooth="yes" name="inserted"/>
      <point x="965" y="454" name="inserted"/>
      <point x="985" y="382"/>
    </contour>
    <contour>
      <point x="531" y="640" type="qcurve"/>
      <point x="504" y="646" name="inserted"/>
      <point x="456" y="659"/>
      <point x="434" y="667" type="qcurve"/>
      <point x="305" y="662"/>
      <point x="158" y="545"/>
      <point x="158" y="448" type="qcurve" smooth="yes"/>
      <point x="158" y="365"/>
      <point x="228" y="267"/>
      <point x="313" y="228" type="qcurve" smooth="yes" name="inserted"/>
      <point x="355" y="209" name="inserted"/>
      <point x="511" y="158"/>
      <point x="624" y="127" type="qcurve"/>
      <point x="765" y="129"/>
      <point x="936" y="245"/>
      <point x="936" y="336" type="qcurve" smooth="yes"/>
      <point x="936" y="412"/>
      <point x="862" y="513"/>
      <point x="779" y="554" type="qcurve" smooth="yes" name="inserted"/>
      <point x="737" y="574" name="inserted"/>
      <point x="613" y="617"/>
    </contour>
  </outline>
</glyph>
<glyph name="dieresis" format="1">
  <advance width="815"/>
  <unicode hex="00A8"/>
  <outline>
    <contour>
      <point x="166" y="1416" type="qcurve" smooth="yes"/>
      <point x="166" y="1436"/>
      <point x="194" y="1466"/>
      <point x="215" y="1466" type="qcurve" smooth="yes" name="inserted"/>
      <point x="236" y="1466"/>
      <point x="266" y="1436"/>
      <point x="266" y="1416" type="qcurve" smooth="yes" name="inserted"/>
      <point x="266" y="1395"/>
      <point x="236" y="1366"/>
      <point x="215" y="1366" type="qcurve" smooth="yes" name="inserted"/>
      <point x="194" y="1366"/>
      <point x="166" y="1395"/>
    </contour>
    <contour>
      <point x="566" y="1416" type="qcurve" smooth="yes"/>
      <point x="566" y="1436"/>
      <point x="595" y="1466"/>
      <point x="616" y="1466" type="qcurve" smooth="yes" name="inserted"/>
      <point x="636" y="1466"/>
      <point x="666" y="1436"/>
      <point x="666" y="1416" type="qcurve" smooth="yes" name="inserted"/>
      <point x="666" y="1395"/>
      <point x="636" y="1366"/>
      <point x="616" y="1366" type="qcurve" smooth="yes" name="inserted"/>
      <point x="595" y="1366"/>
      <point x="566" y="1395"/>
    </contour>
  </outline>
</glyph>
<glyph name="copyright" format="1">
  <advance width="1499"/>
  <unicode hex="00A9"/>
  <outline>
    <contour>
      <point x="1004" y="534" type="line"/>
      <point x="1007" y="529" type="line"/>
      <point x="1010" y="394"/>
      <point x="869" y="252"/>
      <point x="743" y="252" type="qcurve" smooth="yes"/>
      <point x="614" y="252"/>
      <point x="455" y="444"/>
      <point x="455" y="600" type="qcurve" smooth="yes"/>
      <point x="455" y="707" type="line" smooth="yes"/>
      <point x="455" y="862"/>
      <point x="615" y="1055"/>
      <point x="743" y="1055" type="qcurve" smooth="yes"/>
      <point x="869" y="1055"/>
      <point x="1011" y="912"/>
      <point x="1008" y="779" type="qcurve"/>
      <point x="1005" y="774" type="line"/>
      <point x="966" y="774" type="line"/>
      <point x="966" y="890"/>
      <point x="851" y="1008"/>
      <point x="743" y="1008" type="qcurve" smooth="yes"/>
      <point x="633" y="1008"/>
      <point x="505" y="837"/>
      <point x="505" y="708" type="qcurve" smooth="yes"/>
      <point x="505" y="600" type="line" smooth="yes"/>
      <point x="505" y="470"/>
      <point x="632" y="301"/>
      <point x="743" y="301" type="qcurve" smooth="yes"/>
      <point x="851" y="301"/>
      <point x="965" y="416"/>
      <point x="965" y="534" type="qcurve"/>
    </contour>
    <contour>
      <point x="161" y="654" type="qcurve" smooth="yes"/>
      <point x="161" y="393"/>
      <point x="506" y="29"/>
      <point x="750" y="29" type="qcurve" smooth="yes"/>
      <point x="992" y="29"/>
      <point x="1338" y="393"/>
      <point x="1338" y="654" type="qcurve" smooth="yes"/>
      <point x="1338" y="914"/>
      <point x="993" y="1277"/>
      <point x="750" y="1277" type="qcurve" smooth="yes"/>
      <point x="506" y="1277"/>
      <point x="161" y="914"/>
    </contour>
    <contour>
      <point x="111" y="654" type="qcurve" smooth="yes"/>
      <point x="111" y="938"/>
      <point x="483" y="1326"/>
      <point x="750" y="1326" type="qcurve" smooth="yes"/>
      <point x="1015" y="1326"/>
      <point x="1389" y="938"/>
      <point x="1389" y="654" type="qcurve" smooth="yes"/>
      <point x="1389" y="370"/>
      <point x="1015" y="-21"/>
      <point x="750" y="-21" type="qcurve" smooth="yes"/>
      <point x="484" y="-21"/>
      <point x="111" y="370"/>
    </contour>
  </outline>
</glyph>
<glyph name="ordfeminine" format="1">
  <advance width="808"/>
  <unicode hex="00AA"/>
  <outline>
    <contour>
      <point x="612" y="704" type="line"/>
      <point x="604" y="728" name="inserted"/>
      <point x="594" y="781"/>
      <point x="592" y="810" type="qcurve"/>
      <point x="557" y="756"/>
      <point x="439" y="691"/>
      <point x="375" y="691" type="qcurve" smooth="yes"/>
      <point x="266" y="691"/>
      <point x="151" y="794"/>
      <point x="151" y="879" type="qcurve" smooth="yes"/>
      <point x="151" y="977"/>
      <point x="302" y="1088"/>
      <point x="438" y="1088" type="qcurve" smooth="yes"/>
      <point x="591" y="1088" type="line"/>
      <point x="591" y="1150" type="line" smooth="yes"/>
      <point x="591" y="1244"/>
      <point x="502" y="1349"/>
      <point x="412" y="1349" type="qcurve" smooth="yes"/>
      <point x="314" y="1349"/>
      <point x="199" y="1270"/>
      <point x="199" y="1188" type="qcurve"/>
      <point x="150" y="1188" type="line"/>
      <point x="150" y="1280"/>
      <point x="296" y="1398"/>
      <point x="412" y="1398" type="qcurve" smooth="yes"/>
      <point x="517" y="1398"/>
      <point x="641" y="1268"/>
      <point x="641" y="1149" type="qcurve" smooth="yes"/>
      <point x="641" y="865" type="line" smooth="yes"/>
      <point x="641" y="823" name="inserted"/>
      <point x="653" y="743"/>
      <point x="664" y="704" type="qcurve"/>
    </contour>
    <contour>
      <point x="376" y="741" type="qcurve" smooth="yes"/>
      <point x="439" y="741"/>
      <point x="573" y="825"/>
      <point x="591" y="878" type="qcurve"/>
      <point x="591" y="1039" type="line"/>
      <point x="441" y="1039" type="line" smooth="yes"/>
      <point x="320" y="1039" name="inserted"/>
      <point x="200" y="961"/>
      <point x="200" y="883" type="qcurve" smooth="yes"/>
      <point x="200" y="812" name="inserted"/>
      <point x="288" y="741"/>
    </contour>
  </outline>
</glyph>
<glyph name="logicalnot" format="1">
  <advance width="991"/>
  <unicode hex="00AC"/>
  <outline>
    <contour>
      <point x="824" y="396" type="line"/>
      <point x="775" y="396" type="line"/>
      <point x="775" y="670" type="line"/>
      <point x="110" y="670" type="line"/>
      <point x="110" y="717" type="line"/>
      <point x="824" y="717" type="line"/>
    </contour>
  </outline>
</glyph>
<glyph name="registered" format="1">
  <advance width="1507"/>
  <unicode hex="00AE"/>
  <outline>
    <contour>
      <point x="104" y="654" type="qcurve" smooth="yes"/>
      <point x="104" y="836"/>
      <point x="272" y="1147"/>
      <point x="421" y="1237" type="qcurve" smooth="yes" name="inserted"/>
      <point x="570" y="1326"/>
      <point x="915" y="1326"/>
      <point x="1064" y="1237" type="qcurve" smooth="yes" name="inserted"/>
      <point x="1213" y="1147"/>
      <point x="1382" y="836"/>
      <point x="1382" y="654" type="qcurve" smooth="yes"/>
      <point x="1382" y="475"/>
      <point x="1218" y="165"/>
      <point x="1069" y="72" type="qcurve" smooth="yes" name="inserted"/>
      <point x="920" y="-21"/>
      <point x="565" y="-21"/>
      <point x="416" y="72" type="qcurve" smooth="yes" name="inserted"/>
      <point x="267" y="165"/>
      <point x="104" y="475"/>
    </contour>
    <contour>
      <point x="153" y="654" type="qcurve" smooth="yes"/>
      <point x="153" y="487"/>
      <point x="310" y="198"/>
      <point x="446" y="113" type="qcurve" smooth="yes" name="inserted"/>
      <point x="515" y="71" name="inserted"/>
      <point x="663" y="29"/>
      <point x="743" y="29" type="qcurve" smooth="yes"/>
      <point x="901" y="29"/>
      <point x="1175" y="198"/>
      <point x="1253" y="342" type="qcurve" smooth="yes" name="inserted"/>
      <point x="1292" y="414" name="inserted"/>
      <point x="1331" y="570"/>
      <point x="1331" y="654" type="qcurve" smooth="yes"/>
      <point x="1331" y="822"/>
      <point x="1175" y="1109"/>
      <point x="1037" y="1193" type="qcurve" smooth="yes" name="inserted"/>
      <point x="969" y="1235" name="inserted"/>
      <point x="821" y="1277"/>
      <point x="743" y="1277" type="qcurve" smooth="yes"/>
      <point x="584" y="1277"/>
      <point x="310" y="1109"/>
      <point x="231" y="966" type="qcurve" smooth="yes" name="inserted"/>
      <point x="192" y="894" name="inserted"/>
      <point x="153" y="738"/>
    </contour>
    <contour>
      <point x="583" y="608" type="line"/>
      <point x="583" y="291" type="line"/>
      <point x="534" y="291" type="line"/>
      <point x="534" y="1038" type="line"/>
      <point x="749" y="1038" type="line" smooth="yes"/>
      <point x="879" y="1038" name="inserted"/>
      <point x="1009" y="930"/>
      <point x="1009" y="822" type="qcurve" smooth="yes"/>
      <point x="1009" y="758" name="inserted"/>
      <point x="940" y="665"/>
      <point x="871" y="637" type="qcurve"/>
      <point x="931" y="619" name="inserted"/>
      <point x="990" y="526"/>
      <point x="990" y="450" type="qcurve" smooth="yes"/>
      <point x="990" y="400" name="inserted"/>
      <point x="998" y="328"/>
      <point x="1005" y="306" type="qcurve"/>
      <point x="1005" y="291" type="line"/>
      <point x="952" y="291" type="line"/>
      <point x="946" y="308" name="inserted"/>
      <point x="940" y="387"/>
      <point x="940" y="450" type="qcurve" smooth="yes"/>
      <point x="940" y="533"/>
      <point x="870" y="606"/>
      <point x="786" y="608" type="qcurve" smooth="yes"/>
    </contour>
    <contour>
      <point x="583" y="659" type="line"/>
      <point x="768" y="659" type="line" smooth="yes"/>
      <point x="854" y="659"/>
      <point x="959" y="749"/>
      <point x="959" y="823" type="qcurve" smooth="yes"/>
      <point x="959" y="911"/>
      <point x="867" y="987"/>
      <point x="761" y="989" type="qcurve" smooth="yes"/>
      <point x="583" y="989" type="line"/>
    </contour>
  </outline>
</glyph>
<glyph name="macron" format="1">
  <advance width="730"/>
  <unicode hex="00AF"/>
  <outline>
    <contour>
      <point x="647" y="1403" type="line"/>
      <point x="83" y="1403" type="line"/>
      <point x="83" y="1451" type="line"/>
      <point x="647" y="1451" type="line"/>
    </contour>
  </outline>
</glyph>
<glyph name="degree" format="1">
  <advance width="705"/>
  <unicode hex="00B0"/>
  <outline>
    <contour>
      <point x="140" y="1212" type="qcurve" smooth="yes"/>
      <point x="140" y="1300"/>
      <point x="265" y="1428"/>
      <point x="353" y="1428" type="qcurve" smooth="yes"/>
      <point x="439" y="1428"/>
      <point x="562" y="1300"/>
      <point x="562" y="1212" type="qcurve" smooth="yes"/>
      <point x="562" y="1124"/>
      <point x="439" y="999"/>
      <point x="353" y="999" type="qcurve" smooth="yes"/>
      <point x="265" y="999"/>
      <point x="140" y="1123"/>
    </contour>
    <contour>
      <point x="190" y="1212" type="qcurve" smooth="yes"/>
      <point x="190" y="1143"/>
      <point x="282" y="1049"/>
      <point x="353" y="1049" type="qcurve" smooth="yes"/>
      <point x="421" y="1049"/>
      <point x="511" y="1140"/>
      <point x="511" y="1212" type="qcurve" smooth="yes"/>
      <point x="511" y="1286"/>
      <point x="420" y="1379"/>
      <point x="353" y="1379" type="qcurve" smooth="yes"/>
      <point x="283" y="1379"/>
      <point x="190" y="1283"/>
    </contour>
  </outline>
</glyph>
<glyph name="plusminus" format="1">
  <advance width="969"/>
  <unicode hex="00B1"/>
  <outline>
    <contour>
      <point x="512" y="724" type="line"/>
      <point x="889" y="724" type="line"/>
      <point x="889" y="676" type="line"/>
      <point x="512" y="676" type="line"/>
      <point x="512" y="260" type="line"/>
      <point x="464" y="260" type="line"/>
      <point x="464" y="676" type="line"/>
      <point x="65" y="676" type="line"/>
      <point x="65" y="724" type="line"/>
      <point x="464" y="724" type="line"/>
      <point x="464" y="1140" type="line"/>
      <point x="512" y="1140" type="line"/>
    </contour>
    <contour>
      <point x="861" y="-1" type="line"/>
      <point x="110" y="-1" type="line"/>
      <point x="110" y="48" type="line"/>
      <point x="861" y="48" type="line"/>
    </contour>
  </outline>
</glyph>
<glyph name="acute" format="1">
  <advance width="460"/>
  <unicode hex="00B4"/>
  <outline>
    <contour>
      <point x="284" y="1489" type="line"/>
      <point x="343" y="1489" type="line"/>
      <point x="167" y="1250" type="line"/>
      <point x="113" y="1250" type="line"/>
    </contour>
  </outline>
</glyph>
<glyph name="uni00B5" format="1">
  <advance width="1009"/>
  <unicode hex="00B5"/>
  <outline>
    <contour>
      <point x="201" y="932" type="line"/>
      <point x="201" y="337" type="line" smooth="yes"/>
      <point x="203" y="167"/>
      <point x="341" y="-11"/>
      <point x="476" y="-11" type="qcurve" smooth="yes"/>
      <point x="635" y="-11"/>
      <point x="796" y="152"/>
      <point x="809" y="331" type="qcurve"/>
      <point x="809" y="932" type="line"/>
      <point x="858" y="932" type="line"/>
      <point x="858" y="-42" type="line"/>
      <point x="812" y="-42" type="line"/>
      <point x="809" y="141" type="line"/>
      <point x="766" y="41" name="inserted"/>
      <point x="603" y="-60"/>
      <point x="484" y="-60" type="qcurve" smooth="yes"/>
      <point x="382" y="-60"/>
      <point x="239" y="30"/>
      <point x="201" y="112" type="qcurve"/>
      <point x="201" y="-416" type="line"/>
      <point x="154" y="-416" type="line"/>
      <point x="154" y="932" type="line"/>
    </contour>
  </outline>
</glyph>
<glyph name="paragraph" format="1">
  <advance width="851"/>
  <unicode hex="00B6"/>
  <outline>
    <contour>
      <point x="644" y="0" type="line"/>
      <point x="644" y="468" type="line"/>
      <point x="530" y="468" type="line" smooth="yes"/>
      <point x="395" y="468"/>
      <point x="195" y="572"/>
      <point x="142" y="668" type="qcurve" smooth="yes" name="inserted"/>
      <point x="116" y="716" name="inserted"/>
      <point x="89" y="827"/>
      <point x="89" y="889" type="qcurve" smooth="yes"/>
      <point x="89" y="1081"/>
      <point x="329" y="1310"/>
      <point x="534" y="1310" type="qcurve" smooth="yes"/>
      <point x="693" y="1310" type="line"/>
      <point x="693" y="0" type="line"/>
    </contour>
  </outline>
</glyph>
<glyph name="periodcentered" format="1">
  <advance width="425"/>
  <unicode hex="00B7"/>
  <outline>
    <contour>
      <point x="161" y="701" type="qcurve" smooth="yes"/>
      <point x="161" y="721"/>
      <point x="190" y="751"/>
      <point x="211" y="751" type="qcurve" smooth="yes" name="inserted"/>
      <point x="231" y="751"/>
      <point x="261" y="721"/>
      <point x="261" y="701" type="qcurve" smooth="yes" name="inserted"/>
      <point x="261" y="680"/>
      <point x="231" y="651"/>
      <point x="211" y="651" type="qcurve" smooth="yes" name="inserted"/>
      <point x="190" y="651"/>
      <point x="161" y="680"/>
    </contour>
  </outline>
</glyph>
<glyph name="cedilla" format="1">
  <advance width="441.0"/>
  <unicode hex="00B8"/>
  <outline>
    <contour>
      <point x="186" y="-44" type="line"/>
      <point x="176" y="-112" type="line"/>
      <point x="256" y="-119" name="inserted"/>
      <point x="336" y="-195"/>
      <point x="336" y="-264" type="qcurve" smooth="yes"/>
      <point x="336" y="-341"/>
      <point x="199" y="-435"/>
      <point x="79" y="-435" type="qcurve"/>
      <point x="73" y="-391" type="line"/>
      <point x="164" y="-391"/>
      <point x="286" y="-320"/>
      <point x="286" y="-264" type="qcurve" smooth="yes"/>
      <point x="286" y="-214"/>
      <point x="217" y="-163"/>
      <point x="116" y="-152" type="qcurve"/>
      <point x="139" y="-44" type="line"/>
    </contour>
  </outline>
</glyph>
<glyph name="ordmasculine" format="1">
  <advance width="823"/>
  <unicode hex="00BA"/>
  <outline>
    <contour>
      <point x="133" y="1096" type="line" smooth="yes"/>
      <point x="133" y="1231"/>
      <point x="284" y="1397"/>
      <point x="407" y="1397" type="qcurve" smooth="yes" name="inserted"/>
      <point x="530" y="1397"/>
      <point x="681" y="1232"/>
      <point x="681" y="1091" type="qcurve" smooth="yes"/>
      <point x="681" y="991" type="line" smooth="yes"/>
      <point x="681" y="855"/>
      <point x="531" y="690"/>
      <point x="409" y="690" type="qcurve" smooth="yes"/>
      <point x="285" y="690"/>
      <point x="133" y="854"/>
      <point x="133" y="995" type="qcurve" smooth="yes"/>
    </contour>
    <contour>
      <point x="182" y="991" type="line" smooth="yes"/>
      <point x="182" y="873"/>
      <point x="302" y="739"/>
      <point x="409" y="739" type="qcurve" smooth="yes"/>
      <point x="513" y="739"/>
      <point x="634" y="876"/>
      <point x="634" y="994" type="qcurve" smooth="yes"/>
      <point x="634" y="1096" type="line" smooth="yes"/>
      <point x="634" y="1211"/>
      <point x="510" y="1349"/>
      <point x="407" y="1349" type="qcurve" smooth="yes"/>
      <point x="304" y="1349"/>
      <point x="182" y="1212"/>
      <point x="182" y="1091" type="qcurve" smooth="yes"/>
    </contour>
  </outline>
</glyph>
<glyph name="questiondown" format="1">
  <advance width="821"/>
  <unicode hex="00BF"/>
  <outline>
    <contour>
      <point x="463" y="587" type="line"/>
      <point x="461" y="496"/>
      <point x="444" y="430"/>
      <point x="422" y="400" type="qcurve" smooth="yes" name="inserted"/>
      <point x="411" y="385" name="inserted"/>
      <point x="375" y="348"/>
      <point x="350" y="325" type="qcurve" smooth="yes"/>
      <point x="280" y="256" type="line" smooth="yes"/>
      <point x="209" y="185"/>
      <point x="146" y="38"/>
      <point x="146" y="-53" type="qcurve" smooth="yes"/>
      <point x="146" y="-187"/>
      <point x="288" y="-333"/>
      <point x="415" y="-333" type="qcurve" smooth="yes"/>
      <point x="539" y="-333"/>
      <point x="682" y="-185"/>
      <point x="686" y="-57" type="qcurve"/>
      <point x="734" y="-57" type="line"/>
      <point x="733" y="-207"/>
      <point x="561" y="-381"/>
      <point x="415" y="-381" type="qcurve" smooth="yes"/>
      <point x="266" y="-381"/>
      <point x="97" y="-200"/>
      <point x="97" y="-52" type="qcurve" smooth="yes"/>
      <point x="97" y="57"/>
      <point x="191" y="240"/>
      <point x="325" y="362" type="qcurve"/>
      <point x="371" y="398"/>
      <point x="411" y="472"/>
      <point x="413" y="525" type="qcurve" smooth="yes"/>
      <point x="414" y="587" type="line"/>
    </contour>
    <contour>
      <point x="484" y="903" type="qcurve" smooth="yes"/>
      <point x="484" y="883"/>
      <point x="455" y="853"/>
      <point x="435" y="853" type="qcurve" smooth="yes" name="inserted"/>
      <point x="414" y="853"/>
      <point x="384" y="883"/>
      <point x="384" y="903" type="qcurve" smooth="yes" name="inserted"/>
      <point x="384" y="924"/>
      <point x="414" y="953"/>
      <point x="435" y="953" type="qcurve" smooth="yes" name="inserted"/>
      <point x="455" y="953"/>
      <point x="484" y="924"/>
    </contour>
  </outline>
</glyph>
<glyph name="AE" format="1">
  <advance width="1634"/>
  <unicode hex="00C6"/>
  <outline>
    <contour>
      <point x="1591" y="0" type="line"/>
      <point x="914" y="0" type="line"/>
      <point x="898" y="383" type="line"/>
      <point x="334" y="383" type="line"/>
      <point x="104" y="0" type="line"/>
      <point x="45" y="0" type="line"/>
      <point x="838" y="1310" type="line"/>
      <point x="1536" y="1310" type="line"/>
      <point x="1536" y="1262" type="line"/>
      <point x="910" y="1262" type="line"/>
      <point x="933" y="707" type="line"/>
      <point x="1463" y="707" type="line"/>
      <point x="1463" y="659" type="line"/>
      <point x="935" y="659" type="line"/>
      <point x="960" y="49" type="line"/>
      <point x="1591" y="49" type="line"/>
    </contour>
    <contour>
      <point x="363" y="430" type="line"/>
      <point x="896" y="430" type="line"/>
      <point x="861" y="1258" type="line"/>
    </contour>
  </outline>
</glyph>
<glyph name="Eth" format="1">
  <advance width="1233.0"/>
  <unicode hex="00D0"/>
  <outline>
    <contour>
      <point x="207" y="0" type="line"/>
      <point x="207" y="642" type="line"/>
      <point x="54" y="642" type="line"/>
      <point x="54" y="690" type="line"/>
      <point x="207" y="690" type="line"/>
      <point x="207" y="1310" type="line"/>
      <point x="570" y="1310" type="line" smooth="yes"/>
      <point x="722" y="1310"/>
      <point x="968" y="1166"/>
      <point x="1039" y="1036" type="qcurve" smooth="yes" name="inserted"/>
      <point x="1074" y="971" name="inserted"/>
      <point x="1110" y="826"/>
      <point x="1111" y="745" type="qcurve" smooth="yes"/>
      <point x="1111" y="575" type="line" smooth="yes"/>
      <point x="1111" y="411"/>
      <point x="973" y="149"/>
      <point x="850" y="75" type="qcurve" smooth="yes" name="inserted"/>
      <point x="788" y="38" name="inserted"/>
      <point x="650" y="0"/>
      <point x="574" y="0" type="qcurve" smooth="yes"/>
    </contour>
    <contour>
      <point x="582" y="642" type="line"/>
      <point x="256" y="642" type="line"/>
      <point x="256" y="49" type="line"/>
      <point x="561" y="49" type="line" smooth="yes"/>
      <point x="783" y="49"/>
      <point x="1062" y="347"/>
      <point x="1062" y="582" type="qcurve" smooth="yes"/>
      <point x="1062" y="738" type="line" smooth="yes"/>
      <point x="1062" y="885"/>
      <point x="937" y="1124"/>
      <point x="825" y="1192" type="qcurve" smooth="yes" name="inserted"/>
      <point x="769" y="1226" name="inserted"/>
      <point x="645" y="1261"/>
      <point x="577" y="1262" type="qcurve" smooth="yes"/>
      <point x="256" y="1262" type="line"/>
      <point x="256" y="690" type="line"/>
      <point x="582" y="690" type="line"/>
    </contour>
  </outline>
</glyph>
<glyph name="multiply" format="1">
  <advance width="947"/>
  <unicode hex="00D7"/>
  <outline>
    <contour>
      <point x="88" y="285" type="line"/>
      <point x="434" y="639" type="line"/>
      <point x="113" y="967" type="line"/>
      <point x="148" y="1002" type="line"/>
      <point x="468" y="674" type="line"/>
      <point x="789" y="1002" type="line"/>
      <point x="824" y="967" type="line"/>
      <point x="503" y="639" type="line"/>
      <point x="850" y="285" type="line"/>
      <point x="815" y="252" type="line"/>
      <point x="469" y="604" type="line"/>
      <point x="123" y="252" type="line"/>
    </contour>
  </outline>
</glyph>
<glyph name="Oslash" format="1">
  <advance width="1228"/>
  <unicode hex="00D8"/>
  <outline>
    <contour>
      <point x="1108" y="550" type="line" smooth="yes"/>
      <point x="1108" y="380"/>
      <point x="986" y="118"/>
      <point x="874" y="46" type="qcurve" smooth="yes" name="inserted"/>
      <point x="818" y="10" name="inserted"/>
      <point x="688" y="-26"/>
      <point x="615" y="-26" type="qcurve" smooth="yes"/>
      <point x="527" y="-26" name="inserted"/>
      <point x="377" y="25"/>
      <point x="314" y="75" type="qcurve"/>
      <point x="219" y="-75" type="line"/>
      <point x="159" y="-75" type="line"/>
      <point x="276" y="110" type="line"/>
      <point x="198" y="189" name="inserted"/>
      <point x="120" y="413"/>
      <point x="120" y="559" type="qcurve" smooth="yes"/>
      <point x="120" y="746" type="line" smooth="yes"/>
      <point x="120" y="915"/>
      <point x="241" y="1178"/>
      <point x="354" y="1249" type="qcurve" smooth="yes" name="inserted"/>
      <point x="411" y="1285" name="inserted"/>
      <point x="540" y="1321"/>
      <point x="613" y="1321" type="qcurve" smooth="yes"/>
      <point x="717" y="1321" name="inserted"/>
      <point x="889" y="1250"/>
      <point x="957" y="1180" type="qcurve"/>
      <point x="1057" y="1338" type="line"/>
      <point x="1116" y="1338" type="line"/>
      <point x="990" y="1140" type="line"/>
      <point x="1049" y="1063" name="inserted"/>
      <point x="1107" y="866"/>
      <point x="1108" y="748" type="qcurve" smooth="yes"/>
    </contour>
    <contour>
      <point x="169" y="550" type="line" smooth="yes"/>
      <point x="169" y="422" name="inserted"/>
      <point x="236" y="222"/>
      <point x="303" y="151" type="qcurve"/>
      <point x="930" y="1138" type="line"/>
      <point x="870" y="1205" name="inserted"/>
      <point x="712" y="1272"/>
      <point x="613" y="1272" type="qcurve" smooth="yes"/>
      <point x="410" y="1272"/>
      <point x="169" y="987"/>
      <point x="169" y="741" type="qcurve" smooth="yes"/>
    </contour>
    <contour>
      <point x="1059" y="748" type="line" smooth="yes"/>
      <point x="1059" y="854" name="inserted"/>
      <point x="1011" y="1029"/>
      <point x="963" y="1097" type="qcurve"/>
      <point x="340" y="116" type="line"/>
      <point x="396" y="69" name="inserted"/>
      <point x="533" y="23"/>
      <point x="615" y="23" type="qcurve" smooth="yes"/>
      <point x="820" y="23"/>
      <point x="1059" y="309"/>
      <point x="1059" y="557" type="qcurve" smooth="yes"/>
    </contour>
  </outline>
</glyph>
<glyph name="Thorn" format="1">
  <advance width="1097"/>
  <unicode hex="00DE"/>
  <outline>
    <contour>
      <point x="229" y="1310" type="line"/>
      <point x="229" y="1029" type="line"/>
      <point x="568" y="1029" type="line" smooth="yes"/>
      <point x="753" y="1027"/>
      <point x="968" y="827"/>
      <point x="968" y="664" type="qcurve" smooth="yes"/>
      <point x="968" y="502"/>
      <point x="756" y="304"/>
      <point x="575" y="301" type="qcurve" smooth="yes"/>
      <point x="229" y="301" type="line"/>
      <point x="229" y="0" type="line"/>
      <point x="180" y="0" type="line"/>
      <point x="180" y="1310" type="line"/>
    </contour>
    <contour>
      <point x="229" y="980" type="line"/>
      <point x="229" y="349" type="line"/>
      <point x="563" y="349" type="line" smooth="yes"/>
      <point x="725" y="349"/>
      <point x="919" y="526"/>
      <point x="919" y="662" type="qcurve" smooth="yes"/>
      <point x="919" y="800"/>
      <point x="733" y="977"/>
      <point x="576" y="980" type="qcurve" smooth="yes"/>
    </contour>
  </outline>
</glyph>
<glyph name="germandbls" format="1">
  <advance width="1065"/>
  <unicode hex="00DF"/>
  <outline>
    <contour>
      <point x="196" y="-2" type="line"/>
      <point x="148" y="-2" type="line"/>
      <point x="148" y="1027" type="line" smooth="yes"/>
      <point x="148" y="1199"/>
      <point x="300" y="1379"/>
      <point x="444" y="1379" type="qcurve" smooth="yes"/>
      <point x="557" y="1379"/>
      <point x="724" y="1236"/>
      <point x="724" y="1129" type="qcurve" smooth="yes"/>
      <point x="724" y="1039"/>
      <point x="617" y="847"/>
      <point x="617" y="744" type="qcurve" smooth="yes"/>
      <point x="617" y="691"/>
      <point x="693" y="596"/>
      <point x="784" y="528" type="qcurve" smooth="yes" name="inserted"/>
      <point x="875" y="460"/>
      <point x="956" y="337"/>
      <point x="956" y="265" type="qcurve" smooth="yes"/>
      <point x="956" y="184"/>
      <point x="862" y="54"/>
      <point x="784" y="16" type="qcurve" smooth="yes" name="inserted"/>
      <point x="745" y="-2" name="inserted"/>
      <point x="666" y="-21"/>
      <point x="626" y="-21" type="qcurve" smooth="yes"/>
      <point x="544" y="-21"/>
      <point x="379" y="29"/>
      <point x="345" y="59" type="qcurve"/>
      <point x="367" y="103" type="line"/>
      <point x="407" y="72"/>
      <point x="553" y="27"/>
      <point x="618" y="27" type="qcurve" smooth="yes"/>
      <point x="740" y="27"/>
      <point x="907" y="169"/>
      <point x="907" y="273" type="qcurve" smooth="yes"/>
      <point x="907" y="332"/>
      <point x="833" y="434"/>
      <point x="739" y="503" type="qcurve" smooth="yes" name="inserted"/>
      <point x="646" y="571"/>
      <point x="568" y="682"/>
      <point x="568" y="746" type="qcurve" smooth="yes"/>
      <point x="568" y="846"/>
      <point x="670" y="1049"/>
      <point x="670" y="1131" type="qcurve" smooth="yes"/>
      <point x="670" y="1212"/>
      <point x="538" y="1331"/>
      <point x="453" y="1331" type="qcurve" smooth="yes"/>
      <point x="326" y="1331" name="inserted"/>
      <point x="198" y="1183"/>
      <point x="196" y="1036" type="qcurve"/>
    </contour>
  </outline>
</glyph>
<glyph name="ae" format="1">
  <advance width="1562"/>
  <unicode hex="00E6"/>
  <outline>
    <contour>
      <point x="1141" y="-20" type="qcurve" smooth="yes"/>
      <point x="1009" y="-20"/>
      <point x="828" y="102"/>
      <point x="781" y="205" type="qcurve"/>
      <point x="781" y="194" type="line"/>
      <point x="782" y="194" type="line"/>
      <point x="739" y="98"/>
      <point x="533" y="-20"/>
      <point x="403" y="-20" type="qcurve" smooth="yes"/>
      <point x="252" y="-20"/>
      <point x="84" y="128"/>
      <point x="84" y="254" type="qcurve" smooth="yes"/>
      <point x="84" y="396"/>
      <point x="283" y="563"/>
      <point x="464" y="565" type="qcurve" smooth="yes"/>
      <point x="732" y="565" type="line"/>
      <point x="732" y="646" type="line" smooth="yes"/>
      <point x="732" y="786"/>
      <point x="602" y="941"/>
      <point x="469" y="941" type="qcurve" smooth="yes"/>
      <point x="327" y="941"/>
      <point x="157" y="804"/>
      <point x="157" y="692" type="qcurve"/>
      <point x="109" y="698" type="line"/>
      <point x="109" y="829"/>
      <point x="310" y="990"/>
      <point x="469" y="990" type="qcurve" smooth="yes"/>
      <point x="596" y="990"/>
      <point x="753" y="857"/>
      <point x="774" y="731" type="qcurve"/>
      <point x="824" y="854"/>
      <point x="1011" y="990"/>
      <point x="1128" y="990" type="qcurve" smooth="yes"/>
      <point x="1295" y="990"/>
      <point x="1491" y="780"/>
      <point x="1491" y="588" type="qcurve" smooth="yes"/>
      <point x="1491" y="517" type="line"/>
      <point x="783" y="517" type="line"/>
      <point x="783" y="448" type="line" smooth="yes"/>
      <point x="783" y="252"/>
      <point x="971" y="29"/>
      <point x="1141" y="29" type="qcurve" smooth="yes"/>
      <point x="1233" y="29" name="inserted"/>
      <point x="1382" y="87"/>
      <point x="1440" y="146" type="qcurve"/>
      <point x="1467" y="108" type="line"/>
      <point x="1396" y="37"/>
      <point x="1240" y="-20"/>
    </contour>
    <contour>
      <point x="402" y="27" type="qcurve" smooth="yes"/>
      <point x="475" y="27"/>
      <point x="616" y="78"/>
      <point x="667" y="120" type="qcurve" smooth="yes" name="inserted"/>
      <point x="693" y="142" name="inserted"/>
      <point x="725" y="182"/>
      <point x="732" y="201" type="qcurve"/>
      <point x="732" y="516" type="line"/>
      <point x="461" y="516" type="line" smooth="yes"/>
      <point x="311" y="513"/>
      <point x="133" y="369"/>
      <point x="133" y="250" type="qcurve" smooth="yes"/>
      <point x="133" y="146"/>
      <point x="271" y="27"/>
    </contour>
    <contour>
      <point x="1128" y="941" type="qcurve" smooth="yes"/>
      <point x="990" y="941"/>
      <point x="803" y="737"/>
      <point x="786" y="567" type="qcurve"/>
      <point x="1443" y="567" type="line"/>
      <point x="1443" y="596" type="line" smooth="yes"/>
      <point x="1443" y="752"/>
      <point x="1274" y="941"/>
    </contour>
  </outline>
</glyph>
<glyph name="eth" format="1">
  <advance width="1065"/>
  <unicode hex="00F0"/>
  <outline>
    <contour>
      <point x="722" y="1175" type="line"/>
      <point x="831" y="1063"/>
      <point x="937" y="758"/>
      <point x="937" y="552" type="qcurve" smooth="yes"/>
      <point x="937" y="480" type="line" smooth="yes"/>
      <point x="937" y="336"/>
      <point x="844" y="109"/>
      <point x="759" y="44" type="qcurve" smooth="yes" name="inserted"/>
      <point x="716" y="12" name="inserted"/>
      <point x="620" y="-20"/>
      <point x="566" y="-20" type="qcurve" smooth="yes"/>
      <point x="450" y="-20"/>
      <point x="262" y="93"/>
      <point x="209" y="194" type="qcurve" smooth="yes" name="inserted"/>
      <point x="182" y="245" name="inserted"/>
      <point x="156" y="356"/>
      <point x="156" y="417" type="qcurve" smooth="yes"/>
      <point x="156" y="624"/>
      <point x="359" y="856"/>
      <point x="541" y="856" type="qcurve" smooth="yes"/>
      <point x="643" y="856"/>
      <point x="825" y="776"/>
      <point x="879" y="700" type="qcurve"/>
      <point x="861" y="851"/>
      <point x="757" y="1069"/>
      <point x="677" y="1150" type="qcurve"/>
      <point x="465" y="1032" type="line"/>
      <point x="440" y="1075" type="line"/>
      <point x="638" y="1186" type="line"/>
      <point x="576" y="1240" name="inserted"/>
      <point x="409" y="1334"/>
      <point x="304" y="1372" type="qcurve"/>
      <point x="322" y="1417" type="line"/>
      <point x="436" y="1376" name="inserted"/>
      <point x="617" y="1273"/>
      <point x="684" y="1211" type="qcurve"/>
      <point x="866" y="1313" type="line"/>
      <point x="892" y="1270" type="line"/>
    </contour>
    <contour>
      <point x="888" y="553" type="line"/>
      <point x="887" y="603" type="line"/>
      <point x="846" y="697"/>
      <point x="661" y="804"/>
      <point x="541" y="804" type="qcurve" smooth="yes"/>
      <point x="382" y="804"/>
      <point x="205" y="599"/>
      <point x="205" y="417" type="qcurve" smooth="yes"/>
      <point x="205" y="313"/>
      <point x="298" y="133"/>
      <point x="381" y="83" type="qcurve" smooth="yes" name="inserted"/>
      <point x="422" y="57" name="inserted"/>
      <point x="517" y="32"/>
      <point x="570" y="32" type="qcurve" smooth="yes"/>
      <point x="710" y="32"/>
      <point x="885" y="273"/>
      <point x="888" y="466" type="qcurve" smooth="yes"/>
    </contour>
  </outline>
</glyph>
<glyph name="divide" format="1">
  <advance width="1043"/>
  <unicode hex="00F7"/>
  <outline>
    <contour>
      <point x="964" y="642" type="line"/>
      <point x="66" y="642" type="line"/>
      <point x="66" y="688" type="line"/>
      <point x="964" y="688" type="line"/>
    </contour>
    <contour>
      <point x="568" y="942" type="line"/>
      <point x="482" y="942" type="line"/>
      <point x="482" y="1052" type="line"/>
      <point x="568" y="1052" type="line"/>
    </contour>
    <contour>
      <point x="568" y="241" type="line"/>
      <point x="482" y="241" type="line"/>
      <point x="482" y="351" type="line"/>
      <point x="568" y="351" type="line"/>
    </contour>
  </outline>
</glyph>
<glyph name="oslash" format="1">
  <advance width="1009"/>
  <unicode hex="00F8"/>
  <outline>
    <contour>
      <point x="78" y="491" type="line" smooth="yes"/>
      <point x="78" y="631"/>
      <point x="185" y="853"/>
      <point x="283" y="915" type="qcurve" smooth="yes" name="inserted"/>
      <point x="332" y="946" name="inserted"/>
      <point x="442" y="977"/>
      <point x="504" y="977" type="qcurve" smooth="yes"/>
      <point x="558" y="977" name="inserted"/>
      <point x="659" y="953"/>
      <point x="706" y="928" type="qcurve"/>
      <point x="781" y="1083" type="line"/>
      <point x="838" y="1083" type="line"/>
      <point x="749" y="900" type="line"/>
      <point x="834" y="837"/>
      <point x="931" y="626"/>
      <point x="931" y="491" type="qcurve" smooth="yes"/>
      <point x="931" y="454" type="line" smooth="yes"/>
      <point x="931" y="313"/>
      <point x="824" y="92"/>
      <point x="727" y="30" type="qcurve" smooth="yes" name="inserted"/>
      <point x="678" y="-1" name="inserted"/>
      <point x="567" y="-33"/>
      <point x="506" y="-33" type="qcurve" smooth="yes"/>
      <point x="455" y="-33" name="inserted"/>
      <point x="361" y="-11"/>
      <point x="317" y="11" type="qcurve"/>
      <point x="241" y="-145" type="line"/>
      <point x="185" y="-145" type="line"/>
      <point x="273" y="36" type="line"/>
      <point x="180" y="98"/>
      <point x="78" y="319"/>
      <point x="78" y="455" type="qcurve" smooth="yes"/>
    </contour>
    <contour>
      <point x="127" y="454" type="line" smooth="yes"/>
      <point x="127" y="335"/>
      <point x="216" y="139"/>
      <point x="294" y="82" type="qcurve"/>
      <point x="683" y="881" type="line"/>
      <point x="644" y="905" name="inserted"/>
      <point x="554" y="929"/>
      <point x="504" y="929" type="qcurve" smooth="yes"/>
      <point x="338" y="929"/>
      <point x="127" y="675"/>
      <point x="127" y="482" type="qcurve" smooth="yes"/>
    </contour>
    <contour>
      <point x="882" y="491" type="line" smooth="yes"/>
      <point x="882" y="601"/>
      <point x="800" y="792"/>
      <point x="725" y="852" type="qcurve"/>
      <point x="338" y="55" type="line"/>
      <point x="376" y="35" name="inserted"/>
      <point x="459" y="16"/>
      <point x="506" y="16" type="qcurve" smooth="yes"/>
      <point x="672" y="16"/>
      <point x="882" y="266"/>
      <point x="882" y="463" type="qcurve" smooth="yes"/>
    </contour>
  </outline>
</glyph>
<glyph name="thorn" format="1">
  <advance width="1009"/>
  <unicode hex="00FE"/>
  <outline>
    <contour>
      <point x="899" y="436" type="line" smooth="yes"/>
      <point x="899" y="209"/>
      <point x="703" y="-60"/>
      <point x="534" y="-60" type="qcurve" smooth="yes"/>
      <point x="423" y="-60"/>
      <point x="250" y="30"/>
      <point x="202" y="110" type="qcurve"/>
      <point x="202" y="-416" type="line"/>
      <point x="153" y="-416" type="line"/>
      <point x="153" y="1341" type="line"/>
      <point x="202" y="1341" type="line"/>
      <point x="202" y="759" type="line"/>
      <point x="252" y="851"/>
      <point x="423" y="950"/>
      <point x="532" y="950" type="qcurve" smooth="yes"/>
      <point x="703" y="950"/>
      <point x="899" y="688"/>
      <point x="899" y="452" type="qcurve" smooth="yes"/>
    </contour>
    <contour>
      <point x="850" y="455" type="qcurve" smooth="yes"/>
      <point x="850" y="665"/>
      <point x="683" y="902"/>
      <point x="533" y="902" type="qcurve" smooth="yes"/>
      <point x="410" y="902"/>
      <point x="239" y="775"/>
      <point x="202" y="656" type="qcurve"/>
      <point x="202" y="201" type="line"/>
      <point x="239" y="100"/>
      <point x="411" y="-11"/>
      <point x="535" y="-11" type="qcurve" smooth="yes"/>
      <point x="684" y="-11"/>
      <point x="850" y="227"/>
    </contour>
  </outline>
</glyph>
<glyph name="Aogonek" format="1">
  <advance width="1101"/>
  <unicode hex="0104"/>
  <outline>
    <contour>
      <point x="580" y="1271" type="line"/>
      <point x="1070" y="-40" type="line"/>
      <point x="969" y="-118"/>
      <point x="901" y="-214"/>
      <point x="901" y="-261" type="qcurve" smooth="yes"/>
      <point x="901" y="-304" name="inserted"/>
      <point x="943" y="-346"/>
      <point x="985" y="-346" type="qcurve" smooth="yes"/>
      <point x="1010" y="-346" name="inserted"/>
      <point x="1060" y="-329"/>
      <point x="1084" y="-312" type="qcurve"/>
      <point x="1098" y="-355" type="line"/>
      <point x="1073" y="-375" name="inserted"/>
      <point x="1016" y="-395"/>
      <point x="985" y="-395" type="qcurve" smooth="yes"/>
      <point x="924" y="-395"/>
      <point x="852" y="-329"/>
      <point x="852" y="-261" type="qcurve" smooth="yes"/>
      <point x="852" y="-212" name="inserted"/>
      <point x="933" y="-98"/>
      <point x="1014" y="-34" type="qcurve"/>
      <point x="870" y="352" type="line"/>
      <point x="229" y="352" type="line"/>
      <point x="83" y="-40" type="line"/>
      <point x="30" y="-40" type="line"/>
      <point x="520" y="1271" type="line"/>
    </contour>
    <contour>
      <point x="247" y="401" type="line"/>
      <point x="852" y="401" type="line"/>
      <point x="550" y="1212" type="line"/>
    </contour>
  </outline>
</glyph>
<glyph name="aogonek" format="1">
  <advance width="973"/>
  <unicode hex="0105"/>
  <outline>
    <contour>
      <point x="783" y="-36" type="qcurve"/>
      <point x="774" y="-4" name="inserted"/>
      <point x="766" y="84"/>
      <point x="766" y="139" type="qcurve"/>
      <point x="708" y="45"/>
      <point x="509" y="-58"/>
      <point x="383" y="-58" type="qcurve" smooth="yes"/>
      <point x="248" y="-58"/>
      <point x="83" y="89"/>
      <point x="83" y="207" type="qcurve" smooth="yes"/>
      <point x="83" y="341"/>
      <point x="325" y="502"/>
      <point x="526" y="504" type="qcurve" smooth="yes"/>
      <point x="766" y="504" type="line"/>
      <point x="766" y="646" type="line" smooth="yes"/>
      <point x="766" y="769"/>
      <point x="612" y="904"/>
      <point x="469" y="904" type="qcurve" smooth="yes"/>
      <point x="336" y="904"/>
      <point x="158" y="767"/>
      <point x="158" y="666" type="qcurve"/>
      <point x="109" y="668" type="line"/>
      <point x="109" y="787"/>
      <point x="318" y="952"/>
      <point x="469" y="952" type="qcurve" smooth="yes"/>
      <point x="626" y="952"/>
      <point x="812" y="795"/>
      <point x="815" y="652" type="qcurve" smooth="yes"/>
      <point x="815" y="186" type="line" smooth="yes"/>
      <point x="815" y="106" name="inserted"/>
      <point x="827" y="-3"/>
      <point x="840" y="-31" type="qcurve"/>
      <point x="840" y="-40" type="line"/>
      <point x="739" y="-118"/>
      <point x="671" y="-214"/>
      <point x="671" y="-261" type="qcurve" smooth="yes"/>
      <point x="671" y="-304" name="inserted"/>
      <point x="712" y="-346"/>
      <point x="754" y="-346" type="qcurve" smooth="yes"/>
      <point x="780" y="-346" name="inserted"/>
      <point x="829" y="-329"/>
      <point x="853" y="-312" type="qcurve"/>
      <point x="868" y="-355" type="line"/>
      <point x="842" y="-375" name="inserted"/>
      <point x="786" y="-395"/>
      <point x="754" y="-395" type="qcurve" smooth="yes"/>
      <point x="694" y="-395"/>
      <point x="622" y="-329"/>
      <point x="622" y="-261" type="qcurve" smooth="yes"/>
      <point x="622" y="-210" name="inserted"/>
      <point x="702" y="-98"/>
    </contour>
    <contour>
      <point x="383" y="-10" type="qcurve" smooth="yes"/>
      <point x="519" y="-10"/>
      <point x="716" y="113"/>
      <point x="766" y="223" type="qcurve"/>
      <point x="766" y="455" type="line"/>
      <point x="541" y="455" type="line" smooth="yes"/>
      <point x="437" y="455" name="inserted"/>
      <point x="277" y="413"/>
      <point x="221" y="372" type="qcurve" smooth="yes"/>
      <point x="176" y="338" name="inserted"/>
      <point x="131" y="254"/>
      <point x="131" y="204" type="qcurve" smooth="yes"/>
      <point x="131" y="114"/>
      <point x="274" y="-10"/>
    </contour>
  </outline>
</glyph>
<glyph name="dcroat" format="1">
  <advance width="1036"/>
  <unicode hex="0111"/>
  <outline>
    <contour>
      <point x="1000" y="1151" type="line"/>
      <point x="856" y="1151" type="line"/>
      <point x="856" y="-2" type="line"/>
      <point x="807" y="-2" type="line"/>
      <point x="807" y="154" type="line"/>
      <point x="758" y="71"/>
      <point x="585" y="-20"/>
      <point x="475" y="-20" type="qcurve" smooth="yes"/>
      <point x="306" y="-20"/>
      <point x="110" y="248"/>
      <point x="110" y="482" type="qcurve" smooth="yes"/>
      <point x="110" y="495" type="line" smooth="yes"/>
      <point x="110" y="728"/>
      <point x="306" y="990"/>
      <point x="477" y="990" type="qcurve" smooth="yes"/>
      <point x="587" y="990"/>
      <point x="755" y="891"/>
      <point x="807" y="793" type="qcurve"/>
      <point x="807" y="1151" type="line"/>
      <point x="472" y="1151" type="line"/>
      <point x="472" y="1200" type="line"/>
      <point x="807" y="1200" type="line"/>
      <point x="807" y="1380" type="line"/>
      <point x="856" y="1380" type="line"/>
      <point x="856" y="1200" type="line"/>
      <point x="1000" y="1200" type="line"/>
    </contour>
    <contour>
      <point x="160" y="476" type="qcurve" smooth="yes"/>
      <point x="160" y="269"/>
      <point x="324" y="29"/>
      <point x="474" y="29" type="qcurve" smooth="yes"/>
      <point x="595" y="29"/>
      <point x="766" y="136"/>
      <point x="807" y="239" type="qcurve"/>
      <point x="807" y="696" type="line"/>
      <point x="765" y="818" name="inserted"/>
      <point x="600" y="941"/>
      <point x="476" y="941" type="qcurve" smooth="yes"/>
      <point x="327" y="941"/>
      <point x="160" y="705"/>
    </contour>
  </outline>
</glyph>
<glyph name="Eogonek" format="1">
  <advance width="1049"/>
  <unicode hex="0118"/>
  <outline>
    <contour>
      <point x="886" y="610" type="line"/>
      <point x="229" y="610" type="line"/>
      <point x="229" y="9" type="line"/>
      <point x="977" y="9" type="line"/>
      <point x="977" y="-40" type="line"/>
      <point x="924" y="-40" type="line"/>
      <point x="824" y="-118"/>
      <point x="755" y="-214"/>
      <point x="755" y="-261" type="qcurve" smooth="yes"/>
      <point x="755" y="-304" name="inserted"/>
      <point x="797" y="-346"/>
      <point x="839" y="-346" type="qcurve" smooth="yes"/>
      <point x="864" y="-346" name="inserted"/>
      <point x="914" y="-329"/>
      <point x="938" y="-312" type="qcurve"/>
      <point x="952" y="-355" type="line"/>
      <point x="927" y="-375" name="inserted"/>
      <point x="870" y="-395"/>
      <point x="839" y="-395" type="qcurve" smooth="yes"/>
      <point x="779" y="-395"/>
      <point x="707" y="-329"/>
      <point x="707" y="-261" type="qcurve" smooth="yes"/>
      <point x="707" y="-211" name="inserted"/>
      <point x="784" y="-101"/>
      <point x="862" y="-40" type="qcurve"/>
      <point x="180" y="-40" type="line"/>
      <point x="180" y="1271" type="line"/>
      <point x="977" y="1271" type="line"/>
      <point x="977" y="1222" type="line"/>
      <point x="229" y="1222" type="line"/>
      <point x="229" y="659" type="line"/>
      <point x="886" y="659" type="line"/>
    </contour>
  </outline>
</glyph>
<glyph name="eogonek" format="1">
  <advance width="929"/>
  <unicode hex="0119"/>
  <outline>
    <contour>
      <point x="505" y="-52" type="qcurve" smooth="yes"/>
      <point x="387" y="-52"/>
      <point x="190" y="75"/>
      <point x="134" y="186" type="qcurve" smooth="yes" name="inserted"/>
      <point x="106" y="241" name="inserted"/>
      <point x="78" y="364"/>
      <point x="78" y="432" type="qcurve" smooth="yes"/>
      <point x="78" y="472" type="line" smooth="yes"/>
      <point x="78" y="607"/>
      <point x="186" y="832"/>
      <point x="281" y="895" type="qcurve" smooth="yes" name="inserted"/>
      <point x="328" y="927" name="inserted"/>
      <point x="431" y="958"/>
      <point x="487" y="958" type="qcurve" smooth="yes"/>
      <point x="650" y="958"/>
      <point x="857" y="726"/>
      <point x="857" y="537" type="qcurve" smooth="yes"/>
      <point x="857" y="486" type="line"/>
      <point x="127" y="486" type="line"/>
      <point x="127" y="433" type="line" smooth="yes"/>
      <point x="127" y="314"/>
      <point x="227" y="111"/>
      <point x="315" y="54" type="qcurve" smooth="yes" name="inserted"/>
      <point x="358" y="25" name="inserted"/>
      <point x="454" y="-4"/>
      <point x="505" y="-4" type="qcurve" smooth="yes"/>
      <point x="603" y="-4"/>
      <point x="741" y="62"/>
      <point x="794" y="130" type="qcurve"/>
      <point x="828" y="106" type="line"/>
      <point x="810" y="81" name="inserted"/>
      <point x="769" y="38"/>
      <point x="745" y="20" type="qcurve"/>
      <point x="749" y="19" type="line"/>
      <point x="648" y="-60"/>
      <point x="580" y="-156"/>
      <point x="580" y="-203" type="qcurve" smooth="yes"/>
      <point x="580" y="-246" name="inserted"/>
      <point x="621" y="-288"/>
      <point x="663" y="-288" type="qcurve" smooth="yes"/>
      <point x="689" y="-288" name="inserted"/>
      <point x="738" y="-271"/>
      <point x="762" y="-254" type="qcurve"/>
      <point x="777" y="-297" type="line"/>
      <point x="752" y="-317" name="inserted"/>
      <point x="695" y="-337"/>
      <point x="663" y="-337" type="qcurve" smooth="yes"/>
      <point x="603" y="-337"/>
      <point x="531" y="-271"/>
      <point x="531" y="-203" type="qcurve" smooth="yes"/>
      <point x="531" y="-166" name="inserted"/>
      <point x="577" y="-83"/>
      <point x="624" y="-36" type="qcurve"/>
      <point x="595" y="-44" name="inserted"/>
      <point x="536" y="-52"/>
    </contour>
    <contour>
      <point x="487" y="910" type="qcurve" smooth="yes"/>
      <point x="345" y="910"/>
      <point x="147" y="698"/>
      <point x="130" y="534" type="qcurve"/>
      <point x="808" y="534" type="line"/>
      <point x="808" y="546" type="line" smooth="yes"/>
      <point x="808" y="645"/>
      <point x="725" y="815"/>
      <point x="651" y="862" type="qcurve" smooth="yes" name="inserted"/>
      <point x="614" y="886" name="inserted"/>
      <point x="532" y="910"/>
    </contour>
  </outline>
</glyph>
<glyph name="dotlessi" format="1">
  <advance width="365"/>
  <unicode hex="0131"/>
  <outline>
    <contour>
      <point x="212" y="0" type="line"/>
      <point x="163" y="0" type="line"/>
      <point x="163" y="974" type="line"/>
      <point x="212" y="974" type="line"/>
    </contour>
  </outline>
</glyph>
<glyph name="Lslash" format="1">
  <advance width="955"/>
  <unicode hex="0141"/>
  <outline>
    <contour>
      <point x="222" y="712" type="line"/>
      <point x="538" y="812" type="line"/>
      <point x="538" y="761" type="line"/>
      <point x="222" y="661" type="line"/>
      <point x="222" y="49" type="line"/>
      <point x="895" y="49" type="line"/>
      <point x="895" y="0" type="line"/>
      <point x="173" y="0" type="line"/>
      <point x="173" y="644" type="line"/>
      <point x="7" y="592" type="line"/>
      <point x="7" y="644" type="line"/>
      <point x="173" y="696" type="line"/>
      <point x="173" y="1310" type="line"/>
      <point x="222" y="1310" type="line"/>
    </contour>
  </outline>
</glyph>
<glyph name="lslash" format="1">
  <advance width="455"/>
  <unicode hex="0142"/>
  <outline>
    <contour>
      <point x="257" y="765" type="line"/>
      <point x="438" y="837" type="line"/>
      <point x="438" y="784" type="line"/>
      <point x="257" y="712" type="line"/>
      <point x="257" y="0" type="line"/>
      <point x="209" y="0" type="line"/>
      <point x="209" y="692" type="line"/>
      <point x="15" y="616" type="line"/>
      <point x="15" y="669" type="line"/>
      <point x="209" y="745" type="line"/>
      <point x="209" y="1382" type="line"/>
      <point x="257" y="1382" type="line"/>
    </contour>
  </outline>
</glyph>
<glyph name="OE" format="1">
  <advance width="1686"/>
  <unicode hex="0152"/>
  <outline>
    <contour>
      <point x="1621" y="-2" type="line"/>
      <point x="865" y="-2" type="line"/>
      <point x="775" y="-12" name="inserted"/>
      <point x="627" y="-21"/>
      <point x="568" y="-21" type="qcurve" smooth="yes"/>
      <point x="433" y="-21"/>
      <point x="221" y="113"/>
      <point x="162" y="234" type="qcurve" smooth="yes" name="inserted"/>
      <point x="132" y="295" name="inserted"/>
      <point x="102" y="431"/>
      <point x="101" y="506" type="qcurve" smooth="yes"/>
      <point x="101" y="790" type="line" smooth="yes"/>
      <point x="101" y="945"/>
      <point x="217" y="1190"/>
      <point x="324" y="1258" type="qcurve" smooth="yes" name="inserted"/>
      <point x="378" y="1292" name="inserted"/>
      <point x="499" y="1326"/>
      <point x="566" y="1326" type="qcurve" smooth="yes"/>
      <point x="630" y="1326" name="inserted"/>
      <point x="779" y="1317"/>
      <point x="865" y="1308" type="qcurve"/>
      <point x="1621" y="1308" type="line"/>
      <point x="1621" y="1260" type="line"/>
      <point x="872" y="1260" type="line"/>
      <point x="872" y="696" type="line"/>
      <point x="1529" y="696" type="line"/>
      <point x="1529" y="648" type="line"/>
      <point x="872" y="648" type="line"/>
      <point x="872" y="47" type="line"/>
      <point x="1621" y="47" type="line"/>
    </contour>
    <contour>
      <point x="568" y="28" type="qcurve" smooth="yes"/>
      <point x="648" y="28" name="inserted"/>
      <point x="776" y="33"/>
      <point x="824" y="39" type="qcurve"/>
      <point x="824" y="1266" type="line"/>
      <point x="775" y="1272" name="inserted"/>
      <point x="647" y="1278"/>
      <point x="566" y="1278" type="qcurve" smooth="yes"/>
      <point x="378" y="1278"/>
      <point x="149" y="1012"/>
      <point x="149" y="785" type="qcurve" smooth="yes"/>
      <point x="149" y="516" type="line" smooth="yes"/>
      <point x="149" y="374"/>
      <point x="255" y="150"/>
      <point x="350" y="89" type="qcurve" smooth="yes" name="inserted"/>
      <point x="398" y="58" name="inserted"/>
      <point x="507" y="28"/>
    </contour>
  </outline>
</glyph>
<glyph name="oe" format="1">
  <advance width="1732"/>
  <unicode hex="0153"/>
  <outline>
    <contour>
      <point x="83" y="504" type="line" smooth="yes"/>
      <point x="83" y="643"/>
      <point x="190" y="866"/>
      <point x="288" y="928" type="qcurve" smooth="yes" name="inserted"/>
      <point x="336" y="959" name="inserted"/>
      <point x="447" y="990"/>
      <point x="509" y="990" type="qcurve" smooth="yes"/>
      <point x="658" y="990"/>
      <point x="871" y="819"/>
      <point x="914" y="670" type="qcurve"/>
      <point x="955" y="815"/>
      <point x="1162" y="990"/>
      <point x="1297" y="990" type="qcurve" smooth="yes"/>
      <point x="1463" y="990"/>
      <point x="1670" y="772"/>
      <point x="1670" y="588" type="qcurve" smooth="yes"/>
      <point x="1670" y="517" type="line"/>
      <point x="940" y="517" type="line"/>
      <point x="940" y="448" type="line" smooth="yes"/>
      <point x="940" y="335"/>
      <point x="1034" y="140"/>
      <point x="1118" y="84" type="qcurve" smooth="yes" name="inserted"/>
      <point x="1160" y="57" name="inserted"/>
      <point x="1251" y="29"/>
      <point x="1300" y="29" type="qcurve" smooth="yes"/>
      <point x="1404" y="29" name="inserted"/>
      <point x="1557" y="88"/>
      <point x="1607" y="147" type="qcurve"/>
      <point x="1634" y="109" type="line"/>
      <point x="1576" y="44" name="inserted"/>
      <point x="1409" y="-20"/>
      <point x="1300" y="-20" type="qcurve" smooth="yes"/>
      <point x="1167" y="-20"/>
      <point x="953" y="155"/>
      <point x="912" y="296" type="qcurve"/>
      <point x="869" y="146"/>
      <point x="653" y="-20"/>
      <point x="510" y="-20" type="qcurve" smooth="yes"/>
      <point x="387" y="-20"/>
      <point x="192" y="102"/>
      <point x="138" y="213" type="qcurve" smooth="yes" name="inserted"/>
      <point x="111" y="268" name="inserted"/>
      <point x="83" y="392"/>
      <point x="83" y="461" type="qcurve" smooth="yes"/>
    </contour>
    <contour>
      <point x="131" y="466" type="line" smooth="yes"/>
      <point x="131" y="345"/>
      <point x="228" y="142"/>
      <point x="314" y="85" type="qcurve" smooth="yes" name="inserted"/>
      <point x="357" y="57" name="inserted"/>
      <point x="455" y="29"/>
      <point x="510" y="29" type="qcurve" smooth="yes"/>
      <point x="677" y="29"/>
      <point x="887" y="279"/>
      <point x="887" y="476" type="qcurve" smooth="yes"/>
      <point x="887" y="504" type="line" smooth="yes"/>
      <point x="887" y="624"/>
      <point x="789" y="827"/>
      <point x="703" y="884" type="qcurve" smooth="yes" name="inserted"/>
      <point x="660" y="913" name="inserted"/>
      <point x="563" y="941"/>
      <point x="509" y="941" type="qcurve" smooth="yes"/>
      <point x="342" y="941"/>
      <point x="131" y="687"/>
      <point x="131" y="495" type="qcurve" smooth="yes"/>
    </contour>
    <contour>
      <point x="1297" y="941" type="qcurve" smooth="yes"/>
      <point x="1155" y="941"/>
      <point x="959" y="732"/>
      <point x="942" y="566" type="qcurve"/>
      <point x="1621" y="566" type="line"/>
      <point x="1621" y="596" type="line" smooth="yes"/>
      <point x="1621" y="748"/>
      <point x="1438" y="941"/>
    </contour>
  </outline>
</glyph>
<glyph name="Uogonek" format="1">
  <advance width="1229"/>
  <unicode hex="0172"/>
  <outline>
    <contour>
      <point x="1062" y="1274" type="line"/>
      <point x="1062" y="386" type="line" smooth="yes"/>
      <point x="1062" y="238"/>
      <point x="942" y="42"/>
      <point x="842" y="-6" type="qcurve"/>
      <point x="742" y="-85"/>
      <point x="673" y="-181"/>
      <point x="673" y="-228" type="qcurve" smooth="yes"/>
      <point x="673" y="-271" name="inserted"/>
      <point x="715" y="-313"/>
      <point x="757" y="-313" type="qcurve" smooth="yes"/>
      <point x="783" y="-313" name="inserted"/>
      <point x="832" y="-296"/>
      <point x="856" y="-279" type="qcurve"/>
      <point x="870" y="-322" type="line"/>
      <point x="845" y="-342" name="inserted"/>
      <point x="788" y="-362"/>
      <point x="757" y="-362" type="qcurve" smooth="yes"/>
      <point x="697" y="-362"/>
      <point x="625" y="-296"/>
      <point x="625" y="-228" type="qcurve" smooth="yes"/>
      <point x="625" y="-187" name="inserted"/>
      <point x="682" y="-94"/>
      <point x="739" y="-42" type="qcurve"/>
      <point x="708" y="-48" name="inserted"/>
      <point x="646" y="-54"/>
      <point x="615" y="-54" type="qcurve" smooth="yes"/>
      <point x="409" y="-54"/>
      <point x="167" y="179"/>
      <point x="167" y="383" type="qcurve" smooth="yes"/>
      <point x="167" y="1274" type="line"/>
      <point x="215" y="1274" type="line"/>
      <point x="215" y="389" type="line" smooth="yes"/>
      <point x="215" y="207"/>
      <point x="434" y="-6"/>
      <point x="615" y="-6" type="qcurve" smooth="yes" name="inserted"/>
      <point x="796" y="-6"/>
      <point x="1013" y="207"/>
      <point x="1013" y="390" type="qcurve" smooth="yes"/>
      <point x="1013" y="1274" type="line"/>
    </contour>
  </outline>
</glyph>
<glyph name="uogonek" format="1">
  <advance width="1009"/>
  <unicode hex="0173"/>
  <outline>
    <contour>
      <point x="856" y="-40" type="line"/>
      <point x="755" y="-118"/>
      <point x="687" y="-214"/>
      <point x="687" y="-261" type="qcurve" smooth="yes"/>
      <point x="687" y="-304" name="inserted"/>
      <point x="729" y="-346"/>
      <point x="770" y="-346" type="qcurve" smooth="yes"/>
      <point x="796" y="-346" name="inserted"/>
      <point x="846" y="-329"/>
      <point x="869" y="-312" type="qcurve"/>
      <point x="884" y="-355" type="line"/>
      <point x="859" y="-375" name="inserted"/>
      <point x="802" y="-395"/>
      <point x="770" y="-395" type="qcurve" smooth="yes"/>
      <point x="710" y="-395"/>
      <point x="638" y="-329"/>
      <point x="638" y="-261" type="qcurve" smooth="yes"/>
      <point x="638" y="-211" name="inserted"/>
      <point x="723" y="-95"/>
      <point x="807" y="-30" type="qcurve"/>
      <point x="807" y="118" type="line"/>
      <point x="764" y="37"/>
      <point x="599" y="-58"/>
      <point x="472" y="-58" type="qcurve" smooth="yes"/>
      <point x="312" y="-58"/>
      <point x="153" y="129"/>
      <point x="151" y="307" type="qcurve" smooth="yes"/>
      <point x="151" y="934" type="line"/>
      <point x="200" y="934" type="line"/>
      <point x="200" y="305" type="line" smooth="yes"/>
      <point x="202" y="150"/>
      <point x="338" y="-9"/>
      <point x="470" y="-9" type="qcurve" smooth="yes"/>
      <point x="609" y="-9"/>
      <point x="784" y="123"/>
      <point x="807" y="249" type="qcurve"/>
      <point x="807" y="934" type="line"/>
      <point x="857" y="934" type="line"/>
      <point x="857" y="-40" type="line"/>
    </contour>
  </outline>
</glyph>
<glyph name="florin" format="1">
  <advance width="580"/>
  <unicode hex="0192"/>
  <outline>
    <contour>
      <point x="534" y="881" type="line"/>
      <point x="276" y="881" type="line"/>
      <point x="276" y="-124" type="line" smooth="yes"/>
      <point x="276" y="-277"/>
      <point x="141" y="-437"/>
      <point x="20" y="-437" type="qcurve" smooth="yes"/>
      <point x="-5" y="-437" name="inserted"/>
      <point x="-55" y="-428"/>
      <point x="-81" y="-419" type="qcurve"/>
      <point x="-69" y="-372" type="line"/>
      <point x="-48" y="-380" name="inserted"/>
      <point x="-3" y="-388"/>
      <point x="20" y="-388" type="qcurve" smooth="yes"/>
      <point x="121" y="-388"/>
      <point x="228" y="-252"/>
      <point x="228" y="-124" type="qcurve" smooth="yes"/>
      <point x="228" y="881" type="line"/>
      <point x="59" y="881" type="line"/>
      <point x="59" y="930" type="line"/>
      <point x="228" y="930" type="line"/>
      <point x="228" y="1072" type="line" smooth="yes"/>
      <point x="229" y="1207"/>
      <point x="363" y="1358"/>
      <point x="482" y="1358" type="qcurve" smooth="yes"/>
      <point x="516" y="1358" name="inserted"/>
      <point x="573" y="1350"/>
      <point x="598" y="1342" type="qcurve"/>
      <point x="590" y="1296" type="line"/>
      <point x="567" y="1302" name="inserted"/>
      <point x="513" y="1309"/>
      <point x="483" y="1309" type="qcurve" smooth="yes"/>
      <point x="387" y="1309"/>
      <point x="276" y="1184"/>
      <point x="276" y="1069" type="qcurve" smooth="yes"/>
      <point x="276" y="930" type="line"/>
      <point x="534" y="930" type="line"/>
    </contour>
  </outline>
</glyph>
<glyph name="circumflex" format="1">
  <advance width="716"/>
  <unicode hex="02C6"/>
  <outline>
    <contour>
      <point x="590" y="1273" type="line"/>
      <point x="590" y="1264" type="line"/>
      <point x="529" y="1264" type="line"/>
      <point x="361" y="1440" type="line"/>
      <point x="194" y="1264" type="line"/>
      <point x="137" y="1264" type="line"/>
      <point x="137" y="1277" type="line"/>
      <point x="344" y="1492" type="line"/>
      <point x="380" y="1492" type="line"/>
    </contour>
  </outline>
</glyph>
<glyph name="caron" format="1">
  <advance width="688"/>
  <unicode hex="02C7"/>
  <outline>
    <contour>
      <point x="347" y="1284" type="line"/>
      <point x="522" y="1480" type="line"/>
      <point x="570" y="1480" type="line"/>
      <point x="570" y="1468" type="line"/>
      <point x="374" y="1243" type="line"/>
      <point x="320" y="1243" type="line"/>
      <point x="122" y="1470" type="line"/>
      <point x="122" y="1480" type="line"/>
      <point x="174" y="1480" type="line"/>
    </contour>
  </outline>
</glyph>
<glyph name="breve" format="1">
  <advance width="771"/>
  <unicode hex="02D8"/>
  <outline>
    <contour>
      <point x="634" y="1461" type="line"/>
      <point x="634" y="1360"/>
      <point x="498" y="1238"/>
      <point x="383" y="1238" type="qcurve" smooth="yes"/>
      <point x="268" y="1238"/>
      <point x="132" y="1360"/>
      <point x="132" y="1461" type="qcurve"/>
      <point x="181" y="1461" type="line"/>
      <point x="181" y="1379"/>
      <point x="284" y="1288"/>
      <point x="383" y="1288" type="qcurve" smooth="yes"/>
      <point x="480" y="1288"/>
      <point x="585" y="1381"/>
      <point x="585" y="1461" type="qcurve"/>
    </contour>
  </outline>
</glyph>
<glyph name="dotaccent" format="1">
  <advance width="380"/>
  <unicode hex="02D9"/>
  <outline>
    <contour>
      <point x="140" y="1392" type="qcurve" smooth="yes"/>
      <point x="140" y="1412"/>
      <point x="169" y="1442"/>
      <point x="190" y="1442" type="qcurve" smooth="yes" name="inserted"/>
      <point x="211" y="1442"/>
      <point x="240" y="1412"/>
      <point x="240" y="1392" type="qcurve" smooth="yes" name="inserted"/>
      <point x="240" y="1371"/>
      <point x="211" y="1342"/>
      <point x="190" y="1342" type="qcurve" smooth="yes" name="inserted"/>
      <point x="169" y="1342"/>
      <point x="140" y="1371"/>
    </contour>
  </outline>
</glyph>
<glyph name="ring" format="1">
  <advance width="527"/>
  <unicode hex="02DA"/>
  <outline>
    <contour>
      <point x="257" y="1522" type="qcurve" smooth="yes"/>
      <point x="321" y="1522"/>
      <point x="410" y="1430"/>
      <point x="410" y="1365" type="qcurve" smooth="yes" name="inserted"/>
      <point x="410" y="1300"/>
      <point x="321" y="1212"/>
      <point x="257" y="1212" type="qcurve" smooth="yes"/>
      <point x="194" y="1212"/>
      <point x="103" y="1298"/>
      <point x="103" y="1365" type="qcurve" smooth="yes" name="inserted"/>
      <point x="103" y="1433"/>
      <point x="194" y="1522"/>
    </contour>
    <contour>
      <point x="151" y="1365" type="qcurve" smooth="yes"/>
      <point x="151" y="1318"/>
      <point x="211" y="1261"/>
      <point x="257" y="1261" type="qcurve" smooth="yes" name="inserted"/>
      <point x="302" y="1261"/>
      <point x="362" y="1318"/>
      <point x="362" y="1365" type="qcurve" smooth="yes"/>
      <point x="362" y="1414"/>
      <point x="302" y="1473"/>
      <point x="257" y="1473" type="qcurve" smooth="yes" name="inserted"/>
      <point x="211" y="1473"/>
      <point x="151" y="1414"/>
    </contour>
  </outline>
</glyph>
<glyph name="ogonek" format="1">
  <advance width="424"/>
  <unicode hex="02DB"/>
  <outline>
    <contour>
      <point x="282" y="-39" type="line"/>
      <point x="181" y="-108"/>
      <point x="113" y="-204"/>
      <point x="113" y="-251" type="qcurve" smooth="yes"/>
      <point x="113" y="-294" name="inserted"/>
      <point x="154" y="-336"/>
      <point x="196" y="-336" type="qcurve" smooth="yes"/>
      <point x="222" y="-336" name="inserted"/>
      <point x="271" y="-319"/>
      <point x="295" y="-302" type="qcurve"/>
      <point x="310" y="-345" type="line"/>
      <point x="284" y="-365" name="inserted"/>
      <point x="228" y="-385"/>
      <point x="196" y="-385" type="qcurve" smooth="yes"/>
      <point x="136" y="-385"/>
      <point x="64" y="-319"/>
      <point x="64" y="-251" type="qcurve" smooth="yes"/>
      <point x="64" y="-198" name="inserted"/>
      <point x="153" y="-83"/>
      <point x="243" y="-21" type="qcurve"/>
    </contour>
  </outline>
</glyph>
<glyph name="tilde" format="1">
  <advance width="735"/>
  <unicode hex="02DC"/>
  <outline>
    <contour>
      <point x="656" y="1453" type="line"/>
      <point x="656" y="1380"/>
      <point x="565" y="1286"/>
      <point x="498" y="1286" type="qcurve" smooth="yes"/>
      <point x="425" y="1286"/>
      <point x="295" y="1399"/>
      <point x="239" y="1399" type="qcurve" smooth="yes"/>
      <point x="189" y="1399"/>
      <point x="131" y="1337"/>
      <point x="131" y="1286" type="qcurve"/>
      <point x="81" y="1286" type="line"/>
      <point x="81" y="1358"/>
      <point x="171" y="1447"/>
      <point x="239" y="1447" type="qcurve" smooth="yes"/>
      <point x="310" y="1447"/>
      <point x="446" y="1336"/>
      <point x="498" y="1336" type="qcurve" smooth="yes"/>
      <point x="546" y="1336"/>
      <point x="607" y="1400"/>
      <point x="607" y="1453" type="qcurve"/>
    </contour>
  </outline>
</glyph>
<glyph name="hungarumlaut" format="1">
  <advance width="705"/>
  <unicode hex="02DD"/>
  <outline>
    <contour>
      <point x="596" y="1506" type="line"/>
      <point x="668" y="1506" type="line"/>
      <point x="409" y="1232" type="line"/>
      <point x="343" y="1232" type="line"/>
    </contour>
    <contour>
      <point x="344" y="1506" type="line"/>
      <point x="412" y="1506" type="line"/>
      <point x="194" y="1232" type="line"/>
      <point x="131" y="1232" type="line"/>
    </contour>
  </outline>
</glyph>
<glyph name="pi" format="1">
  <advance width="1097"/>
  <unicode hex="03C0"/>
  <outline>
    <contour>
      <point x="1017" y="924" type="line"/>
      <point x="824" y="924" type="line"/>
      <point x="824" y="243" type="line" smooth="yes"/>
      <point x="824" y="140"/>
      <point x="891" y="41"/>
      <point x="970" y="41" type="qcurve" smooth="yes"/>
      <point x="990" y="41" name="inserted"/>
      <point x="1038" y="45"/>
      <point x="1067" y="49" type="qcurve"/>
      <point x="1075" y="3" type="line"/>
      <point x="1060" y="-3" name="inserted"/>
      <point x="1009" y="-8"/>
      <point x="973" y="-8" type="qcurve" smooth="yes"/>
      <point x="867" y="-8"/>
      <point x="775" y="110"/>
      <point x="774" y="237" type="qcurve" smooth="yes"/>
      <point x="774" y="924" type="line"/>
      <point x="280" y="924" type="line"/>
      <point x="280" y="-1" type="line"/>
      <point x="231" y="-1" type="line"/>
      <point x="231" y="924" type="line"/>
      <point x="56" y="924" type="line"/>
      <point x="56" y="973" type="line"/>
      <point x="1017" y="973" type="line"/>
    </contour>
  </outline>
</glyph>
<glyph name="adeva" format="1">
  <advance width="1370"/>
  <unicode hex="0905"/>
  <outline>
    <contour>
      <point x="224" y="703" type="qcurve"/>
      <point x="224" y="751" type="line"/>
      <point x="460" y="755"/>
      <point x="621" y="920"/>
      <point x="621" y="1023" type="qcurve" smooth="yes"/>
      <point x="621" y="1114"/>
      <point x="485" y="1235"/>
      <point x="376" y="1235" type="qcurve" smooth="yes"/>
      <point x="313" y="1235"/>
      <point x="203" y="1210"/>
      <point x="148" y="1176" type="qcurve"/>
      <point x="140" y="1227" type="line"/>
      <point x="200" y="1261"/>
      <point x="313" y="1284"/>
      <point x="376" y="1284" type="qcurve" smooth="yes"/>
      <point x="500" y="1284"/>
      <point x="670" y="1136"/>
      <point x="670" y="1020" type="qcurve" smooth="yes"/>
      <point x="670" y="893"/>
      <point x="471" y="705"/>
    </contour>
    <contour>
      <point x="374" y="763" type="line"/>
      <point x="537" y="758"/>
      <point x="704" y="555"/>
      <point x="704" y="434" type="qcurve" smooth="yes"/>
      <point x="704" y="291"/>
      <point x="514" y="123"/>
      <point x="371" y="123" type="qcurve" smooth="yes"/>
      <point x="296" y="123"/>
      <point x="135" y="164"/>
      <point x="80" y="187" type="qcurve"/>
      <point x="88" y="237" type="line"/>
      <point x="148" y="207"/>
      <point x="297" y="172"/>
      <point x="371" y="172" type="qcurve" smooth="yes"/>
      <point x="497" y="172"/>
      <point x="657" y="321"/>
      <point x="657" y="440" type="qcurve" smooth="yes"/>
      <point x="657" y="539"/>
      <point x="510" y="725"/>
      <point x="357" y="726" type="qcurve"/>
    </contour>
    <contour>
      <point x="1066" y="1255" type="line"/>
      <point x="1115" y="1255" type="line"/>
      <point x="1115" y="0" type="line"/>
      <point x="1066" y="0" type="line"/>
    </contour>
    <contour>
      <point x="1400" y="1225" type="line"/>
      <point x="808" y="1225" type="line"/>
      <point x="808" y="1274" type="line"/>
      <point x="1400" y="1274" type="line"/>
    </contour>
    <contour>
      <point x="623" y="651" type="line"/>
      <point x="1112" y="651" type="line"/>
      <point x="1112" y="602" type="line"/>
      <point x="633" y="602" type="line"/>
    </contour>
  </outline>
</glyph>
<glyph name="ideva" format="1">
  <advance width="991"/>
  <unicode hex="0907"/>
  <outline>
    <contour>
      <point x="1021" y="1225" type="line"/>
      <point x="-30" y="1225" type="line"/>
      <point x="-30" y="1274" type="line"/>
      <point x="1021" y="1274" type="line"/>
    </contour>
    <contour>
      <point x="548" y="-195" type="line"/>
      <point x="340" y="93" type="line"/>
      <point x="410" y="59" type="line"/>
      <point x="368" y="59" type="line" smooth="yes"/>
      <point x="295" y="59"/>
      <point x="174" y="103"/>
      <point x="174" y="138" type="qcurve" smooth="yes"/>
      <point x="174" y="173"/>
      <point x="212" y="208"/>
      <point x="238" y="208" type="qcurve" smooth="yes"/>
      <point x="274" y="208"/>
      <point x="355" y="150"/>
      <point x="396" y="93" type="qcurve"/>
      <point x="402" y="85" type="line"/>
      <point x="586" y="-171" type="line"/>
    </contour>
    <contour>
      <point x="440" y="952" type="qcurve" smooth="yes"/>
      <point x="710" y="952" type="line"/>
      <point x="686" y="930" type="line"/>
      <point x="686" y="1249" type="line"/>
      <point x="736" y="1249" type="line"/>
      <point x="736" y="903" type="line"/>
      <point x="439" y="903" type="line" smooth="yes"/>
      <point x="310" y="903"/>
      <point x="175" y="807"/>
      <point x="175" y="721" type="qcurve" smooth="yes"/>
      <point x="175" y="649"/>
      <point x="269" y="539"/>
      <point x="337" y="524" type="qcurve"/>
      <point x="297" y="524" type="line"/>
      <point x="348" y="561"/>
      <point x="493" y="606"/>
      <point x="559" y="606" type="qcurve" smooth="yes"/>
      <point x="683" y="606"/>
      <point x="845" y="467"/>
      <point x="845" y="357" type="qcurve" smooth="yes"/>
      <point x="845" y="220"/>
      <point x="626" y="55"/>
      <point x="457" y="55" type="qcurve" smooth="yes"/>
      <point x="395" y="55"/>
      <point x="291" y="84"/>
      <point x="256" y="96" type="qcurve"/>
      <point x="263" y="144" type="line"/>
      <point x="289" y="129"/>
      <point x="391" y="104"/>
      <point x="456" y="104" type="qcurve" smooth="yes"/>
      <point x="604" y="104"/>
      <point x="795" y="241"/>
      <point x="795" y="357" type="qcurve" smooth="yes"/>
      <point x="795" y="450"/>
      <point x="658" y="557"/>
      <point x="561" y="557" type="qcurve" smooth="yes"/>
      <point x="490" y="557"/>
      <point x="359" y="512"/>
      <point x="321" y="482" type="qcurve"/>
      <point x="313" y="482" type="line"/>
      <point x="240" y="501"/>
      <point x="126" y="637"/>
      <point x="126" y="725" type="qcurve" smooth="yes"/>
      <point x="126" y="827"/>
      <point x="288" y="952"/>
    </contour>
    <contour>
      <point x="131" y="-10" type="move" name="x51"/>
    </contour>
  </outline>
</glyph>
<glyph name="udeva" format="1">
  <advance width="889"/>
  <unicode hex="0909"/>
  <outline>
    <contour>
      <point x="-30" y="1225" type="line"/>
      <point x="-30" y="1274" type="line"/>
      <point x="919" y="1274" type="line"/>
      <point x="919" y="1225" type="line"/>
    </contour>
    <contour>
      <point x="201.0" y="686.0" type="line"/>
      <point x="201.0" y="735.0" type="line"/>
      <point x="205" y="735" type="line" smooth="yes"/>
      <point x="415" y="735"/>
      <point x="602.0" y="872.0"/>
      <point x="602.0" y="1003.0" type="qcurve" smooth="yes"/>
      <point x="602.0" y="1104.0"/>
      <point x="480" y="1226"/>
      <point x="341" y="1226" type="qcurve" smooth="yes"/>
      <point x="103.0" y="1226.0" type="line"/>
      <point x="95.0" y="1273.0" type="line"/>
      <point x="341" y="1273" type="line" smooth="yes"/>
      <point x="485" y="1273"/>
      <point x="651.0" y="1126.0"/>
      <point x="651.0" y="1000.0" type="qcurve" smooth="yes"/>
      <point x="651.0" y="846.0"/>
      <point x="431" y="686"/>
      <point x="209" y="686" type="qcurve" smooth="yes"/>
    </contour>
    <contour>
      <point x="347" y="736" type="line"/>
      <point x="528" y="741"/>
      <point x="736" y="543"/>
      <point x="736" y="412" type="qcurve" smooth="yes"/>
      <point x="736" y="259"/>
      <point x="547" y="81"/>
      <point x="374" y="81" type="qcurve" smooth="yes"/>
      <point x="289" y="81"/>
      <point x="144" y="124"/>
      <point x="65" y="157" type="qcurve"/>
      <point x="73" y="207" type="line"/>
      <point x="157" y="167"/>
      <point x="300" y="130"/>
      <point x="374" y="130" type="qcurve" smooth="yes"/>
      <point x="532" y="130"/>
      <point x="687" y="289"/>
      <point x="687" y="418" type="qcurve" smooth="yes"/>
      <point x="687" y="527"/>
      <point x="507" y="696"/>
      <point x="330" y="696" type="qcurve"/>
    </contour>
    <contour>
      <point x="507.0" y="1256.0" type="move" name="top"/>
    </contour>
  </outline>
</glyph>
<glyph name="uudeva" format="1">
  <advance width="1316"/>
  <unicode hex="090A"/>
  <outline>
    <contour>
      <point x="798" y="1225" type="line"/>
      <point x="798" y="1274" type="line"/>
      <point x="1346" y="1274" type="line"/>
      <point x="1346" y="1225" type="line"/>
    </contour>
    <contour>
      <point x="589" y="669" type="line"/>
      <point x="650" y="721"/>
      <point x="802" y="781"/>
      <point x="896" y="781" type="qcurve" smooth="yes"/>
      <point x="1019" y="781"/>
      <point x="1197" y="615"/>
      <point x="1197" y="472" type="qcurve" smooth="yes"/>
      <point x="1197" y="375"/>
      <point x="1122" y="220"/>
      <point x="1070" y="146" type="qcurve"/>
      <point x="1017" y="159" type="line"/>
      <point x="1078" y="237"/>
      <point x="1148" y="392"/>
      <point x="1148" y="476" type="qcurve" smooth="yes"/>
      <point x="1148" y="595"/>
      <point x="999" y="732"/>
      <point x="896" y="732" type="qcurve" smooth="yes"/>
      <point x="809" y="732"/>
      <point x="676" y="683"/>
      <point x="609" y="629" type="qcurve"/>
    </contour>
    <component base="udeva"/>
    <contour>
      <point x="599.0" y="1256.0" type="move" name="top"/>
    </contour>
  </outline>
</glyph>
<glyph name="rvocalicdeva" format="1">
  <advance width="1531"/>
  <unicode hex="090B"/>
  <outline>
    <contour>
      <point x="938" y="1225" type="line"/>
      <point x="938" y="1274" type="line"/>
      <point x="1561" y="1274" type="line"/>
      <point x="1561" y="1225" type="line"/>
    </contour>
    <contour>
      <point x="1167" y="729" type="line"/>
      <point x="1269" y="633"/>
      <point x="1359" y="464"/>
      <point x="1359" y="393" type="qcurve" smooth="yes"/>
      <point x="1359" y="294"/>
      <point x="1237" y="187"/>
      <point x="1152" y="187" type="qcurve" smooth="yes"/>
      <point x="1126" y="187"/>
      <point x="1094" y="189"/>
      <point x="1070" y="194" type="qcurve"/>
      <point x="1066" y="236" type="line"/>
      <point x="1082" y="233"/>
      <point x="1111" y="230"/>
      <point x="1131" y="230" type="qcurve" smooth="yes"/>
      <point x="1213" y="230"/>
      <point x="1310" y="314"/>
      <point x="1310" y="392" type="qcurve" smooth="yes"/>
      <point x="1310" y="456"/>
      <point x="1211" y="630"/>
      <point x="1124" y="697" type="qcurve"/>
    </contour>
    <contour>
      <point x="1203" y="729" type="qcurve" smooth="yes"/>
      <point x="1143" y="669"/>
      <point x="910" y="599"/>
      <point x="766" y="599" type="qcurve"/>
      <point x="769" y="647" type="line"/>
      <point x="887" y="647"/>
      <point x="1090" y="702"/>
      <point x="1147" y="745" type="qcurve"/>
      <point x="1114" y="703" type="line"/>
      <point x="1091" y="727"/>
      <point x="1071" y="755"/>
      <point x="1071" y="774" type="qcurve" smooth="yes"/>
      <point x="1071" y="798"/>
      <point x="1114" y="830"/>
      <point x="1150" y="830" type="qcurve" smooth="yes"/>
      <point x="1181" y="830"/>
      <point x="1222" y="797"/>
      <point x="1222" y="775" type="qcurve" smooth="yes"/>
      <point x="1222" y="761"/>
      <point x="1214" y="740"/>
    </contour>
    <contour>
      <point x="768" y="582" type="line"/>
      <point x="227" y="257" type="line"/>
      <point x="199" y="298" type="line"/>
      <point x="749" y="626" type="line"/>
    </contour>
    <contour>
      <point x="-30" y="1225" type="line"/>
      <point x="-30" y="1274" type="line"/>
      <point x="1078" y="1274" type="line"/>
      <point x="1078" y="1225" type="line"/>
    </contour>
    <contour>
      <point x="76" y="840" type="line"/>
      <point x="125" y="868"/>
      <point x="230" y="900"/>
      <point x="288" y="900" type="qcurve" smooth="yes"/>
      <point x="340" y="900"/>
      <point x="472" y="846"/>
      <point x="553" y="793" type="qcurve" smooth="yes"/>
      <point x="755" y="661" type="line"/>
      <point x="755" y="602" type="line"/>
      <point x="513" y="758" type="line" smooth="yes"/>
      <point x="439" y="806"/>
      <point x="329" y="849"/>
      <point x="286" y="849" type="qcurve" smooth="yes"/>
      <point x="235" y="849"/>
      <point x="143" y="821"/>
      <point x="86" y="791" type="qcurve"/>
    </contour>
    <contour>
      <point x="736" y="1253" type="line"/>
      <point x="784" y="1253" type="line"/>
      <point x="784" y="0" type="line"/>
      <point x="736" y="0" type="line"/>
    </contour>
    <contour>
      <point x="720" y="1265" type="move" name="mark0"/>
    </contour>
  </outline>
</glyph>
<glyph name="lvocalicdeva" format="1">
  <advance width="1378"/>
  <unicode hex="090C"/>
  <outline>
    <contour>
      <point x="1074" y="1235" type="line"/>
      <point x="1123" y="1235" type="line"/>
      <point x="1123" y="801" type="line"/>
      <point x="1074" y="801" type="line"/>
    </contour>
    <contour>
      <point x="-30" y="1225" type="line"/>
      <point x="-30" y="1274" type="line"/>
      <point x="1408" y="1274" type="line"/>
      <point x="1408" y="1225" type="line"/>
    </contour>
    <contour>
      <point x="709" y="544" type="qcurve"/>
      <point x="661" y="509" type="line"/>
      <point x="647" y="664"/>
      <point x="477" y="815"/>
      <point x="381" y="815" type="qcurve" smooth="yes"/>
      <point x="291" y="815"/>
      <point x="154" y="671"/>
      <point x="154" y="546" type="qcurve" smooth="yes"/>
      <point x="154" y="419"/>
      <point x="259" y="206"/>
      <point x="366" y="82" type="qcurve"/>
      <point x="323" y="62" type="line"/>
      <point x="210" y="195"/>
      <point x="105" y="417"/>
      <point x="105" y="550" type="qcurve" smooth="yes"/>
      <point x="105" y="690"/>
      <point x="261" y="865"/>
      <point x="377" y="865" type="qcurve" smooth="yes"/>
      <point x="500" y="865"/>
      <point x="689" y="702"/>
    </contour>
    <contour>
      <point x="1217" y="419" type="line"/>
      <point x="1184" y="398" type="line"/>
      <point x="1192" y="432"/>
      <point x="1200" y="506"/>
      <point x="1200" y="546" type="qcurve" smooth="yes"/>
      <point x="1200" y="671"/>
      <point x="1062" y="817"/>
      <point x="965" y="817" type="qcurve" smooth="yes"/>
      <point x="868" y="817"/>
      <point x="709" y="649"/>
      <point x="709" y="490" type="qcurve" smooth="yes"/>
      <point x="709" y="368" type="line"/>
      <point x="660" y="368" type="line"/>
      <point x="660" y="506" type="line" smooth="yes"/>
      <point x="660" y="672"/>
      <point x="840" y="865"/>
      <point x="969" y="865" type="qcurve" smooth="yes"/>
      <point x="1088" y="865"/>
      <point x="1249" y="690"/>
      <point x="1249" y="550" type="qcurve" smooth="yes"/>
      <point x="1249" y="508"/>
      <point x="1238" y="412"/>
      <point x="1228" y="374" type="qcurve"/>
      <point x="1169" y="374" type="line" smooth="yes"/>
      <point x="1061" y="374"/>
      <point x="962" y="283"/>
      <point x="962" y="214" type="qcurve" smooth="yes"/>
      <point x="962" y="143"/>
      <point x="1066" y="50"/>
      <point x="1151" y="50" type="qcurve" smooth="yes"/>
      <point x="1182" y="50"/>
      <point x="1243" y="60"/>
      <point x="1278" y="70" type="qcurve"/>
      <point x="1285" y="27" type="line"/>
      <point x="1254" y="17"/>
      <point x="1188" y="7"/>
      <point x="1152" y="7" type="qcurve" smooth="yes"/>
      <point x="1048" y="7"/>
      <point x="914" y="122"/>
      <point x="914" y="217" type="qcurve" smooth="yes"/>
      <point x="914" y="303"/>
      <point x="1045" y="419"/>
      <point x="1164" y="419" type="qcurve" smooth="yes"/>
    </contour>
    <contour>
      <point x="900" y="1265" type="move" name="mark0"/>
    </contour>
  </outline>
</glyph>
<glyph name="edeva" format="1">
  <advance width="1073"/>
  <unicode hex="090F"/>
  <outline>
    <contour>
      <point x="818" y="1250" type="line"/>
      <point x="818" y="847" type="line" smooth="yes"/>
      <point x="818" y="717"/>
      <point x="740" y="552"/>
      <point x="656" y="497" type="qcurve"/>
      <point x="622" y="537" type="line"/>
      <point x="705" y="590"/>
      <point x="769" y="740"/>
      <point x="769" y="863" type="qcurve" smooth="yes"/>
      <point x="769" y="1250" type="line"/>
    </contour>
    <contour>
      <point x="-30" y="1225" type="line"/>
      <point x="-30" y="1274" type="line"/>
      <point x="1103" y="1274" type="line"/>
      <point x="1103" y="1225" type="line"/>
    </contour>
    <contour>
      <point x="190" y="1250" type="line"/>
      <point x="239" y="1250" type="line"/>
      <point x="239" y="729" type="line" smooth="yes"/>
      <point x="239" y="451"/>
      <point x="498" y="113"/>
      <point x="827" y="65" type="qcurve"/>
      <point x="805" y="17" type="line"/>
      <point x="459" y="73"/>
      <point x="190" y="436"/>
      <point x="190" y="733" type="qcurve" smooth="yes"/>
    </contour>
    <contour>
      <point x="-46" y="-10" type="move" name="x44"/>
    </contour>
    <contour>
      <point x="806" y="1264" type="move" name="mark0"/>
    </contour>
  </outline>
</glyph>
<glyph name="kadeva" format="1">
  <advance width="1468"/>
  <unicode hex="0915"/>
  <outline>
    <contour>
      <point x="-30" y="1225" type="line"/>
      <point x="-30" y="1274" type="line"/>
      <point x="1498" y="1274" type="line"/>
      <point x="1498" y="1225" type="line"/>
    </contour>
    <contour>
      <point x="706" y="1236" type="line"/>
      <point x="755" y="1236" type="line"/>
      <point x="755" y="0" type="line"/>
      <point x="706" y="0" type="line"/>
    </contour>
    <contour>
      <point x="713" y="377" type="line"/>
      <point x="666" y="329"/>
      <point x="519" y="262"/>
      <point x="412" y="262" type="qcurve" smooth="yes"/>
      <point x="292" y="262"/>
      <point x="96" y="432"/>
      <point x="96" y="593" type="qcurve" smooth="yes"/>
      <point x="96" y="739"/>
      <point x="274" y="897"/>
      <point x="389" y="897" type="qcurve" smooth="yes"/>
      <point x="493" y="897"/>
      <point x="652" y="843"/>
      <point x="712" y="803" type="qcurve"/>
      <point x="712" y="749" type="line"/>
      <point x="640" y="798"/>
      <point x="493" y="848"/>
      <point x="394" y="848" type="qcurve" smooth="yes"/>
      <point x="290" y="848"/>
      <point x="145" y="713"/>
      <point x="145" y="587" type="qcurve" smooth="yes"/>
      <point x="145" y="453"/>
      <point x="310" y="311"/>
      <point x="409" y="311" type="qcurve" smooth="yes"/>
      <point x="508" y="311"/>
      <point x="652" y="372"/>
      <point x="713" y="435" type="qcurve"/>
    </contour>
    <contour>
      <point x="749" y="773" type="line"/>
      <point x="809" y="816"/>
      <point x="948" y="862"/>
      <point x="1033" y="862" type="qcurve" smooth="yes"/>
      <point x="1156" y="862"/>
      <point x="1337" y="696"/>
      <point x="1337" y="553" type="qcurve" smooth="yes"/>
      <point x="1337" y="456"/>
      <point x="1262" y="272"/>
      <point x="1220" y="217" type="qcurve"/>
      <point x="1167" y="230" type="line"/>
      <point x="1218" y="289"/>
      <point x="1288" y="473"/>
      <point x="1288" y="557" type="qcurve" smooth="yes"/>
      <point x="1288" y="676"/>
      <point x="1136" y="813"/>
      <point x="1033" y="813" type="qcurve" smooth="yes"/>
      <point x="952" y="813"/>
      <point x="816" y="767"/>
      <point x="749" y="720" type="qcurve"/>
    </contour>
    <contour>
      <point x="678.0" y="-18.0" type="move" name="btm"/>
    </contour>
    <contour>
      <point x="678.0" y="1256.0" type="move" name="top"/>
    </contour>
  </outline>
</glyph>
<glyph name="khadeva" format="1">
  <advance width="1634"/>
  <unicode hex="0916"/>
  <outline>
    <contour>
      <point x="1342" y="461" type="line"/>
      <point x="1305" y="416"/>
      <point x="1167" y="361"/>
      <point x="1083" y="361" type="qcurve" smooth="yes"/>
      <point x="967" y="361"/>
      <point x="776" y="515"/>
      <point x="776" y="658" type="qcurve" smooth="yes"/>
      <point x="776" y="790"/>
      <point x="964" y="941"/>
      <point x="1078" y="941" type="qcurve" smooth="yes"/>
      <point x="1162" y="941"/>
      <point x="1302" y="890"/>
      <point x="1340" y="856" type="qcurve"/>
      <point x="1340" y="799" type="line"/>
      <point x="1293" y="840"/>
      <point x="1162" y="892"/>
      <point x="1082" y="892" type="qcurve" smooth="yes"/>
      <point x="979" y="892"/>
      <point x="827" y="765"/>
      <point x="825" y="654" type="qcurve" smooth="yes"/>
      <point x="823" y="535"/>
      <point x="984" y="410"/>
      <point x="1079" y="410" type="qcurve" smooth="yes"/>
      <point x="1159" y="410"/>
      <point x="1293" y="465"/>
      <point x="1342" y="521" type="qcurve"/>
    </contour>
    <contour>
      <point x="513" y="1225" type="line"/>
      <point x="513" y="1274" type="line"/>
      <point x="1664" y="1274" type="line"/>
      <point x="1664" y="1225" type="line"/>
    </contour>
    <contour>
      <point x="1330" y="1237" type="line"/>
      <point x="1379" y="1237" type="line"/>
      <point x="1379" y="0" type="line"/>
      <point x="1330" y="0" type="line"/>
    </contour>
    <component base="radeva"/>
    <contour>
      <point x="1299" y="1256" type="move" name="top"/>
    </contour>
  </outline>
</glyph>
<glyph name="gadeva" format="1">
  <advance width="1144"/>
  <unicode hex="0917"/>
  <outline>
    <contour>
      <point x="840" y="1236" type="line"/>
      <point x="889" y="1236" type="line"/>
      <point x="889" y="0" type="line"/>
      <point x="840" y="0" type="line"/>
    </contour>
    <contour>
      <point x="1174" y="1225" type="line"/>
      <point x="-30" y="1225" type="line"/>
      <point x="-30" y="1274" type="line"/>
      <point x="1174" y="1274" type="line"/>
    </contour>
    <contour>
      <point x="346" y="1258" type="line"/>
      <point x="346" y="562" type="line" smooth="yes"/>
      <point x="346" y="511"/>
      <point x="317" y="472"/>
      <point x="297" y="472" type="qcurve" smooth="yes"/>
      <point x="259" y="472"/>
      <point x="204" y="567"/>
      <point x="204" y="622" type="qcurve" smooth="yes"/>
      <point x="204" y="654"/>
      <point x="237" y="687"/>
      <point x="274" y="687" type="qcurve" smooth="yes"/>
      <point x="309" y="687" type="line"/>
      <point x="297" y="665" type="line"/>
      <point x="297" y="1258" type="line"/>
    </contour>
    <contour>
      <point x="809.0" y="1256.0" type="move" name="top"/>
    </contour>
  </outline>
</glyph>
<glyph name="ghadeva" format="1">
  <advance width="1212"/>
  <unicode hex="0918"/>
  <outline>
    <contour>
      <point x="-30" y="1225" type="line"/>
      <point x="-30" y="1274" type="line"/>
      <point x="1242" y="1274" type="line"/>
      <point x="1242" y="1225" type="line"/>
    </contour>
    <contour>
      <point x="908" y="1255" type="line"/>
      <point x="957" y="1255" type="line"/>
      <point x="957" y="0" type="line"/>
      <point x="908" y="0" type="line"/>
    </contour>
    <contour>
      <point x="597" y="782" type="line"/>
      <point x="508" y="782" type="line" smooth="yes"/>
      <point x="369" y="782"/>
      <point x="202" y="929"/>
      <point x="202" y="1043" type="qcurve" smooth="yes"/>
      <point x="202" y="1143"/>
      <point x="355" y="1271"/>
      <point x="486" y="1271" type="qcurve" smooth="yes"/>
      <point x="578" y="1271" type="line"/>
      <point x="578" y="1225" type="line"/>
      <point x="484" y="1225" type="line" smooth="yes"/>
      <point x="374" y="1225"/>
      <point x="252" y="1126"/>
      <point x="252" y="1041" type="qcurve" smooth="yes"/>
      <point x="252" y="948"/>
      <point x="394" y="825"/>
      <point x="505" y="825" type="qcurve" smooth="yes"/>
      <point x="597" y="825" type="line"/>
    </contour>
    <contour>
      <point x="927" y="359" type="line"/>
      <point x="852" y="303"/>
      <point x="643" y="229"/>
      <point x="534" y="229" type="qcurve" smooth="yes"/>
      <point x="378" y="229"/>
      <point x="164" y="390"/>
      <point x="164" y="532" type="qcurve" smooth="yes"/>
      <point x="164" y="661"/>
      <point x="359" y="825"/>
      <point x="522" y="825" type="qcurve" smooth="yes"/>
      <point x="649" y="825" type="line"/>
      <point x="652" y="776" type="line"/>
      <point x="525" y="776" type="line" smooth="yes"/>
      <point x="386" y="776"/>
      <point x="213" y="641"/>
      <point x="213" y="530" type="qcurve" smooth="yes"/>
      <point x="213" y="417"/>
      <point x="387" y="278"/>
      <point x="528" y="278" type="qcurve" smooth="yes"/>
      <point x="635" y="278"/>
      <point x="839" y="349"/>
      <point x="927" y="420" type="qcurve"/>
    </contour>
    <contour>
      <point x="877" y="1256" type="move" name="top"/>
    </contour>
  </outline>
</glyph>
<glyph name="cadeva" format="1">
  <advance width="1250"/>
  <unicode hex="091A"/>
  <outline>
    <contour>
      <point x="68" y="799" type="line"/>
      <point x="68" y="848" type="line"/>
      <point x="721" y="848" type="line"/>
      <point x="721" y="799" type="line"/>
    </contour>
    <contour>
      <point x="-30" y="1225" type="line"/>
      <point x="-30" y="1274" type="line"/>
      <point x="1280" y="1274" type="line"/>
      <point x="1280" y="1225" type="line"/>
    </contour>
    <contour>
      <point x="946" y="1245" type="line"/>
      <point x="995" y="1245" type="line"/>
      <point x="995" y="0" type="line"/>
      <point x="946" y="0" type="line"/>
    </contour>
    <contour>
      <point x="968" y="399" type="line"/>
      <point x="916" y="355"/>
      <point x="734" y="271"/>
      <point x="634" y="271" type="qcurve" smooth="yes"/>
      <point x="475" y="271"/>
      <point x="283" y="433"/>
      <point x="283" y="559" type="qcurve" smooth="yes"/>
      <point x="283" y="681"/>
      <point x="468" y="844"/>
      <point x="635" y="844" type="qcurve"/>
      <point x="635" y="799" type="line"/>
      <point x="492" y="799"/>
      <point x="332" y="659"/>
      <point x="332" y="555" type="qcurve" smooth="yes"/>
      <point x="332" y="450"/>
      <point x="491" y="320"/>
      <point x="632" y="320" type="qcurve" smooth="yes"/>
      <point x="722" y="320"/>
      <point x="901" y="400"/>
      <point x="968" y="461" type="qcurve"/>
    </contour>
    <contour>
      <point x="909" y="1256" type="move" name="top"/>
    </contour>
  </outline>
</glyph>
<glyph name="chadeva" format="1">
  <advance width="1380"/>
  <unicode hex="091B"/>
  <outline>
    <contour>
      <point x="1409" y="1225" type="line"/>
      <point x="-30" y="1225" type="line"/>
      <point x="-30" y="1274" type="line"/>
      <point x="1409" y="1274" type="line"/>
    </contour>
    <contour>
      <point x="580" y="712" type="line"/>
      <point x="524" y="712" type="line" smooth="yes"/>
      <point x="355" y="712"/>
      <point x="173" y="886"/>
      <point x="175" y="1005" type="qcurve" smooth="yes"/>
      <point x="177" y="1118"/>
      <point x="344" y="1267"/>
      <point x="458" y="1267" type="qcurve" smooth="yes"/>
      <point x="544" y="1267" type="line"/>
      <point x="549" y="1225" type="line"/>
      <point x="472" y="1225" type="line" smooth="yes"/>
      <point x="363" y="1225"/>
      <point x="224" y="1090"/>
      <point x="224" y="1000" type="qcurve" smooth="yes"/>
      <point x="224" y="905"/>
      <point x="368" y="759"/>
      <point x="526" y="759" type="qcurve" smooth="yes"/>
      <point x="580" y="759" type="line"/>
    </contour>
    <contour>
      <point x="1224" y="600" type="qcurve" smooth="yes"/>
      <point x="1224" y="365"/>
      <point x="883" y="54"/>
      <point x="619" y="54" type="qcurve" smooth="yes"/>
      <point x="428" y="54"/>
      <point x="175" y="268"/>
      <point x="173" y="425" type="qcurve" smooth="yes"/>
      <point x="171" y="577"/>
      <point x="371" y="759"/>
      <point x="534" y="759" type="qcurve" smooth="yes"/>
      <point x="626" y="759" type="line"/>
      <point x="631" y="710" type="line"/>
      <point x="544" y="710" type="line" smooth="yes"/>
      <point x="394" y="710"/>
      <point x="221" y="555"/>
      <point x="223" y="421" type="qcurve" smooth="yes"/>
      <point x="225" y="287"/>
      <point x="453" y="103"/>
      <point x="614" y="103" type="qcurve" smooth="yes"/>
      <point x="859" y="103"/>
      <point x="1175" y="385"/>
      <point x="1175" y="605" type="qcurve" smooth="yes"/>
      <point x="1175" y="723"/>
      <point x="1060" y="877"/>
      <point x="979" y="877" type="qcurve" smooth="yes"/>
      <point x="927" y="877"/>
      <point x="852" y="855"/>
      <point x="814" y="831" type="qcurve"/>
      <point x="799" y="873" type="line"/>
      <point x="837" y="901"/>
      <point x="931" y="926"/>
      <point x="976" y="926" type="qcurve" smooth="yes"/>
      <point x="1077" y="926"/>
      <point x="1224" y="748"/>
    </contour>
    <contour>
      <point x="1076" y="1243" type="line"/>
      <point x="1125" y="1243" type="line"/>
      <point x="1125" y="853" type="line"/>
      <point x="1076" y="853" type="line"/>
    </contour>
    <contour>
      <point x="608" y="61" type="move" name="btm"/>
    </contour>
    <contour>
      <point x="968" y="1256" type="move" name="top"/>
    </contour>
  </outline>
</glyph>
